<?xml version="1.0" standalone="no"?>
<!DOCTYPE svg PUBLIC "-//W3C//DTD SVG 1.1//EN" "http://www.w3.org/Graphics/SVG/1.1/DTD/svg11.dtd" >
<svg xmlns="http://www.w3.org/2000/svg" xmlns:xlink="http://www.w3.org/1999/xlink" version="1.1">
<metadata>
Created by FontForge 20201107 at Fri Nov 30 21:39:28 2012
 By 
Copyright (c) 2012, Pablo Impallari (www.impallari.com|impallari@gmail.com), Copyright (c) 2012, Brenda Gallo (gbrenda1987@gmail.com), Copyright (c) 2012, Rodrigo Fuenzalida (www.rfuenzalida.com|hello@rfuenzalida.com), with Reserved Font Name 'New Rocker'
</metadata>
<defs>
<font id="NewRocker-Regular" horiz-adv-x="530" >
  <font-face 
    font-family="New Rocker"
    font-weight="400"
    font-stretch="normal"
    units-per-em="1000"
    panose-1="2 0 5 0 0 0 0 0 0 0"
    ascent="800"
    descent="-200"
    x-height="479"
    cap-height="740"
    bbox="-74 -283 1350 946"
    underline-thickness="50"
    underline-position="-100"
    unicode-range="U+0020-FB02"
  />
<missing-glyph horiz-adv-x="752" 
d="M50 -283v1229h652v-1229h-652zM120 -213h512v1088h-512v-1088zM348 142q0 65 18.5 107t41 74t41 62t18.5 71q0 42 -21 68.5t-63 26.5q-35 0 -59 -22.5t-24 -56.5q0 -38 11.5 -54.5t22.5 -21.5v-6q-14 0 -31.5 3t-33 12.5t-26 27.5t-10.5 49q0 45 21.5 63.5t56.5 18.5
q0 10 6 16t15 9t19.5 3.5t19.5 0.5q26 0 56.5 -5.5t56.5 -20.5t43 -42t17 -70q0 -31 -11 -55t-27 -45.5t-35.5 -42.5t-35.5 -45.5t-27 -54.5t-11 -70h-49zM329 27q0 19 13 32t31 13q19 0 31.5 -13t12.5 -32t-12.5 -32t-31.5 -13q-18 0 -31 13t-13 32z" />
    <glyph glyph-name="f_f" unicode="ff" horiz-adv-x="711" 
d="M712 451q-14 -15 -26.5 -36.5t-19.5 -42.5l-95 13v-252q0 -32 3 -53.5t10.5 -35t19.5 -21t29 -11.5v-12q-34 -1 -62.5 -7t-61.5 -21q-23 13 -58 20t-67 8v12q14 3 24.5 10t18 22t11 40t3.5 65v253q-24 3 -41 3q-19 0 -31.5 -3t-21.5 -7.5t-14.5 -10.5t-9.5 -12l-95 13
v-252q0 -32 3 -53.5t10.5 -35t19.5 -21t29 -11.5v-12q-34 -1 -62.5 -7t-61.5 -21q-23 13 -58 20t-67 8v12q14 3 24.5 10t18 22t11 40t3.5 65v243h-83v11q44 17 83 52v42q0 45 -0.5 74t-2.5 48.5t-6 33.5t-11 29q22 6 48.5 15.5t53 21.5t51 26.5t42.5 29.5q20 -18 50.5 -35.5
t78.5 -26.5q-14 -40 -36 -57.5t-47 -17.5q-23 0 -45 12.5t-39 33.5l-20 -13q4 -14 6.5 -28.5t4 -36.5t2 -53t0.5 -76v-22h213v42q0 45 -0.5 74t-2.5 48.5t-6 33.5t-11 29q22 6 48.5 15.5t53 21.5t51 26.5t42.5 29.5q20 -18 50.5 -35.5t78.5 -26.5q-14 -40 -36 -57.5
t-47 -17.5q-23 0 -45 12.5t-39 33.5l-20 -13q4 -14 6.5 -28.5t4 -36.5t2 -53t0.5 -76v-22h141v-4z" />
    <glyph glyph-name="f_i" unicode="fi" horiz-adv-x="639" 
d="M413 622q17 29 41.5 57.5t54.5 44.5q6 -8 18.5 -19t27 -22t28 -20.5t20.5 -13.5q-34 -24 -57.5 -46.5t-40.5 -56.5q-6 7 -18.5 17.5t-26.5 21.5t-27 21t-20 16zM572 455v-367q0 -63 27 -73v-15q-32 -5 -60 -12t-58 -16h-5q-34 46 -34 108v348q-32 0 -52.5 -5t-33.5 -13
t-20 -18t-13 -20l-95 13v-252q0 -32 3 -53.5t10.5 -35t19.5 -21t29 -11.5v-12q-34 -1 -62.5 -7t-61.5 -21q-23 13 -58 20t-67 8v12q14 3 24.5 10t18 22t11 40t3.5 65v243h-83v11q44 17 83 52v42q0 45 -0.5 74t-2.5 48.5t-6 33.5t-11 29q22 6 48.5 15.5t53 21.5t51 26.5
t42.5 29.5q20 -18 50.5 -35.5t78.5 -26.5q-14 -40 -36 -57.5t-47 -17.5q-23 0 -45 12.5t-39 33.5l-20 -13q4 -14 6.5 -28.5t4 -36.5t2 -53t0.5 -76v-22h138q19 0 45.5 2.5t53 6.5t50.5 9.5t39 11.5z" />
    <glyph glyph-name="f_l" unicode="fl" horiz-adv-x="646" 
d="M41 12q14 3 24.5 10t18 22t11 40t3.5 65v243h-83v11q44 17 83 52v42q0 45 -0.5 74t-2.5 48.5t-6 33.5t-11 29q22 6 48.5 15.5t53 21.5t51 26.5t42.5 29.5q35 -19 80 -33.5t102 -26.5h6q16 0 33.5 7.5t36 19t38 24t40.5 22.5q-20 -24 -27.5 -64t-7.5 -92v-484q0 -41 3 -68
t10.5 -48t21.5 -40.5t35 -46.5l-6 -9q-27 13 -45 20.5t-30.5 13.5t-22 12.5t-19.5 17.5q-29 -12 -62.5 -20t-65.5 -8l-1 7q26 13 39 43t13 70v513q0 20 -1 34.5t-5 27.5q-14 -23 -30 -32.5t-36 -9.5q-27 0 -61 16t-76 43l-20 -13q4 -14 6.5 -28.5t4 -36.5t2 -53t0.5 -76v-22
h141v-4q-14 -15 -26.5 -36.5t-19.5 -42.5l-95 13v-252q0 -32 3 -53.5t10.5 -35t19.5 -21t29 -11.5v-12q-34 -1 -62.5 -7t-61.5 -21q-23 13 -58 20t-67 8v12z" />
    <glyph glyph-name=".notdef" horiz-adv-x="752" 
d="M50 -283v1229h652v-1229h-652zM120 -213h512v1088h-512v-1088zM348 142q0 65 18.5 107t41 74t41 62t18.5 71q0 42 -21 68.5t-63 26.5q-35 0 -59 -22.5t-24 -56.5q0 -38 11.5 -54.5t22.5 -21.5v-6q-14 0 -31.5 3t-33 12.5t-26 27.5t-10.5 49q0 45 21.5 63.5t56.5 18.5
q0 10 6 16t15 9t19.5 3.5t19.5 0.5q26 0 56.5 -5.5t56.5 -20.5t43 -42t17 -70q0 -31 -11 -55t-27 -45.5t-35.5 -42.5t-35.5 -45.5t-27 -54.5t-11 -70h-49zM329 27q0 19 13 32t31 13q19 0 31.5 -13t12.5 -32t-12.5 -32t-31.5 -13q-18 0 -31 13t-13 32z" />
    <glyph glyph-name=".null" horiz-adv-x="0" 
 />
    <glyph glyph-name="nonmarkingreturn" horiz-adv-x="279" 
 />
    <glyph glyph-name="space" unicode=" " horiz-adv-x="225" 
 />
    <glyph glyph-name="exclam" unicode="!" horiz-adv-x="299" 
d="M73 201q13 26 15.5 55.5t2.5 57.5v362q0 28 -2.5 57.5t-15.5 55.5h160q-9 -25 -13 -53.5t-4 -58.5v-364q0 -30 4 -58.5t13 -53.5h-160zM56 22q17 29 41.5 57.5t54.5 44.5q6 -8 18.5 -19t27 -22t28 -20.5t20.5 -13.5q-34 -24 -57.5 -46.5t-40.5 -56.5q-6 7 -18.5 17.5
t-26.5 21.5t-27 21t-20 16z" />
    <glyph glyph-name="quotedbl" unicode="&#x22;" horiz-adv-x="354" 
d="M63 547q-2 13 -4.5 36.5t-5.5 50t-6.5 53t-7.5 46.5q9 -2 24.5 -2.5t32.5 -0.5q20 0 37.5 0.5t26.5 1.5q-3 -10 -7.5 -31t-10 -47.5t-10 -56t-7.5 -55.5q-21 1 -32 2.5t-30 2.5zM223 547q-2 13 -4.5 36.5t-5.5 50t-6.5 53t-7.5 46.5q9 -2 24.5 -2.5t32.5 -0.5
q20 0 37.5 0.5t26.5 1.5q-3 -10 -7.5 -31t-10 -47.5t-10 -56t-7.5 -55.5q-21 1 -32 2.5t-30 2.5z" />
    <glyph glyph-name="numbersign" unicode="#" horiz-adv-x="701" 
d="M41 349q26 -13 55.5 -15.5t57.5 -2.5h20l30 117q-67 0 -114 -17v128q26 -13 55.5 -15.5t57.5 -2.5h26l21 80l4 16t6 27t5 30.5t2 26.5q0 4 -2 12h144q-6 -3 -14 -9.5t-17 -19.5t-18.5 -33t-16.5 -49l-21 -81h117l21 80l4 16t6 27t5 30.5t2 26.5q0 4 -2 12h144
q-11 -6 -31.5 -33t-34.5 -78l-21 -81h22q28 0 57.5 2.5t55.5 15.5v-128q-25 9 -53.5 13t-58.5 4h-48l-31 -117h29q28 0 57.5 2.5t55.5 15.5v-128q-25 9 -53.5 13t-58.5 4h-54l-33 -126q-1 -5 -3.5 -16.5t-5.5 -26.5t-5 -30.5t-2 -26.5q0 -4 2 -12h-144q12 6 31.5 31t33.5 80
l33 127h-117l-33 -126q-2 -5 -4.5 -17t-5 -26.5t-4.5 -30t-2 -26.5q0 -4 2 -12h-144q6 3 14 9.5t17 19.5t17.5 33t16.5 49l33 127q-29 -1 -56.5 -5t-51.5 -12v128zM266 331h118l30 117h-117z" />
    <glyph glyph-name="dollar" unicode="$" horiz-adv-x="603" 
d="M414 261l-318 132q-7 49 -7.5 89.5t-3.5 66.5q-26 8 -40.5 31t-14.5 56q7 -1 13.5 -1h14.5q45 0 92 11.5t89 33.5q-1 27 -4.5 54t-13.5 52h160q-7 -22 -10.5 -45.5t-5.5 -49.5q42 -20 88 -27t97 -9q-16 -19 -24.5 -41.5t-12.5 -46.5t-4.5 -48t-0.5 -46q-46 2 -78 28.5
t-44 71.5q-28 1 -44.5 12.5t-35.5 22.5q-20 -19 -37 -31t-49 -26v-79l331 -117q-2 -19 -3.5 -40.5t-1.5 -44.5q0 -26 1 -44t2.5 -34.5t3.5 -35t4 -44.5q-42 -16 -76.5 -36.5t-76.5 -55.5q0 -29 4 -57.5t13 -53.5h-160q13 26 15.5 55.5t2.5 57.5v15q-32 14 -64.5 27t-79.5 27
q-19 -17 -31 -28.5t-32 -11.5q3 35 4.5 67l3 64t3 66t4.5 73q23 0 44.5 -6.5t37.5 -21t25.5 -37.5t9.5 -56q30 -14 52 -23t41 -15.5t37.5 -12t41.5 -12.5q12 15 22.5 25t22.5 24z" />
    <glyph glyph-name="percent" unicode="%" horiz-adv-x="794" 
d="M466 676q1 4 5 15.5t8 26.5t7.5 30.5t3.5 27.5q0 4 -2 12h154q-11 -6 -30 -31.5t-43 -79.5l-255 -565q-2 -4 -6 -16t-8 -27t-7 -30.5t-3 -26.5q0 -4 2 -12h-154q11 6 30 31.5t43 79.5zM474 347q14 1 35.5 4t45 8t46.5 13t40 19q25 -21 54.5 -28.5t58.5 -10.5v-282
q-23 -5 -43.5 -14.5t-38 -20t-30 -20t-18.5 -15.5q-10 9 -33 20.5t-48 23t-47 20t-30 11.5q3 6 4.5 20t3 33.5t2 42.5t0.5 47q0 34 -1 72t-1 57zM657 312q-7 0 -18.5 2.5t-24 6.5t-24.5 9.5t-21 11.5q1 -17 1.5 -48.5t0.5 -69.5q0 -56 -3 -110q1 0 12.5 -4t26 -10
t28.5 -12.5t20 -11.5zM39 746q14 1 35.5 4t45 8t46.5 13t40 19q25 -21 54.5 -28.5t58.5 -10.5v-282q-23 -5 -43.5 -14.5t-38 -20t-30 -20t-18.5 -15.5q-10 9 -33 20.5t-48 23t-47 20t-30 11.5q3 6 4.5 20t3 33.5t2 42.5t0.5 47q0 34 -1 72t-1 57zM222 711q-7 0 -18.5 2.5
t-24 6.5t-24.5 9.5t-21 11.5q1 -17 1.5 -48.5t0.5 -69.5q0 -56 -3 -110q1 0 12.5 -4t26 -10t28.5 -12.5t20 -11.5z" />
    <glyph glyph-name="ampersand" unicode="&#x26;" horiz-adv-x="745" 
d="M654 -37l-190 138q-14 -9 -33 -22t-40 -28.5t-42.5 -33t-39.5 -35.5q-33 21 -69 38t-70 30t-63 22t-49 13l-9 2q4 54 7.5 105t3.5 103q0 23 -1.5 44.5t-3.5 40.5l103 56l-65 72q-2 49 -5.5 89t-7.5 78q70 20 116.5 47t76.5 50q15 -8 33.5 -15.5t36.5 -14t32.5 -11
t20.5 -6.5q4 3 10.5 13t8.5 13q10 -6 24 -11.5t28 -9.5t27.5 -6.5t22.5 -3.5q-14 -24 -25 -49.5t-24 -58t-30.5 -73.5t-44.5 -96q-10 39 -19 90t-21 105q-26 4 -48.5 10.5t-43.5 16.5q-13 -14 -30 -24.5t-28 -14.5l9 -69l248 -288l53 156q15 -6 37.5 -12.5t50 -13.5
t58 -13.5t60.5 -12.5q-9 -11 -23 -20t-30.5 -15.5t-35 -10.5t-34.5 -4l-51 -131l178 -135zM308 112q6 6 17 15.5t23 19t23.5 18.5t18.5 14l-157 174l-41 -27l-7 -165q12 0 28.5 -5t34 -12.5t33.5 -16t27 -15.5z" />
    <glyph glyph-name="quotesingle" unicode="'" horiz-adv-x="194" 
d="M63 547q-2 13 -4.5 36.5t-5.5 50t-6.5 53t-7.5 46.5q9 -2 24.5 -2.5t32.5 -0.5q20 0 37.5 0.5t26.5 1.5q-3 -10 -7.5 -31t-10 -47.5t-10 -56t-7.5 -55.5q-21 1 -32 2.5t-30 2.5z" />
    <glyph glyph-name="parenleft" unicode="(" horiz-adv-x="433" 
d="M38 338q0 57 12 115t35 110t56.5 94t77.5 67q-8 5 -24.5 18.5t-34.5 18.5q54 13 94.5 20t84.5 7q24 0 50 -2t58 -7q-75 -14 -125 -56.5t-80 -103.5t-42.5 -134t-12.5 -147q0 -75 12.5 -147t42.5 -131.5t80 -101t125 -55.5q-32 -2 -59 -3.5t-52 -1.5q-43 0 -83 5t-93 18
q18 5 34.5 18.5t24.5 18.5q-47 30 -81.5 72.5t-56.5 92t-32.5 104.5t-10.5 111z" />
    <glyph glyph-name="parenright" unicode=")" horiz-adv-x="433" 
d="M395 338q0 -56 -10.5 -111t-32.5 -104.5t-56.5 -92t-81.5 -72.5q8 -5 24.5 -18.5t34.5 -18.5q-53 -13 -93 -18t-83 -5q-25 0 -52 1.5t-59 3.5q75 14 125 55.5t80 101t42.5 131.5t12.5 147q0 74 -12.5 147t-42.5 134t-80 103.5t-125 56.5q32 5 58 7t50 2q44 0 84.5 -7
t94.5 -20q-18 -5 -34.5 -18.5t-24.5 -18.5q43 -25 77 -67t57 -94t35 -110t12 -115z" />
    <glyph glyph-name="asterisk" unicode="*" horiz-adv-x="436" 
d="M273 787q-5 -16 -16.5 -54.5t-20.5 -83.5q13 12 27.5 25t29 26.5t28 26t24.5 21.5q3 -8 10.5 -22t15.5 -28t16 -27t12 -20q-9 -2 -24.5 -5.5t-35.5 -8.5t-42 -11.5t-44 -13.5q22 -8 44.5 -15t42.5 -12.5t36 -9t24 -4.5q-4 -6 -12 -19t-16 -27.5t-15.5 -28t-10.5 -22.5
q-11 9 -24 21t-27 25t-28.5 26t-27.5 25q4 -22 9 -43.5t10 -40.5t10 -33t8 -21q-9 1 -24 1.5t-35 0.5q-34 0 -52 -3q6 28 15 68t16 74q-17 -15 -33 -30t-29.5 -29t-24 -25.5t-15.5 -17.5q-3 7 -10.5 20t-16 27t-16.5 27.5t-13 21.5q25 7 60.5 18t67.5 22q-32 11 -68 22.5
t-62 19.5q6 6 14 19t16.5 28t15.5 28.5t11 19.5q5 -6 15 -17t23.5 -24.5t29 -28.5t32.5 -30q-7 34 -16 74t-15 69q18 -3 52 -3q20 0 35 0.5t24 1.5z" />
    <glyph glyph-name="plus" unicode="+" horiz-adv-x="476" 
d="M49 429q26 -13 55.5 -15.5t57.5 -2.5h24v24q0 28 -2.5 57.5t-15.5 55.5h138q-9 -25 -13 -53.5t-4 -58.5v-25h24q28 0 57.5 2.5t55.5 15.5v-138q-25 9 -53.5 13t-58.5 4h-25v-25q0 -30 4 -58.5t13 -53.5h-138q13 26 15.5 55.5t2.5 57.5v24h-25q-30 0 -58.5 -4t-53.5 -13
v138z" />
    <glyph glyph-name="comma" unicode="," horiz-adv-x="225" 
d="M36 45q24 20 34.5 42.5t19.5 56.5q14 0 30 -5.5t30.5 -18t24.5 -32.5t12 -48q-9 -24 -21 -54.5t-29.5 -58.5t-42 -50t-58.5 -29q11 21 18 49t7 57q0 26 -6 49.5t-19 41.5z" />
    <glyph glyph-name="hyphen" unicode="-" horiz-adv-x="449" 
d="M61 336q26 -13 55.5 -15.5t57.5 -2.5h101q28 0 57.5 2.5t55.5 15.5v-138q-25 9 -53.5 13t-58.5 4h-103q-30 0 -58.5 -4t-53.5 -13v138z" />
    <glyph glyph-name="period" unicode="." horiz-adv-x="241" 
d="M27 22q17 29 41.5 57.5t54.5 44.5q6 -8 18.5 -19t27 -22t28 -20.5t20.5 -13.5q-34 -24 -57.5 -46.5t-40.5 -56.5q-6 7 -18.5 17.5t-26.5 21.5t-27 21t-20 16z" />
    <glyph glyph-name="slash" unicode="/" horiz-adv-x="592" 
d="M18 0q11 6 37 32.5t54 78.5l273 510q40 74 40 112h154q-11 -6 -37 -32.5t-54 -78.5l-273 -510q-20 -38 -30 -65t-10 -47h-154z" />
    <glyph glyph-name="zero" unicode="0" horiz-adv-x="548" 
d="M73 652q56 2 108.5 22.5t119.5 62.5q24 -21 43 -34.5t38 -22t40.5 -12.5t49.5 -6v-553q-43 -10 -76 -28t-58 -38.5t-42.5 -39.5t-29.5 -31q-19 18 -47.5 41t-58.5 44.5t-57.5 38.5t-44.5 23q5 12 8.5 40t5.5 66t3 82.5t1 90.5q0 33 -0.5 70t-1 71.5t-1 64t-0.5 48.5z
M331 582q-26 12 -56 23.5t-65 36.5q1 -34 2 -95t1 -136q0 -54 -1 -107.5t-4 -107.5q2 -2 16.5 -10.5t33.5 -20t38.5 -23.5t32.5 -21z" />
    <glyph glyph-name="one" unicode="1" horiz-adv-x="417" 
d="M308 172q0 -40 17 -54t40 -14q17 0 28 4q-8 -10 -25 -24t-36.5 -29.5t-39 -30.5t-32.5 -26q-17 8 -41 27t-48 31v549q-11 -26 -40 -40t-62 -14q-37 0 -69 17q26 8 48 25.5t40 41t32 50t24 51.5q18 -21 40 -33.5t45 -20t43.5 -11.5t35.5 -7v-492z" />
    <glyph glyph-name="two" unicode="2" horiz-adv-x="550" 
d="M66 -33q-12 43 -12 93q0 61 18.5 123t53 117t83.5 99t111 69v149q-42 -17 -85 -25.5t-85 -8.5q-39 0 -71 8.5t-49 28.5q19 4 47.5 16t57 28.5t54 35.5t39.5 37q25 -21 57.5 -39.5t65 -32t61 -21.5t45.5 -8q8 0 10 1q-5 -8 -7.5 -23.5t-2.5 -32.5v-74q0 -12 2 -28t5.5 -32
t9 -30.5t12.5 -24.5q-75 -14 -126.5 -37t-86 -53.5t-56 -67.5t-36.5 -79q23 7 49.5 12.5t53.5 5.5q58 0 93 -13.5t52 -22.5q7 5 22.5 16.5t44.5 11.5q16 0 31 -4l-129 -167q-28 18 -60.5 33.5t-80.5 15.5q-40 0 -88 -16.5t-103 -59.5z" />
    <glyph glyph-name="three" unicode="3" horiz-adv-x="504" 
d="M175 -10q-8 8 -23 19.5t-33 22.5t-37 19.5t-35 11.5q6 21 8 39t2 34q0 15 -1.5 27t-3.5 23q6 1 12 1.5t12 0.5q36 0 71 -19.5t64 -72.5l89 21q0 2 -0.5 17.5t-0.5 37t-1 46.5t-1 47t-0.5 37.5t-0.5 18.5l-101 59l-40 -23l-41 53l41 46l40 -26l95 39q0 26 -1.5 50.5
t-1.5 50.5q0 24 3 50q-19 -17 -43 -25t-50 -8q-48 0 -91 22.5t-65 64.5q22 4 48 10t51 13.5t47.5 17t39.5 20.5q45 -32 97 -51t106 -19q3 0 6.5 0.5t7.5 0.5q-6 -18 -10 -43.5t-7 -54.5t-4 -59t-1 -57q-20 -6 -34.5 -11t-27.5 -10.5t-27 -11t-32 -12.5q21 -12 43.5 -21.5
t41 -16.5t30.5 -12t12 -8q0 -10 1 -35t3 -56.5t4.5 -66t5 -64t5.5 -50t5 -23.5q-30 0 -70 -6t-80 -15t-74.5 -20.5t-52.5 -22.5z" />
    <glyph glyph-name="four" unicode="4" horiz-adv-x="559" 
d="M301 212h-130q-48 0 -86 -1t-58 -6q5 28 5 45q0 28 -5.5 48.5t-10.5 25.5q6 4 24.5 29.5t43 62.5t51.5 82.5t51 90t41.5 83.5t22.5 65q18 -21 43.5 -34t52 -21.5t50.5 -12t38 -4.5v-358h71q0 -7 1 -23t3.5 -34t7 -35t11.5 -27q-7 6 -12 10.5t-11 7.5t-15 4.5t-24 1.5h-32
v-40q0 -40 17 -54t40 -14q16 0 28 4q-8 -10 -25 -24t-36.5 -29.5t-39 -30.5t-32.5 -26q-17 8 -40.5 24t-46.5 27zM308 606q-3 -7 -12 -26.5t-22 -46.5t-29 -58.5t-33 -62.5t-34.5 -58.5t-33.5 -46.5h164v299z" />
    <glyph glyph-name="five" unicode="5" horiz-adv-x="517" 
d="M449 429v-40.5t0.5 -71t1 -85.5t2 -83.5t3 -65t3.5 -29.5q-30 0 -65.5 -6t-70 -15t-64 -20.5t-47.5 -22.5q-50 59 -114 59q-38 0 -74 -16q24 58 61.5 87t79.5 29q12 0 32 -3t41 -8t40 -13t30 -18v18t-0.5 40.5t-1 54l-1 59t-0.5 55v42.5q-27 -11 -53.5 -22t-48.5 -20.5
t-37.5 -16t-20.5 -8.5q-12 7 -33 15.5t-41 17.5q10 26 13.5 68t3.5 90q0 37 -2 74t-5 69t-6.5 56t-6.5 35q51 -13 101.5 -21t101.5 -8q49 0 95.5 4.5t94.5 25.5q-4 -26 -12 -48.5t-24 -40t-42.5 -27.5t-66.5 -10q-20 0 -48 6.5t-56 14.5q1 -6 1.5 -20t1 -30t0.5 -30v-20
q0 -26 -1.5 -50.5t-1.5 -50.5l156 58z" />
    <glyph glyph-name="six" unicode="6" horiz-adv-x="517" 
d="M230 -10q-18 11 -36.5 22.5t-40 20.5t-46 15t-54.5 6q2 16 6.5 41.5t9.5 63t9 87t4 112.5q0 31 -1 77t-3.5 92t-6.5 84.5t-10 54.5q4 0 7.5 -0.5t6.5 -0.5q54 0 106 19t97 51q16 -11 38.5 -20.5t48 -17t51.5 -13.5t48 -10q-22 -42 -65 -64.5t-91 -22.5q-26 0 -50 8
t-43 25q3 -26 3 -50q0 -13 -0.5 -33.5t-1 -42t-1 -42t-0.5 -33.5l122 76q24 -28 54 -46.5t66 -30.5q-8 -35 -11.5 -73.5t-3.5 -77.5q0 -60 5.5 -113.5t10.5 -90.5q-35 0 -70 -7t-65.5 -18t-55 -24t-37.5 -24zM260 96q3 9 12 16.5t18.5 13.5t17.5 9.5t10 5.5v248l-105 -68
v-190z" />
    <glyph glyph-name="seven" unicode="7" horiz-adv-x="511" 
d="M330 199q11 -20 27.5 -33t36.5 -21q-17 -2 -35 -14t-34.5 -32t-28.5 -46t-16 -55q-31 15 -60.5 36.5t-53 48t-37.5 57.5t-14 64q0 54 25.5 110.5t61 108t74.5 94.5t66 71q-33 -8 -64.5 -14t-65.5 -6q-24 0 -49 4t-53 13q-8 -21 -25.5 -42.5t-44.5 -21.5q-15 0 -28 4
q15 27 25.5 49.5t17 46t11 51t7.5 63.5q45 -21 97 -31t109 -10q58 0 114.5 9.5t107.5 26.5q-12 -35 -12 -64q0 -18 4 -30q-53 -70 -96 -126t-73.5 -104.5t-47 -92t-16.5 -88.5q0 -16 9 -32t23 -16q8 0 16 7.5t22 14.5z" />
    <glyph glyph-name="eight" unicode="8" horiz-adv-x="531" 
d="M68 652q30 4 55.5 10t50.5 15.5t52 24t60 35.5q51 -42 98.5 -57t99.5 -17q0 -15 -9.5 -28t-17.5 -16v-214l-107 -10l84 -29l23 -28v-229q-43 -10 -77 -28t-59.5 -37.5t-43 -38.5t-26.5 -31q-15 20 -40 43t-52.5 43.5t-53.5 36.5t-42 22q5 12 7 39t2 64q0 31 -0.5 68.5
t-0.5 74.5l118 30l-118 10q0 31 -0.5 67.5t-1 70.5t-1 63t-0.5 46zM315 333l-47 40l-65 -31v-146q2 -2 14.5 -10.5t30 -20t36 -23.5t31.5 -21v212zM206 650q1 -27 1 -76.5t1 -106.5l46 -44l62 14v145q-26 12 -50.5 27.5t-59.5 40.5z" />
    <glyph glyph-name="nine" unicode="9" horiz-adv-x="515" 
d="M286 735q35 -23 76.5 -43t100.5 -21q-2 -16 -6.5 -41.5t-9.5 -63t-9 -87t-4 -112.5q0 -31 1 -77t3.5 -92t6.5 -84.5t10 -54.5q-4 0 -7.5 0.5t-6.5 0.5q-54 0 -106 -19t-97 -51q-17 10 -40 19.5t-47.5 17t-50 14t-48.5 10.5q22 42 65 64.5t91 22.5q26 0 50 -8t43 -25
q-3 25 -3 50q0 13 0.5 33.5t1 42t1 42t0.5 33.5l-122 -76q-24 28 -54 46.5t-66 30.5q8 35 11.5 73.5t3.5 77.5q0 60 -5.5 113.5t-10.5 90.5q34 0 69 7.5t65.5 18.5t55 23.5t38.5 23.5zM256 629q-3 -9 -12 -16.5t-18.5 -13.5t-18 -10t-9.5 -5v-248l105 68v190z" />
    <glyph glyph-name="colon" unicode=":" horiz-adv-x="285" 
d="M48 22q17 29 41.5 57.5t54.5 44.5q6 -8 18.5 -19t27 -22t28 -20.5t20.5 -13.5q-34 -24 -57.5 -46.5t-40.5 -56.5q-6 7 -18.5 17.5t-26.5 21.5t-27 21t-20 16zM48 353q17 29 41.5 57.5t54.5 44.5q6 -8 18.5 -19t27 -22t28 -20.5t20.5 -13.5q-34 -24 -57.5 -46.5
t-40.5 -56.5q-6 7 -18.5 17.5t-26.5 21.5t-27 21t-20 16z" />
    <glyph glyph-name="semicolon" unicode=";" horiz-adv-x="267" 
d="M39 353q17 29 41.5 57.5t54.5 44.5q6 -8 18.5 -19t27 -22t28 -20.5t20.5 -13.5q-34 -24 -57.5 -46.5t-40.5 -56.5q-6 7 -18.5 17.5t-26.5 21.5t-27 21t-20 16zM57 45q24 20 34.5 42.5t19.5 56.5q14 0 30 -5.5t30.5 -18t24.5 -32.5t12 -48q-9 -24 -21 -54.5t-29.5 -58.5
t-42 -50t-58.5 -29q11 21 18 49t7 57q0 26 -6 49.5t-19 41.5z" />
    <glyph glyph-name="less" unicode="&#x3c;" horiz-adv-x="464" 
d="M43 417l356 128v-102l-242 -91l242 -93v-102l-356 130v130z" />
    <glyph glyph-name="equal" unicode="=" horiz-adv-x="513" 
d="M68 438q26 -13 55.5 -15.5t57.5 -2.5h151q28 0 57.5 2.5t55.5 15.5v-138q-25 9 -53.5 13t-58.5 4h-153q-30 0 -58.5 -4t-53.5 -13v138zM68 238q26 -13 55.5 -15.5t57.5 -2.5h151q28 0 57.5 2.5t55.5 15.5v-138q-25 9 -53.5 13t-58.5 4h-153q-30 0 -58.5 -4t-53.5 -13v138
z" />
    <glyph glyph-name="greater" unicode="&#x3e;" horiz-adv-x="464" 
d="M421 287l-356 -130v102l242 93l-242 91v102l356 -128v-130z" />
    <glyph glyph-name="question" unicode="?" horiz-adv-x="504" 
d="M304 459v62.5t0.5 67.5t1 55.5t1.5 26.5q-11 -11 -30 -18.5t-40 -13t-41 -8t-32 -2.5q-42 0 -79.5 29t-61.5 87q38 -16 74 -16q64 0 114 59q18 -11 47.5 -22.5t64 -20.5t70 -15t65.5 -6q-2 -4 -3.5 -24.5t-2.5 -50.5t-2 -64.5t-1.5 -66t-0.5 -56.5v-35l-155 -102
q0 -14 1 -32.5t3.5 -37t5.5 -35.5t7 -29h-160q16 33 16 67q0 38 -4 63t-12 46zM133 22q17 29 41.5 57.5t54.5 44.5q6 -8 18.5 -19t27 -22t28 -20.5t20.5 -13.5q-34 -24 -57.5 -46.5t-40.5 -56.5q-6 7 -18.5 17.5t-26.5 21.5t-27 21t-20 16z" />
    <glyph glyph-name="at" unicode="@" horiz-adv-x="727" 
d="M485 21q9 -29 23.5 -53.5t31.5 -41.5q-36 -5 -74 -9.5t-70 -4.5q-81 0 -145 25t-108.5 68.5t-68 103t-23.5 127.5q0 52 17 109t55 104.5t99 78.5t150 31q78 0 137.5 -24t99.5 -63t60.5 -88.5t20.5 -100.5q0 -45 -15.5 -85.5t-41.5 -75.5q-36 -1 -63.5 -21t-36.5 -52
q-19 0 -34.5 8t-28.5 21t-23.5 29.5t-18.5 33.5l-39 -83q-38 23 -83.5 35t-103.5 13q10 26 12 65.5t2 79.5q0 12 -1 31t-2.5 39t-4 37.5t-5.5 26.5q20 5 35.5 7t36.5 2q39 0 74 -7t73 -19v10l10 8h120v-13q-8 -2 -9 -21.5t-1 -64.5q0 -43 0.5 -72t2.5 -48q17 15 43 18
q10 19 15.5 37t5.5 36q0 46 -14.5 87.5t-43.5 72.5t-73.5 49t-105.5 18q-66 0 -110 -19t-70.5 -53t-37.5 -80t-11 -100q0 -118 65.5 -179t177.5 -61q15 0 30 1t27.5 4t21 8t9.5 13zM329 180q11 -1 20.5 -1.5t20 -1.5t23 -3t30.5 -6v141q-33 11 -52.5 16.5t-39.5 5.5z" />
    <glyph glyph-name="A" unicode="A" horiz-adv-x="730" 
d="M823 -56q-57 20 -112.5 43.5t-109.5 55.5q-13 -13 -23 -22t-21 -15.5t-23.5 -11t-29.5 -8.5q10 12 14 29t4 35q0 29 -7.5 56.5t-13.5 46.5l-24 76q-29 -38 -57.5 -84t-49.5 -88q-17 24 -45.5 68t-63.5 95l-16 -52q-6 -20 -9.5 -40t-3.5 -41q0 -31 8 -61t26 -56
q-20 7 -33.5 14t-25 16t-23 19.5t-26.5 24.5q-42 -40 -83 -56.5t-92 -17.5q19 3 40 24.5t41 56t38.5 78.5t32.5 93l32 112q-35 37 -76 63.5t-74 26.5h-5t-12 -1l-1 3q43 22 80 22q25 0 51 -9.5t60 -28.5l54 185q5 17 7 30t2 21q0 21 -12.5 30t-44.5 9q-20 0 -43 -3t-55 -9
q6 9 29 21t55.5 23t70 18.5t72.5 7.5q26 0 50 -6t36 -21q18 1 39 5t40 9.5t34 11t20 8.5q-14 -20 -20.5 -47.5t-6.5 -59.5q0 -41 9 -85.5t21.5 -82.5t26.5 -65t24 -33q0 -59 20.5 -125t53 -126t73 -107.5t79.5 -71.5zM369 221q17 23 38.5 49.5t39.5 52.5l-77 250l-79 -258
q20 -21 40.5 -47t37.5 -47z" />
    <glyph glyph-name="B" unicode="B" horiz-adv-x="681" 
d="M267 632q-2 -41 -2 -81v-80v-37.5t2 -38.5q61 14 107.5 35t85.5 54q-1 12 -1.5 33.5t-0.5 30.5q0 11 1 21t3 24q-60 1 -106.5 10t-88.5 29zM627 356q-25 -60 -25 -134q0 -23 2.5 -48.5t8 -50.5t13.5 -48t19 -41q-28 -5 -65 -12.5t-77.5 -21t-80.5 -35.5t-73 -55
q-32 28 -69.5 48.5t-78 34.5t-82.5 23t-82 13l-2 4q23 7 40 26.5t28.5 44.5t17 52.5t5.5 51.5q0 16 -2 36t-6 39.5t-8.5 36t-9.5 26.5q17 31 23.5 67t6.5 72q0 35 -5 67t-13 58q-35 11 -56.5 36t-26.5 76q32 -5 62.5 -9t60.5 -4q45 0 84.5 12.5t81.5 45.5q9 -9 35.5 -23
t62 -27t76 -22.5t76.5 -9.5q14 0 27 1t27 3q-3 -9 -6.5 -21.5t-9 -25t-12 -23t-15.5 -15.5q-1 -9 -1.5 -18.5t-0.5 -19.5q0 -28 4 -57.5t14 -61.5q-27 -11 -65.5 -34t-83.5 -40q35 -7 68 -11t67 -4q23 0 43 3zM465 265q-33 10 -57.5 17.5t-47 13.5t-45.5 10.5t-52 9.5
q-3 -27 -4.5 -58t-1.5 -57q0 -30 1.5 -54t6.5 -54q10 -3 24 -8.5t28 -11.5t27 -13t22 -13q27 20 51 32.5t60 26.5q-5 31 -7.5 74t-4.5 85z" />
    <glyph glyph-name="C" unicode="C" horiz-adv-x="624" 
d="M46 0q15 9 26.5 34t20 57t12.5 66.5t4 63.5q0 45 -9.5 86t-26.5 62q16 16 26.5 42.5t16.5 57t8 62.5t2 60q0 23 -1 40t-2 26q-23 8 -47.5 33t-36.5 54q64 -7 121.5 -9.5t108.5 -2.5q109 0 176 7t106 7q8 0 14 -0.5t11 -1.5q-6 -12 -12.5 -45t-12.5 -72t-10.5 -76
t-6.5 -56l-7 -3q-35 26 -50.5 57.5t-23.5 77.5q-14 11 -35 14t-53 3q-26 0 -50 -1t-38 -1q-5 -29 -8.5 -67t-6 -81t-4 -89.5t-1.5 -92.5q0 -63 1.5 -119.5t5.5 -98.5l169 -17q14 62 49.5 110t76.5 93l6 -2q-3 -23 -4 -45.5t-1 -43.5q0 -52 5 -94t12 -63q-17 -2 -33.5 -5.5
t-35.5 -11.5t-40.5 -22t-47.5 -36q-84 25 -166 37.5t-148 12.5q-32 0 -59 -10z" />
    <glyph glyph-name="D" unicode="D" horiz-adv-x="702" 
d="M596 683q3 -48 8.5 -80.5t13.5 -62t19 -63t25 -83.5q-10 -20 -17.5 -50.5t-13 -63.5t-8 -65t-2.5 -56q0 -19 1.5 -37t6.5 -34q-58 -11 -101 -49.5t-85 -92.5q-81 35 -187.5 49.5t-227.5 14.5q11 6 28 22.5t33 38t27.5 45t11.5 43.5t-0.5 45t-4 51t-11 50.5t-20.5 42.5
q11 12 18 36.5t10.5 54t4.5 61t1 57.5q0 32 -5 55t-17.5 42.5t-34 38.5t-54.5 44q71 0 127.5 0.5t104.5 2t90 5t84 10.5q31 -19 79 -39t96 -33zM484 144q0 22 3 58.5t8.5 74t13 70.5t16.5 49q-7 20 -16 50.5t-18 64t-16 67t-10 59.5q-16 0 -40.5 -1.5t-53 -5t-57 -9
t-52.5 -13.5q-2 -45 -3 -103.5t-1 -124.5q0 -64 2.5 -134.5t8.5 -145.5q10 -3 26.5 -7t34.5 -8t35.5 -7.5t30.5 -5.5q14 23 38 42t50 30z" />
    <glyph glyph-name="E" unicode="E" horiz-adv-x="623" 
d="M46 0q15 9 26.5 34t20 57t12.5 66.5t4 63.5q0 45 -9.5 86t-26.5 62q16 16 26.5 42.5t16.5 57t8 62.5t2 60q0 23 -1 40t-2 26q-23 8 -47.5 33t-36.5 54q64 -7 121.5 -9.5t108.5 -2.5q109 0 176 7t106 7q8 0 14 -0.5t11 -1.5q-6 -11 -12.5 -40t-12.5 -63.5t-10.5 -67
t-6.5 -48.5l-7 -3q-35 20 -50.5 45t-23.5 60q-14 11 -35 14t-53 3q-26 0 -50 -1t-38 -1q-8 -39 -12 -95t-6 -119q14 -2 28.5 -2.5t22.5 -0.5q21 0 41.5 16.5t39.5 42.5q5 -12 10 -27.5t11.5 -31t14.5 -29.5t19 -21q-9 -9 -17.5 -23t-16 -30t-14 -32t-11.5 -29q-6 11 -14 24
t-17 24t-19.5 18.5t-22.5 7.5q-9 0 -26 -1t-31 -4v-18q0 -63 1.5 -119.5t5.5 -98.5l169 -17q14 62 49.5 110t76.5 93l6 -2q-3 -23 -4 -45.5t-1 -43.5q0 -52 5 -94t12 -63q-17 -2 -33.5 -5.5t-35.5 -11.5t-40.5 -22t-47.5 -36q-84 25 -166 37.5t-148 12.5q-32 0 -59 -10z" />
    <glyph glyph-name="F" unicode="F" horiz-adv-x="656" 
d="M-18 651q43 17 78 46t61 62q46 -15 79 -24t61 -14t55.5 -6.5t62.5 -1.5q-10 17 -14 30.5t-5 28.5q66 -42 131 -56.5t122 -14.5q18 0 34 1.5t31 3.5q-24 -22 -58 -41.5t-71.5 -34.5t-76.5 -24t-72 -9q-23 0 -51 1t-51 3q-2 -15 -2.5 -31t-0.5 -33v-115q20 -4 45 -4
q23 0 47 10.5t47 23.5q28 -19 58 -40t64 -41q-29 -17 -61 -40t-60 -43q-21 14 -44.5 23t-46.5 9q-24 0 -48 -7q1 -38 0.5 -81.5t5.5 -84t21 -75t46 -53.5q-43 -20 -65.5 -44t-44.5 -53q-17 29 -56.5 54.5t-84.5 42.5q10 15 17.5 34.5t12.5 42t7.5 46t2.5 46.5q0 51 -11.5 95
t-32.5 66q26 36 36.5 94.5t10.5 122.5q0 14 -0.5 28.5t-1.5 28.5q-36 11 -69.5 20.5t-57.5 9.5q-14 0 -25.5 -1.5t-23.5 -3.5z" />
    <glyph glyph-name="G" unicode="G" horiz-adv-x="651" 
d="M537 486q-20 14 -33.5 28.5t-22.5 31.5t-15 37t-10 44q-14 11 -45 14t-63 3q-26 0 -45 -1t-33 -1q-9 -25 -12 -85.5t-3 -138.5q0 -42 0.5 -86t1 -87t1 -83.5t0.5 -75.5q30 -7 49 -12.5t37 -9t41 -6t61 -4.5q2 8 2.5 34.5t0.5 61.5q0 39 -0.5 65t-2.5 52q-13 0 -21.5 2.5
t-20 5.5t-30 6t-49.5 5q4 7 10 18.5t12 24.5t10.5 24.5t6.5 19.5q38 -8 74.5 -12t69.5 -4q34 0 62 4.5t47 15.5q-3 -8 -10.5 -22.5t-15.5 -31t-14 -32.5t-6 -28q3 -42 5 -81t4.5 -70.5t4.5 -52.5t5 -27q-47 -11 -89 -34.5t-98 -70.5q-44 27 -94 46t-98.5 33.5t-93 25.5
t-77.5 22q16 4 27.5 19.5t19 38.5t11.5 51.5t4 57.5q0 45 -9.5 86t-26.5 62q16 16 26.5 42.5t16.5 57t8 62.5t2 60q0 23 -1 40t-2 26q-23 8 -47.5 33t-36.5 54q64 -7 121.5 -9.5t108.5 -2.5q111 0 182 7t110 7q8 0 14 -0.5t11 -1.5q-4 -9 -8.5 -30.5t-9.5 -48t-9 -56
t-7.5 -55t-5.5 -44.5t-2 -24z" />
    <glyph glyph-name="H" unicode="H" horiz-adv-x="752" 
d="M305 739q-15 -14 -25.5 -37.5t-17 -51t-9.5 -57t-3 -56.5v-127q33 -4 69 -4.5t74 -0.5q27 0 50 1t52 3v144q0 49 -7 88.5t-27 87.5q36 -6 75 -6q42 0 86.5 5t90.5 11q-27 -16 -42 -41.5t-22.5 -55.5t-9 -61t-1.5 -58q0 -23 2 -45.5t7.5 -43t15 -37.5t24.5 -28
q-18 -32 -32.5 -80t-14.5 -96q0 -26 1.5 -50.5t7 -46t16 -39t27.5 -28.5q-47 -17 -71 -44t-40 -53q-5 13 -17 27.5t-28 27.5t-35.5 24t-40.5 18q13 14 20 36.5t10.5 50.5t4 60t0.5 65v42q-29 3 -50.5 4.5t-45.5 1.5q-45 0 -80.5 -2t-66.5 -6v-53q0 -64 12 -121.5t51 -112.5
q-45 7 -80.5 9.5t-62.5 2.5q-45 0 -78 -3t-66 -8q21 13 39 34t31 47t20.5 55t7.5 58q0 51 -12 99.5t-38 80.5q28 52 38.5 95t10.5 89q0 28 -3 60q-36 9 -66.5 39t-37.5 88q42 -9 78 -13t68 -4q38 0 71.5 5.5t69.5 10.5z" />
    <glyph glyph-name="I" unicode="I" horiz-adv-x="396" 
d="M343 739q-21 -14 -35.5 -37.5t-23 -51t-12.5 -57t-4 -56.5q0 -19 1.5 -40.5t5 -44t9 -44t13.5 -39.5q-16 -27 -21.5 -65t-5.5 -76q0 -64 16 -121.5t67 -112.5q-54 7 -94.5 9.5t-73.5 2.5q-45 0 -78 -3t-66 -8q21 13 39 34.5t31 47.5t20.5 55t7.5 57q0 51 -12 99.5
t-38 80.5q28 52 37 95t9 89q0 28 -3 60q-39 16 -53 50.5t-18 76.5q33 -9 61.5 -13t54.5 -4q46 0 85 5.5t81 10.5z" />
    <glyph glyph-name="J" unicode="J" horiz-adv-x="382" 
d="M-61 -204q19 7 45 26.5t53 46t51.5 56.5t40.5 59q1 12 2 20t1.5 18t1 24.5t0.5 39.5q0 36 -1.5 71t-6 65t-12.5 53t-20 34q24 38 32 91.5t8 110.5q0 42 -2 77t-3 69q-13 0 -21.5 2.5t-20 5.5t-30 6t-49.5 5q8 15 18 29t21 28q3 4 13.5 5t25.5 1q17 0 42 -1.5t52 -3
t53 -2.5t44 -1q34 0 43 6q-3 -8 -10.5 -17.5t-15.5 -20.5t-14 -22.5t-6 -23.5q0 -30 -2 -64.5t-2 -76.5q0 -57 7 -111t29 -92q-16 -39 -22.5 -95.5t-6.5 -119.5q0 -54 5.5 -88.5t20.5 -43.5v-5q-25 -14 -66 -40t-85.5 -56.5t-87.5 -61.5t-72 -55z" />
    <glyph glyph-name="K" unicode="K" horiz-adv-x="694" 
d="M653 39q-43 -29 -64 -57t-36 -70q-10 42 -39.5 73t-74.5 54q9 9 13.5 23.5t7 41t3.5 67.5t3 103q-5 2 -26.5 20.5t-47.5 41.5l-131 -82q4 -72 11 -137.5t21 -126.5q-26 13 -46.5 18t-39.5 5q-17 0 -33.5 -3t-34 -6.5t-36.5 -6.5t-42 -3h-11t-11 1q21 13 38.5 34.5
t30 47.5t19.5 55t7 57q0 51 -12 99.5t-38 80.5q28 52 38.5 95t10.5 89q0 14 -0.5 35.5t-2.5 37.5q-35 10 -55 34.5t-26 82.5q17 -5 30.5 -9t27.5 -7t31 -4.5t41 -1.5h33.5t24.5 1t27 3.5t40 6.5q-17 -29 -26.5 -58t-14.5 -70t-6.5 -99.5t-2.5 -145.5q34 18 68 42.5t61 47.5
t44 39t19 18q0 16 3 42.5t3 57.5q0 15 -1.5 32t-5.5 33.5t-11 31.5t-18 25q12 -6 26.5 -9.5t28 -5.5t24 -2.5t14.5 -0.5q15 0 28 6t27 12.5t31 12.5t40 6h11q-15 -16 -26 -36.5t-17.5 -43.5t-9.5 -46.5t-3 -45.5q0 -32 5.5 -61.5t14.5 -52.5q-5 -2 -16 -7t-26 -13t-32 -18
t-35 -20q12 -12 27 -23t31.5 -21.5t32.5 -20.5t30 -19q-5 -11 -7.5 -38t-2.5 -62q0 -26 2 -52.5t7 -51t12.5 -44.5t19.5 -32z" />
    <glyph glyph-name="L" unicode="L" horiz-adv-x="535" 
d="M799 -173q-76 -38 -142 -48t-120 -10q-55 0 -98 14t-78.5 35.5t-65.5 46.5t-59 46.5t-58.5 35.5t-64.5 14q-32 0 -65 -6q40 48 59 113.5t19 137.5q0 21 -2 43.5t-7.5 44t-16 41t-27.5 34.5q28 52 38.5 95t10.5 89q0 47 -5.5 72.5t-17.5 40.5t-30.5 25.5t-45.5 28.5
q19 -2 36.5 -3t34.5 -1q40 0 74 4t64 9t58 9t57 4q20 0 43 -3q-25 0 -47.5 -19t-40 -48.5t-28 -65t-10.5 -69.5v-253q0 -33 2.5 -62.5t7 -53t10.5 -40.5t13 -24q-17 -7 -39.5 -18.5t-34.5 -34.5q6 -20 35.5 -49.5t68.5 -59t80.5 -53.5t70.5 -33q-13 17 -25.5 39.5
t-20.5 39.5q46 -28 85 -47t73.5 -31t66.5 -17t65 -5q17 0 35 1.5t38 3.5z" />
    <glyph glyph-name="M" unicode="M" horiz-adv-x="910" 
d="M429 62l-189 332v-153q0 -62 4 -104t13 -73t23 -54.5t34 -47.5q-22 6 -38.5 12t-32 14t-32 20t-38.5 30q-14 -24 -30.5 -44.5t-39 -38.5t-51.5 -33t-68 -27q30 29 56 65.5t45.5 78t31 85.5t11.5 89q0 42 -10.5 81t-34.5 75q49 94 49 168q0 63 -32.5 113.5t-92.5 93.5
q10 3 23 3q20 0 44.5 -4.5t54 -9.5t64.5 -9.5t77 -4.5h19.5t19.5 1q-9 -7 -16.5 -18t-13.5 -24t-9.5 -27t-3.5 -26l199 -343l166 337q-12 35 -27.5 59t-40.5 45q7 -2 13 -2h13q34 0 71 2.5t74 7t72 10t67 10.5q-30 -21 -48.5 -45.5t-28 -51.5t-13 -56.5t-3.5 -60.5
q0 -38 13 -79t38 -89q-18 -32 -32.5 -80t-14.5 -96q0 -52 18.5 -97t53.5 -67q-21 -11 -42 -25.5t-39 -31t-32 -33.5t-21 -32q-5 15 -17.5 33t-30.5 35t-39 31.5t-42 22.5q16 14 25.5 37t14 51t6 60t1.5 64v189l-194 -371z" />
    <glyph glyph-name="N" unicode="N" horiz-adv-x="768" 
d="M522 130q-5 99 -7.5 190t-4 161t-2 112t-0.5 43q-5 61 -63 84q10 -1 19.5 -1h19.5q45 0 82.5 4.5t68.5 9.5t56.5 9.5t47.5 4.5q12 0 23 -3q-60 -43 -92.5 -93.5t-32.5 -113.5q0 -74 49 -168q-23 -58 -37.5 -125t-14.5 -134q0 -29 2.5 -66.5t9.5 -73.5q30 -32 53.5 -50
t42.5 -27t35.5 -12t32.5 -5l-26 66q34 -19 68 -36t70 -30t75.5 -20.5t84.5 -7.5q30 0 62.5 2t68.5 7q-88 -35 -165.5 -50.5t-146.5 -15.5q-88 0 -162.5 25t-138 67.5t-116 98t-96 117t-78 124.5t-61.5 120v-102q0 -62 4 -104t13 -73t23 -54.5t34 -47.5q-22 6 -38.5 12
t-32 14t-32 20t-38.5 30q-27 -48 -72 -83t-121 -60q30 29 56 65.5t45.5 78t31 85.5t11.5 89q0 42 -10.5 81t-34.5 75q49 94 49 168q0 63 -32.5 113.5t-92.5 93.5q10 3 23 3q20 0 45.5 -4.5t56 -9.5t66 -9.5t76.5 -4.5h19.5t19.5 1q-54 -21 -62 -74q18 -45 43.5 -104t57 -124
t68.5 -131.5t77 -126.5z" />
    <glyph glyph-name="O" unicode="O" horiz-adv-x="691" 
d="M222 113q18 -10 33 -18t30.5 -14.5t33.5 -11.5t41 -9q42 21 67 27.5t33 11.5q2 97 3.5 203.5t1.5 202.5v49.5t-2 47.5q-18 10 -33 18t-30.5 14.5t-33 11.5t-40.5 9q-42 -21 -67.5 -29t-33.5 -13q-1 -25 -2 -60.5t-1.5 -76.5t-0.5 -86v-88q0 -45 0.5 -97t0.5 -92zM42 362
q13 14 23.5 35.5t18.5 47t12.5 53.5t4.5 55q0 46 -14 87t-46 60q31 2 67.5 8t73.5 15t71 19.5t60 22.5q33 -5 78.5 -16.5t90.5 -23.5l82.5 -22t54.5 -11q-14 -23 -20 -57.5t-6 -71.5q0 -56 14 -111.5t40 -90.5q-25 -31 -41 -84.5t-16 -110.5q0 -46 14 -86t46 -60
q-31 -2 -68.5 -8t-75 -15t-72.5 -19.5t-60 -22.5q-33 4 -78 15t-89.5 23t-81.5 22.5t-53 12.5q14 13 19.5 42.5t5.5 67.5q0 35 -4.5 73.5t-12 71t-17.5 54.5t-21 25z" />
    <glyph glyph-name="P" unicode="P" horiz-adv-x="692" 
d="M475 212q-42 15 -95.5 18t-116.5 4v-41q0 -52 18.5 -97t53.5 -67q-43 -29 -67 -62t-47 -75q-17 42 -56.5 78t-84.5 59q20 29 30 71.5t10 87.5q0 51 -11.5 95t-32.5 66q29 42 38.5 93.5t9.5 103.5q0 14 -0.5 28t-1.5 28q-35 11 -60 39t-30 79q34 -5 62 -8t54 -3
q47 0 91.5 13t102.5 47q11 -9 43.5 -23t76.5 -27t93 -22.5t93 -9.5q14 0 27 1t27 3q-5 -11 -13 -26t-18.5 -30t-24.5 -29t-30 -24q-5 -32 -7.5 -63t-2.5 -60q0 -42 7 -72t25 -66q-32 -9 -56 -19.5t-42.5 -23.5t-34 -29.5t-30.5 -36.5zM482 366q-1 14 -1.5 40t-1.5 56
t-1.5 60.5t-1.5 53.5q-32 6 -60 13t-53.5 14.5t-50 15t-50.5 14.5q-1 -33 -1 -65v-63v-79.5t1 -75.5q10 1 21.5 1.5t24.5 0.5q20 0 42 -1.5t42 -4t35.5 -6.5t23.5 -9q5 11 14 20.5t17 14.5z" />
    <glyph glyph-name="Q" unicode="Q" horiz-adv-x="691" 
d="M42 362q13 14 23.5 35.5t18.5 47t12.5 53.5t4.5 55q0 46 -14 87t-46 60q31 2 67.5 8t73.5 15t71 19.5t60 22.5q33 -5 78.5 -16.5t90.5 -23.5l82.5 -22t54.5 -11q-14 -23 -20 -57.5t-6 -71.5q0 -56 14 -111.5t40 -90.5q-25 -31 -41 -84.5t-16 -110.5q0 -46 14 -86t46 -60
q-26 -2 -56 -6.5t-61.5 -11t-62 -14.5t-57.5 -17q10 -22 22.5 -43.5t29.5 -37.5q11 7 20 15.5t19 19.5q13 -49 34 -92t65 -79q-70 21 -123.5 48t-94 56.5t-69.5 60t-49 59.5q-30 8 -60 16.5t-56.5 15.5t-47 12t-31.5 6q14 13 19.5 42.5t5.5 67.5q0 35 -4.5 73.5t-12 71
t-17.5 54.5t-21 25zM222 113q18 -10 33 -18t30.5 -14.5t33.5 -11.5t41 -9q42 21 67 27.5t33 11.5q2 97 3.5 203.5t1.5 202.5v49.5t-2 47.5q-18 10 -33 18t-30.5 14.5t-33 11.5t-40.5 9q-42 -21 -67.5 -29t-33.5 -13q-1 -25 -2 -60.5t-1.5 -76.5t-0.5 -86v-88q0 -45 0.5 -97
t0.5 -92z" />
    <glyph glyph-name="R" unicode="R" horiz-adv-x="704" 
d="M653 39q-42 -30 -65.5 -72.5t-37.5 -84.5q-5 20 -14.5 43t-23.5 44.5t-32.5 40t-40.5 29.5q9 9 13.5 23.5t7 41t3.5 67.5t3 103q-4 2 -26.5 19t-48.5 38q-35 -21 -68.5 -41t-61.5 -37q4 -75 11.5 -141.5t20.5 -121.5q-26 13 -46.5 18t-39.5 5q-17 0 -33.5 -3t-34 -6.5
t-36.5 -6.5t-42 -3h-11t-11 1q21 13 39 34.5t31 47.5t20.5 55t7.5 57q0 51 -12 99.5t-38 80.5q28 52 38 98.5t10 92.5q0 27 -3 59q-42 6 -64.5 31.5t-22.5 79.5q42 -9 69 -12.5t55 -3.5q16 0 35 1.5t40.5 7.5t46.5 18.5t53 34.5q11 -9 44 -23t77 -27t93.5 -22t93.5 -9
q14 0 27 1t27 3q-11 -23 -43 -47.5t-71 -39.5q-3 -14 -3 -30t1.5 -34t4 -36t6.5 -34t9 -27q-10 -3 -34.5 -15.5t-58.5 -32.5q23 -21 50 -44t55 -40q-5 -11 -7.5 -38t-2.5 -62q0 -26 2 -52.5t7 -51t12.5 -44.5t19.5 -32zM449 619q-54 8 -100 14t-91 17q-2 -25 -2 -54v-59v-78
v-79q32 19 66 38.5t63 36t48 28t21 13.5z" />
    <glyph glyph-name="S" unicode="S" horiz-adv-x="590" 
d="M254 661q-16 -30 -23 -63.5t-7 -68.5q0 -29 4 -58t11 -58q24 7 50.5 12t59 8t73.5 5t94 4q-3 -40 -6 -92t-3 -110q0 -55 4.5 -110.5t17.5 -106.5q-52 0 -100 -16t-78 -45q-21 13 -47.5 26.5t-63.5 24.5t-86.5 19.5t-116.5 11.5q23 27 36.5 56.5t13.5 62.5q0 11 -1 21
t-4 21q14 0 39 -11.5t59 -29.5t76.5 -41.5t92.5 -47.5q9 25 14.5 67.5t5.5 87.5q0 39 -5 72t-16 47q-27 -2 -60 -6t-68 -10t-70 -13t-67 -15q6 42 11 90t5 99q0 57 -11 110t-43 95q10 -1 28 -4t44 -3q57 0 97 20t68 68q15 -10 36.5 -21t47 -20t54.5 -14.5t60 -5.5
q20 0 39 3.5t37 8.5q-20 -53 -54 -89t-75 -36q-14 0 -36.5 4.5t-47 12t-48.5 17.5t-41 21z" />
    <glyph glyph-name="T" unicode="T" horiz-adv-x="663" 
d="M682 729q-24 -21 -52.5 -40t-59.5 -33t-64 -22.5t-66 -8.5h-21t-20 1q-3 -30 -3 -61q0 -85 1 -171t1 -183q0 -52 18.5 -100.5t53.5 -70.5q-42 -20 -70.5 -42.5t-50.5 -64.5q-17 41 -53 65.5t-81 41.5q20 29 30 75.5t10 90.5v76.5t0.5 62.5t1 56t1 58t0.5 68v87v15t-2 15
q-66 12 -125.5 24.5t-108.5 12.5q-22 0 -47 -5l-1 3q54 16 88.5 39t69.5 55q52 -15 88.5 -24t68 -14t62 -6.5t69.5 -1.5q-10 17 -14 30.5t-5 28.5q33 -21 61.5 -32.5t54.5 -17t52 -6.5t54 -1q16 0 29.5 1t27.5 3z" />
    <glyph glyph-name="U" unicode="U" horiz-adv-x="709" 
d="M582 535q0 -33 5 -65.5t12.5 -59t16.5 -44.5t17 -23q-18 -18 -29.5 -41.5t-18 -49.5t-8.5 -53.5t-2 -53.5q0 -15 0.5 -26.5t1.5 -19.5q17 -4 33 -12t29.5 -23t23 -38t12.5 -56q-60 18 -105 25t-83 7q-103 0 -170 -17.5t-92 -32.5q-14 30 -53 65.5t-87 75.5q2 14 3 33.5
t1 33.5q0 34 -2 65.5t-6.5 57t-10.5 43t-14 23.5q27 35 39 84.5t12 106.5q0 52 -12.5 99t-42.5 90q45 -4 77 -9.5t54 -20.5t36.5 -44.5t24.5 -80.5q0 -109 -8 -210t-12 -207l76 -93q24 15 58.5 26t77.5 13q9 25 12.5 73t4 110t0.5 134t1 147q-3 73 -9 155q58 -19 116 -19
q26 0 55 4.5t66 14.5q-3 -31 -12.5 -54t-23 -38.5t-30 -24.5t-32.5 -12q-1 -8 -1.5 -21t-0.5 -37z" />
    <glyph glyph-name="V" unicode="V" horiz-adv-x="769" 
d="M396 -75q-44 50 -87.5 82.5t-88.5 58.5q1 1 1 11q0 18 -6 56t-17 88.5t-25.5 108.5t-32.5 116.5t-37.5 112.5t-40 95t-41.5 66t-40 25q45 0 74 -4.5t47 -11.5t28 -16t19 -19q18 18 30.5 27t24 13.5t24 6t29.5 4.5q-12 -17 -20 -37.5t-8 -41.5q0 -5 0.5 -9t1.5 -9
l127 -531l37 -39l36 38l104 532q1 5 1 9v9q0 22 -12.5 42t-24.5 37q17 -9 36 -14t37.5 -7.5t34.5 -3t28 -0.5q23 0 42 4t38 8.5t40 8.5t49 4q-7 -4 -23 -14t-36 -28.5t-42 -45.5t-40 -63.5t-29.5 -83t-11.5 -103.5q0 -13 2 -24t10 -37q-22 -21 -36.5 -56t-23.5 -73
t-12.5 -73.5t-3.5 -57.5q0 -5 0.5 -8.5t0.5 -6.5q-51 -31 -93 -71.5t-70 -74.5z" />
    <glyph glyph-name="W" unicode="W" horiz-adv-x="935" 
d="M605 -87q-22 25 -45.5 56t-45 62t-38 57t-24.5 41q-10 -15 -28 -44.5t-38.5 -61.5t-40 -62.5t-32.5 -47.5q-22 25 -47.5 45t-52.5 37t-53 31.5t-48 27.5q2 12 6.5 45.5t4.5 70.5q0 48 -3.5 108.5t-11 123t-18 121.5t-25 105.5t-32 75t-38.5 29.5q42 0 69.5 -4t45.5 -10.5
t28.5 -16t19.5 -20.5q18 18 30.5 27t24 13.5t24 6t29.5 4.5q-12 -17 -19.5 -37.5t-7.5 -41.5v-9t1 -9l35 -521l37 -39l80 138v186q0 50 -1.5 80t-6 49.5t-13 33.5t-22.5 31q45 31 69 73.5t35 83.5q15 -42 40 -85t68 -72q-10 -11 -18 -22t-14 -27.5t-9 -42t-3 -65.5v-224
l87 -137l36 38l38 522q1 5 1.5 11t0.5 12q0 24 -9 45t-29 29q17 -6 35 -9t35.5 -4.5t33 -1.5h27.5q24 0 43.5 2.5l39 5t41.5 5t50 2.5q-30 -2 -55.5 -24.5t-44 -57t-29.5 -78t-11 -87.5q0 -71 31 -126q-25 -34 -39.5 -76.5t-14.5 -87.5q0 -35 4 -70t10 -67
q-25 -15 -53 -33.5t-54.5 -38t-49 -38.5t-36.5 -36z" />
    <glyph glyph-name="X" unicode="X" horiz-adv-x="692" 
d="M605 104q23 -36 56.5 -65t67.5 -39q-94 1 -145.5 10.5t-70.5 30.5q-14 -25 -42 -32t-66 -9q10 14 21.5 34t11.5 40q0 12 -5 22l-90 178l-107 -222q-5 -11 -7 -19t-3 -16q0 -12 8 -23q-27 5 -44 7t-37 2q-29 0 -68.5 -3t-96.5 -6q6 0 16.5 5.5t22.5 13.5t23 18t17 19
l197 313l-171 273q-22 35 -56 64.5t-68 39.5q94 -1 145.5 -10.5t70.5 -30.5q14 25 42 32t66 9q-12 -16 -20 -32t-8 -34q0 -10 1 -20.5t6 -21.5l85 -183l83 187q1 1 5 10.5t9 21t9 21.5t4 11q0 12 -8 20.5t-16 13.5q27 -5 59 -6.5t53 -1.5q29 0 63 3t90 6q-9 -2 -22.5 -5.5
t-30.5 -14.5t-36 -31t-38 -55l-145 -261z" />
    <glyph glyph-name="Y" unicode="Y" horiz-adv-x="757" 
d="M259 27q13 21 23 46.5t16 53t9.5 55.5t4.5 54q-28 29 -55.5 58.5t-56.5 46.5q0 47 -18 104.5t-48.5 113t-69.5 103t-81 74.5q48 0 77 -3.5t47 -10t28 -15t20 -18.5q14 25 47 37t72 14q-12 -17 -20.5 -37.5t-8.5 -41.5q0 -5 0.5 -9t1.5 -9l106 -248l38 -39l37 38l102 249
q1 5 1 9v9q0 22 -12.5 42t-25.5 37q16 -8 34 -13t36 -7.5t34 -3.5t28 -1q21 0 37.5 4t34 8.5t37.5 8.5t49 4q-27 -17 -55 -47t-54 -67t-49.5 -77.5t-41 -78.5t-27.5 -70.5t-10 -53.5q-30 -19 -51 -50.5t-43 -58.5q1 -30 5.5 -61.5t12 -60.5t17 -52.5t20.5 -35.5
q-45 -29 -72 -57t-43 -70q-10 41 -48.5 72.5t-84.5 54.5z" />
    <glyph glyph-name="Z" unicode="Z" horiz-adv-x="677" 
d="M33 651q51 17 89.5 39t70.5 54q50 -7 83.5 -11t57.5 -5.5t43 -1.5h42q30 0 59 1.5t60 4t65 6t74 8.5q-65 -87 -110 -148.5t-73 -104t-40.5 -69t-12.5 -42.5q0 -14 8 -22.5t23 -16.5q-4 0 -7 0.5t-6 0.5q-21 0 -39 -9.5t-34.5 -25t-32.5 -36.5t-32 -44l-100 -142
q37 -13 71.5 -21t85.5 -8q-12 17 -16 30.5t-4 29.5q60 -20 104 -29.5t81 -11.5q32 0 63 2t68 8q-32 -38 -75 -62t-88.5 -37.5t-91 -18t-82.5 -4.5q-38 0 -66 2.5t-51.5 6.5t-45 8t-46.5 7q-29 0 -64 -1.5t-80 -7.5l158 209q38 51 57 85t19 58q0 26 -22 49q25 5 50.5 18.5
t53 40t56.5 69t61 105.5q-5 -1 -9.5 -1h-9.5q-56 0 -102.5 5.5t-88 12t-79 12t-73.5 5.5h-9.5t-9.5 -2z" />
    <glyph glyph-name="bracketleft" unicode="[" horiz-adv-x="374" 
d="M194 703v-720h157v-90h-279q9 25 13 53.5t4 58.5v671q0 30 -4 58.5t-13 53.5h279v-85h-157z" />
    <glyph glyph-name="backslash" unicode="\" horiz-adv-x="592" 
d="M420 0q0 37 -40 112l-273 510q-28 52 -54 78.5t-37 32.5h154q-1 -37 40 -112l273 -510q28 -52 54 -78.5t37 -32.5h-154z" />
    <glyph glyph-name="bracketright" unicode="]" horiz-adv-x="374" 
d="M23 703v85h279q-9 -25 -13 -53.5t-4 -58.5v-671q0 -30 4 -58.5t13 -53.5h-279v90h157v720h-157z" />
    <glyph glyph-name="asciicircum" unicode="^" horiz-adv-x="459" 
d="M430 541q-15 -12 -27.5 -25t-28.5 -27q-10 9 -30 28.5t-42 40.5t-42 40.5t-30 28.5q-11 -9 -31.5 -28t-42.5 -40.5t-42 -41t-29 -28.5q-16 14 -28.5 27t-27.5 25q15 17 42 44l56.5 56.5t57 59t44.5 51.5q28 -35 60.5 -69.5t62 -63.5t51 -50t27.5 -28z" />
    <glyph glyph-name="underscore" unicode="_" horiz-adv-x="601" 
d="M57 -56q26 -13 55.5 -15.5t57.5 -2.5h261q28 0 57.5 2.5t55.5 15.5v-138q-25 9 -53.5 13t-58.5 4h-263q-30 0 -58.5 -4t-53.5 -13v138z" />
    <glyph glyph-name="grave" unicode="`" horiz-adv-x="210" 
d="M200 617q-15 -12 -22.5 -20.5t-23.5 -21.5q-19 19 -40.5 39t-42 38t-37 31.5t-25.5 19.5l19.5 13t28 20.5t27.5 22.5t19 19q9 -18 22.5 -41t27.5 -45.5t26.5 -42.5t20.5 -32z" />
    <glyph glyph-name="a" unicode="a" horiz-adv-x="478" 
d="M180 94q22 -2 45.5 -3t58.5 -9v141q-29 -11 -56 -18.5t-46 -9.5zM438 413q-16 -23 -20.5 -61t-4.5 -111q0 -48 2.5 -76.5t7.5 -45t14 -23t22 -9.5v-11q-14 -5 -29.5 -17.5t-30.5 -27.5t-27 -31t-18 -28q-21 14 -38 37t-27 46l-69 -83q-38 23 -83.5 35t-103.5 13
q10 26 12 65.5t2 79.5q0 24 -3 45.5t-10 38.5q22 -3 48 -3q28 0 57.5 2.5t56.5 7.5t49.5 11.5t37.5 14.5v99q-34 -15 -71 -25t-61 -10q-17 0 -31.5 3.5t-26.5 14t-21.5 29.5t-16.5 49q6 0 8.5 -0.5t14.5 -0.5q72 0 124 13t81 30q33 -36 68.5 -53.5t86.5 -17.5z" />
    <glyph glyph-name="b" unicode="b" horiz-adv-x="531" 
d="M288 69q11 11 28 24.5t31 20.5q-2 22 -2.5 59.5t-0.5 71.5q0 32 1.5 64t3.5 59q-21 -1 -43.5 -5.5t-43.5 -10.5t-39 -13.5t-29 -14.5v-60q0 -55 -1.5 -101t-7.5 -74q19 -1 50 -7t53 -13zM64 605q0 25 -1 45t-4.5 37t-9.5 33t-15 33q20 -7 47 -7q33 0 69.5 11t78.5 31
q-20 -24 -27.5 -64t-7.5 -92v-231q18 12 40 24.5t47 24t51 20.5t52 15q24 -26 52 -43t57 -25q-11 -42 -13 -79.5t-2 -75.5q0 -47 1 -82t3 -60t5 -40.5t8 -24.5q-22 -4 -48 -12t-53 -19t-53.5 -24.5t-49.5 -29.5q-45 14 -86 23.5t-73 9.5q-22 0 -49.5 -4t-48.5 -12
q18 33 24 97t6 175v346z" />
    <glyph glyph-name="c" unicode="c" horiz-adv-x="448" 
d="M287 -31q-18 11 -49 22.5t-67.5 20.5t-73.5 15t-67 6q7 10 12.5 30t9.5 46.5t6 57.5t2 64q0 54 -5.5 101.5t-16.5 82.5q54 9 111 27.5t106 41.5q33 -21 77 -37t89 -24q-19 -38 -52.5 -61.5t-68.5 -23.5q-23 0 -55 16t-63 45q5 -38 7.5 -75.5t2.5 -75.5q0 -33 -2.5 -72.5
t-7.5 -70.5q22 -9 56.5 -17t62.5 -10q6 38 31.5 66.5t67.5 40.5q-1 -8 -1 -22v-34q0 -38 3.5 -61t8.5 -40q-16 -3 -34.5 -9.5t-36 -15t-32 -17.5t-21.5 -17z" />
    <glyph glyph-name="d" unicode="d" horiz-adv-x="534" 
d="M467 265q0 -56 2 -89t7.5 -51.5t14 -26t21.5 -11.5v-11q-14 -5 -29.5 -17.5t-30.5 -27.5t-27 -31t-18 -28q-21 14 -38 37t-27 46q-18 -12 -41 -24t-48.5 -22.5t-52.5 -19t-52 -14.5q-24 26 -52 43t-57 25q11 42 13 79.5t2 75.5q0 48 -1 82.5t-3.5 59t-5.5 40t-7 25.5
q45 8 91.5 30.5t92.5 54.5q31 -13 58 -20t58 -10v145q0 25 -1 45t-4.5 37t-9.5 33t-15 33q20 -7 47 -7q33 0 69.5 11t78.5 31q-20 -24 -27.5 -64t-7.5 -92v-367zM254 391q-12 -11 -32.5 -24.5t-36.5 -20.5q2 -22 2.5 -59.5t0.5 -71.5q0 -32 -1.5 -64t-3.5 -59q20 1 42.5 5.5
t43.5 10.5t39 13.5t29 14.5v235q-16 1 -40 7t-43 13z" />
    <glyph glyph-name="e" unicode="e" horiz-adv-x="461" 
d="M236 -32q-19 14 -47 26t-57.5 20.5t-57 13.5t-45.5 5q8 13 14 36.5t9.5 51t5 56.5t1.5 53q0 61 -7.5 101.5t-14.5 63.5q43 8 78.5 31t70.5 58q41 -8 101 -13.5t119 -7.5q-3 -18 -3 -45q0 -21 2 -45.5t5 -48.5t8 -46t11 -38q-61 -5 -124 -13.5t-123 -18.5q-1 -29 -4 -57
t-5 -49q12 -5 30.5 -9t39.5 -7.5t41 -6t34 -3.5q5 31 24.5 53t66.5 36q-1 -12 -1 -23.5v-22.5q0 -34 2.5 -53.5t9.5 -38.5q-19 -2 -45 -7.5t-52 -14t-49.5 -18t-37.5 -19.5zM172 394q5 -42 7.5 -74t3.5 -59l117 29q-5 20 -8.5 42t-3.5 45q-23 0 -55.5 4.5t-60.5 12.5z" />
    <glyph glyph-name="f" unicode="f" horiz-adv-x="368" 
d="M41 12q14 3 24.5 10t18 22t11 40t3.5 65v243h-83v11q44 17 83 52v42q0 45 -0.5 74t-2.5 48.5t-6 33.5t-11 29q22 6 48.5 15.5t53 21.5t51 26.5t42.5 29.5q35 -19 81 -33.5t106 -27.5q-17 -48 -38.5 -68.5t-49.5 -20.5q-27 0 -61 16t-76 43l-20 -13q4 -14 6.5 -28.5
t4 -36.5t2 -53t0.5 -76v-22h141v-4q-14 -15 -26.5 -36.5t-19.5 -42.5l-95 13v-252q0 -32 3 -53.5t10.5 -35t19.5 -21t29 -11.5v-12q-34 -1 -62.5 -7t-61.5 -21q-23 13 -58 20t-67 8v12z" />
    <glyph glyph-name="g" unicode="g" horiz-adv-x="532" 
d="M468 24q0 -127 9 -169q-28 0 -61 -8.5t-66.5 -23.5t-65.5 -35.5t-57 -44.5q-57 42 -106 61t-103 19q8 42 25.5 76.5t40.5 56.5q11 -1 34.5 -10.5t51.5 -24.5t55.5 -32t47.5 -33l75 24q-2 13 -3.5 28t-2.5 37t-2 53.5t-2 76.5q-19 -14 -42.5 -27t-48.5 -24t-50.5 -19.5
t-48.5 -13.5q-49 50 -109 68q4 14 7 28.5t4.5 32t2.5 40t1 53.5q0 81 -4 125t-13 63q23 4 50 12t54 19t53 25t47 29q60 -18 96.5 -25.5t62.5 -7.5q23 0 50.5 4.5t47.5 11.5q-8 -16 -14 -38t-9.5 -54t-5 -76t-1.5 -104v-173zM244 387q-11 -11 -28 -24t-31 -21q3 -29 3 -109
q0 -42 -1 -70.5t-4 -54.5q18 1 40 5t43.5 10t40.5 13.5t31 15.5v40q0 66 2 108t7 67q-10 0 -23.5 1.5t-27.5 4.5t-28 6.5t-24 7.5z" />
    <glyph glyph-name="h" unicode="h" horiz-adv-x="524" 
d="M310 -93q6 20 11 49.5t8 59t5 54.5t2 36q0 57 -0.5 114t-0.5 114l-13 14l-123 -55v-205q0 -63 27 -73v-15h-184v15q12 5 19.5 20.5t7.5 43.5v526q0 25 -1 45t-4.5 37t-9.5 33t-15 33q20 -7 47 -7q33 0 69.5 11t78.5 31q-20 -24 -27.5 -64t-7.5 -92v-270q43 28 77 56
t70 66q17 -16 31 -28.5t28.5 -22.5t30.5 -19.5t37 -19.5q-4 -14 -6.5 -29.5t-4 -39.5t-2.5 -59t-1 -87q0 -44 0.5 -72.5t1.5 -46.5t3 -29.5t4 -21.5q-20 -7 -40.5 -19t-41 -27t-38.5 -31t-32 -31z" />
    <glyph glyph-name="i" unicode="i" horiz-adv-x="265" 
d="M198 455v-367q0 -63 27 -73v-15q-32 -5 -60 -12t-58 -16h-5q-34 46 -34 108v348l-37 16v11q35 5 76 13.5t73 16.5zM40 650q17 29 41.5 57.5t54.5 44.5q6 -8 18.5 -19t27 -22t28 -20.5t20.5 -13.5q-34 -24 -57.5 -46.5t-40.5 -56.5q-6 7 -18.5 17.5t-26.5 21.5t-27 21
t-20 16z" />
    <glyph glyph-name="j" unicode="j" horiz-adv-x="266" 
d="M-28 -261q36 51 60 101.5t37 107.5v480l-37 16v11q35 5 76 13.5t73 16.5l18 -30v-377q0 -45 0.5 -76.5t3.5 -53t8 -34.5t14 -22v-4q-21 -7 -47 -22t-54.5 -36.5t-58.5 -50t-58 -62.5zM41 650q17 29 41.5 57.5t54.5 44.5q6 -8 18.5 -19t27 -22t28 -20.5t20.5 -13.5
q-34 -24 -57.5 -46.5t-40.5 -56.5q-6 7 -18.5 17.5t-26.5 21.5t-27 21t-20 16z" />
    <glyph glyph-name="k" unicode="k" horiz-adv-x="501" 
d="M302 -78q5 13 9.5 32t7.5 40t5 43t2 41v83q-30 21 -61 37.5t-66 30.5v-141q0 -63 27 -73v-15h-184v15q27 10 27 64v526q0 27 -1.5 48t-5 38t-9 32t-14.5 30q18 -7 47 -7q31 0 67 10t81 32q-18 -22 -26.5 -59t-8.5 -97v-208q21 14 42 32t47 44q30 -20 68.5 -33.5
t92.5 -24.5q-9 -29 -9 -70q0 -11 1 -28t3 -25l-148 -56v-4q54 -11 93.5 -27t73.5 -36q-4 -21 -5.5 -42t-1.5 -49q0 -57 7 -89q-20 -9 -42 -21t-43 -25t-38.5 -26t-29.5 -25zM199 271l153 62l-2 33l-151 30v-125z" />
    <glyph glyph-name="l" unicode="l" horiz-adv-x="271" 
d="M18 -21q26 13 39 43t13 70v513q0 25 -1 45t-4.5 37t-9.5 33t-15 33q20 -7 47 -7q33 0 69.5 11t78.5 31q-20 -24 -27.5 -64t-7.5 -92v-484q0 -41 3 -68t10.5 -48t21.5 -40.5t35 -46.5l-6 -9q-27 13 -45 20.5t-30.5 13.5t-22 12.5t-19.5 17.5q-29 -12 -62.5 -20t-65.5 -8z
" />
    <glyph glyph-name="m" unicode="m" horiz-adv-x="759" 
d="M549 -83q6 20 11 49.5t8 59t5 54.5t2 36q0 57 -0.5 114t-0.5 114l-13 14l-112 -48q-1 -22 -1 -58v-73v-91q0 -63 27 -73v-15h-178v15q12 5 19.5 20.5t7.5 43.5v265l-13 14l-111 -48v-222q0 -63 27 -73v-15h-184v15q12 5 19.5 20.5t7.5 43.5v349l-37 16v11q35 5 76 13.5
t73 16.5l18 -30v-82q39 28 70.5 55.5t64.5 65.5q17 -16 31 -28.5t28.5 -22.5t30.5 -19.5t37 -19.5l-6 -27q37 27 67 54t62 63q17 -16 31 -28.5t28.5 -22.5t30.5 -19.5t37 -19.5q-4 -14 -6.5 -29.5t-4 -39.5t-2.5 -59t-1 -87q0 -44 0.5 -72.5t1.5 -46.5t3 -29.5t4 -21.5
q-20 -7 -40.5 -19t-41 -27t-38.5 -31t-32 -31z" />
    <glyph glyph-name="n" unicode="n" horiz-adv-x="522" 
d="M199 372q43 28 77 56t70 66q17 -16 31 -28.5t28.5 -22.5t30.5 -19.5t37 -19.5q-4 -14 -6.5 -29.5t-4 -39.5t-2.5 -59t-1 -87q0 -44 0.5 -72.5t1.5 -46.5t3 -29.5t4 -21.5q-20 -7 -40.5 -19t-41 -27t-38.5 -31t-32 -31l-6 6q6 20 11 49.5t8 59t5 54.5t2 36q0 57 -0.5 114
t-0.5 114l-13 14l-123 -55v-215q0 -63 27 -73v-15h-184v15q12 5 19.5 20.5t7.5 43.5v349l-37 16v11q35 5 76 13.5t73 16.5l18 -30v-83z" />
    <glyph glyph-name="o" unicode="o" horiz-adv-x="511" 
d="M214 484q69 -23 115 -31t85 -8q22 0 33.5 0.5t22.5 2.5q-12 -65 -12 -153q0 -108 18 -210q-25 -3 -53 -13t-56 -25t-54 -34.5t-47 -40.5q-11 9 -38 18.5t-59 17.5t-64 13t-53 5q-6 0 -11.5 -0.5t-10.5 -1.5q14 12 20.5 47.5t6.5 92.5q0 29 -2 63.5t-5.5 65.5t-7.5 53
t-8 27q39 7 87 36.5t93 74.5zM334 357q-46 4 -90 13.5t-67 21.5q5 -42 7 -78.5t2 -73.5q0 -29 -1.5 -65.5t-3.5 -71.5q34 -4 75 -11t76 -18z" />
    <glyph glyph-name="p" unicode="p" horiz-adv-x="535" 
d="M69 196q0 55 -2 88.5t-7.5 52t-14 26t-21.5 11.5v11q13 5 29 17.5t31 27.5t27 31t18 28q21 -14 38 -37t27 -46q18 12 41 24t48.5 22.5t52 19t52.5 14.5q24 -26 52 -43t57 -25q-11 -42 -13 -79.5t-2 -75.5q0 -47 1 -82t3 -60t5 -40.5t8 -24.5q-45 -8 -91.5 -30.5
t-92.5 -54.5q-31 13 -58.5 20t-57.5 10v-101q0 -26 1.5 -45.5t4.5 -37t9 -33t15 -32.5q-20 7 -47 7q-33 0 -69.5 -11t-78.5 -31q20 24 27.5 64t7.5 92v323zM282 70q12 11 32.5 24.5t36.5 20.5q-2 22 -2.5 59.5t-0.5 71.5q0 32 1.5 64t3.5 59q-20 -1 -42.5 -5.5t-43.5 -10.5
t-39 -13.5t-29 -14.5v-235q16 -1 40 -7t43 -13z" />
    <glyph glyph-name="q" unicode="q" horiz-adv-x="533" 
d="M243 387q-11 -11 -28 -24.5t-31 -20.5q2 -22 2.5 -59.5t0.5 -71.5q0 -32 -1.5 -64t-3.5 -59q21 1 43.5 5.5t43.5 10.5t39 13.5t29 14.5v60q0 55 1.5 101t7.5 74q-19 1 -50 7t-53 13zM467 -100q0 -26 1.5 -45.5t4.5 -37t9 -33t15 -32.5q-20 7 -47 7q-33 0 -69.5 -11
t-78.5 -31q20 24 27.5 64t7.5 92v182q-18 -12 -40 -25t-47 -24t-51.5 -20t-51.5 -15q-24 26 -52 43t-57 25q11 42 13 79.5t2 75.5q0 48 -1 82.5t-3.5 59t-5.5 40t-7 25.5q22 4 48 12t53 19t53.5 24.5t49.5 29.5q45 -14 86 -23.5t73 -9.5q22 0 49.5 4t48.5 12
q-18 -33 -24 -97t-6 -175v-297z" />
    <glyph glyph-name="r" unicode="r" horiz-adv-x="415" 
d="M200 321q23 37 43 78t37 87q19 -12 54 -24.5t77 -22.5q-5 -42 -18 -76.5t-33 -57.5l-67 35h-12l-81 -114v-138q0 -35 12.5 -50.5t44.5 -20.5v-17h-214v15q27 10 27 64v349l-37 16v11q35 5 76 13.5t73 16.5l18 -30v-134z" />
    <glyph glyph-name="s" unicode="s" horiz-adv-x="460" 
d="M190 403q-2 -16 -2.5 -31t-0.5 -35t1 -40t3 -36q19 7 39.5 12t46 9t57.5 7t75 6q-3 -35 -3 -102q0 -57 2 -101.5t7 -67.5q-31 0 -63 -4t-61 -11t-54 -17t-42 -22q-12 11 -26.5 19t-34.5 13.5t-47 9t-64 5.5q2 31 12.5 63.5t26.5 52.5q23 0 72 -17t130 -53q6 32 9 58.5
t3 55.5v26t-1 15q-44 -4 -102 -14.5t-109 -24.5q4 43 5 66.5t1 42.5q0 45 -4.5 79t-14.5 63q38 0 82 13t110 41q63 -32 188 -41q-18 -43 -41 -62.5t-57 -19.5q-15 0 -34 3t-38.5 9t-38 13.5t-32.5 16.5z" />
    <glyph glyph-name="t" unicode="t" horiz-adv-x="348" 
d="M219 384v-221q0 -52 25.5 -78t63.5 -28v-14q-17 -6 -36 -15t-37 -18.5t-34 -19.5t-25 -18q-23 14 -47 27t-40 21v372h-83v11q44 17 83 52v32q0 8 -1.5 25.5t-3.5 36t-5 34t-7 20.5q45 3 83 18t81 38q-4 -10 -7 -31t-5.5 -44.5t-3.5 -45t-1 -30.5v-53h141v-4
q-16 -17 -28.5 -38t-17.5 -41z" />
    <glyph glyph-name="u" unicode="u" 
d="M18 443q21 2 47 6.5t52 10.5t48 12.5t35 12.5q-2 -17 -3.5 -31t-2 -30t-1 -35t-0.5 -45v-202l42 -32l96 42v156q0 34 -1.5 56t-6.5 35t-13.5 19.5t-23.5 10.5v13q48 3 94.5 14t80.5 28v-236q0 -47 2 -76.5t7 -47.5t13.5 -26t22.5 -11v-11q-13 -6 -29 -18t-31 -27
t-27 -30.5t-18 -28.5q-33 28 -47.5 52t-19.5 59q-30 -15 -52.5 -28t-41 -26t-34 -27t-31.5 -30q-20 18 -35.5 30.5t-30 22.5t-29 18.5t-32.5 18.5q4 6 7.5 27t6.5 51t4.5 64.5t1.5 66.5q0 36 -2.5 62.5t-8.5 45.5t-15.5 31.5t-24.5 21.5z" />
    <glyph glyph-name="v" unicode="v" horiz-adv-x="495" 
d="M240 -28q-29 21 -72 40t-89 30q1 12 2 27.5t1.5 32t1 32t0.5 26.5q0 91 -13.5 153t-33.5 95l-29 6v17q17 2 41 7.5t47.5 13t43.5 16t30 16.5q24 -35 33.5 -115t9.5 -188v-42.5t-1 -44.5l50 -27h6q14 24 24.5 60.5t18 76.5t11.5 78.5t4 67.5q0 40 -8.5 60t-25.5 28l1 16
q39 3 79 10.5t79 19.5q-2 -3 -2 -7v-9q0 -32 4 -60.5t18 -43.5l-97 -296l-124 -96h-10z" />
    <glyph glyph-name="w" unicode="w" horiz-adv-x="728" 
d="M490 -28q-19 12 -36 22.5t-34 20t-35.5 20t-39.5 22.5h-7l-85 -85h-10q-29 20 -75 39t-91 31q2 10 4 32.5t2 67.5q0 94 -11 159t-35 107l-29 6v17q21 3 46 9t47.5 13t40.5 15t27 16q15 -21 26 -97.5t16 -205.5l3 -87l51 -27h6l42 43q3 16 4 32.5t1 51.5q0 84 -4.5 134
t-14.5 80l-29 6v17q21 3 46 9t47.5 13t40.5 15t27 16q8 -31 11 -75.5t3 -110.5q0 -28 -0.5 -58.5t-1.5 -57.5t-2 -48t-2 -30l58 -45h6q10 19 20 52t17.5 72.5t12.5 81.5t5 79q0 42 -7.5 63t-26.5 31l1 16q84 6 158 30q-2 -3 -2 -11q0 -40 4 -67.5t18 -41.5l-88 -297
l-115 -95h-10z" />
    <glyph glyph-name="x" unicode="x" horiz-adv-x="483" 
d="M146 484l132 -195l43 28q0 75 -7 111.5t-17 52.5l8 3q22 -6 58.5 -13.5t74.5 -13.5q-2 -17 -2.5 -30.5t-0.5 -26.5q0 -14 0.5 -27.5t1.5 -31.5l-130 -93l169 -233l-141 -44l-134 201l-46 -33q0 -69 6.5 -108t17.5 -56l-8 -3q-22 5 -58.5 14t-74.5 14q6 33 6 59
q0 17 -2 34.5t-4 40.5l131 84l-149 211z" />
    <glyph glyph-name="y" unicode="y" horiz-adv-x="532" 
d="M21 443q21 2 47 6.5t52 10.5t48 12.5t35 12.5q-2 -17 -3.5 -31t-2 -30t-1 -35t-0.5 -45v-182l42 -32l96 42v136q0 34 -1.5 56t-6.5 35t-13.5 19.5t-23.5 10.5v13q48 3 94.5 14t80.5 28v-460q0 -63 1.5 -105.5t6.5 -63.5q-28 0 -61 -8.5t-66.5 -23.5t-65.5 -35.5
t-57 -44.5q-57 42 -106 61t-103 19q8 42 25.5 76.5t40.5 56.5q11 -1 34.5 -10.5t51.5 -24.5t55.5 -32t47.5 -33l75 24q-2 13 -3.5 28.5t-3 40t-2 61t-0.5 92.5q-29 -15 -51 -28t-40 -26t-33.5 -26.5t-31.5 -29.5q-20 18 -35.5 30.5t-30 22.5t-29 18.5t-32.5 18.5
q4 5 7.5 25.5t6.5 49t4.5 61.5t1.5 63q0 34 -2.5 59t-8.5 42.5t-15.5 29t-24.5 20.5z" />
    <glyph glyph-name="z" unicode="z" horiz-adv-x="457" 
d="M235 196l-108 -96q36 8 75 11t77 4t72 1t58 2q1 -7 1.5 -14.5t0.5 -16.5q0 -26 -4.5 -52t-12.5 -43q-6 2 -19.5 3.5t-28.5 2.5t-29.5 1.5t-22.5 0.5h-90.5t-62.5 -1t-46 -3.5t-42 -6.5q-2 3 -5 14t-6 25t-5 29t-2 26l124 117h-104v11q19 8 39.5 22.5t40.5 32.5h95l84 79
q-31 4 -78 7t-87 3q-39 0 -58.5 -7.5t-31.5 -37.5l-11 8q1 45 10 88t25 73q31 -6 62.5 -10.5t60.5 -7t53 -4t39 -1.5q38 0 68.5 6.5t44.5 14.5l13 -4q-9 -23 -11.5 -53.5t-2.5 -67.5l-97 -86h83v-7q-15 -15 -27.5 -36.5t-18.5 -42.5z" />
    <glyph glyph-name="braceleft" unicode="{" horiz-adv-x="334" 
d="M146 351q12 -8 26 -27t26.5 -42t21 -47t8.5 -42q0 -38 -3 -64t-3 -58q0 -29 4.5 -53t16.5 -43.5t34.5 -33t58.5 -20.5q-35 -5 -62.5 -7.5t-53.5 -2.5t-53 3.5t-61 14.5q18 5 37.5 14.5t27.5 14.5q-41 19 -53.5 54t-12.5 79q0 26 2 44.5t2 47.5q0 25 -7.5 51t-20 49
t-30 40.5t-37.5 26.5q21 7 38 26.5t29 44.5t18.5 51t6.5 46q0 29 -2 47.5t-2 44.5q0 22 2.5 41.5t10 37t20 31t33.5 23.5q-8 5 -27.5 14.5t-37.5 14.5q61 16 129 16q25 0 50 -2t51 -6q-36 -7 -58.5 -20.5t-34.5 -33t-16.5 -44t-4.5 -52.5q0 -32 3 -58t3 -64
q0 -16 -6.5 -37.5t-18 -44t-25.5 -42.5t-29 -33z" />
    <glyph glyph-name="bar" unicode="|" horiz-adv-x="283" 
d="M72 -37q13 26 15.5 55.5t2.5 57.5v542q0 28 -2.5 57.5t-15.5 55.5h138q-9 -25 -13 -53.5t-4 -58.5v-544q0 -30 4 -58.5t13 -53.5h-138z" />
    <glyph glyph-name="braceright" unicode="}" horiz-adv-x="334" 
d="M188 351q-15 13 -29 33t-25.5 42.5t-18 44.5t-6.5 37q0 38 3 64t3 58q0 28 -4.5 52.5t-16.5 44t-34.5 33t-58.5 20.5q26 4 51 6t50 2q66 0 129 -16q-18 -5 -37.5 -14.5t-27.5 -14.5q21 -10 33.5 -23.5t20 -31t10 -37t2.5 -41.5q0 -26 -2 -44.5t-2 -47.5q0 -20 6.5 -46
t18.5 -51t29 -44.5t38 -26.5q-20 -9 -37.5 -26.5t-30.5 -40.5t-20 -49t-7 -51q0 -29 2 -47.5t2 -44.5q0 -44 -12.5 -79t-53.5 -54q8 -5 27.5 -14.5t37.5 -14.5q-34 -11 -61 -14.5t-53 -3.5t-53.5 2.5t-62.5 7.5q36 7 58.5 20.5t34.5 33t16.5 43.5t4.5 53q0 32 -3 58t-3 64
q0 18 8.5 42t21 47t26.5 42t26 27z" />
    <glyph glyph-name="asciitilde" unicode="~" horiz-adv-x="539" 
d="M67 291q14 1 32.5 7.5t37.5 16.5t35.5 22t27.5 24l141 -71q14 0 33 6t38 16.5t35.5 23t26.5 26.5v-128q-48 0 -81.5 -20.5t-50.5 -48.5l-143 71q-24 0 -45 -6.5t-38 -16.5t-29.5 -22.5t-19.5 -25.5v126z" />
    <glyph glyph-name="uni00A0" unicode="&#xa0;" horiz-adv-x="225" 
 />
    <glyph glyph-name="exclamdown" unicode="&#xa1;" horiz-adv-x="295" 
d="M230 305q-9 -25 -13 -53.5t-4 -58.5v-364q0 -30 4 -58.5t13 -53.5h-160q13 26 15.5 55.5t2.5 57.5v362q0 28 -2.5 57.5t-15.5 55.5h160zM53 484q7 6 20.5 16t27 20.5t26 21t18.5 18.5q17 -34 40.5 -56.5t57.5 -46.5q-7 -5 -20.5 -14.5t-27.5 -20.5t-27 -22t-19 -18
q-30 16 -54.5 44.5t-41.5 57.5z" />
    <glyph glyph-name="cent" unicode="&#xa2;" horiz-adv-x="468" 
d="M420 28q-24 -5 -53.5 -17t-50.5 -25q3 -43 17 -85h-160q12 26 15 54t3 54q-39 10 -79.5 16.5t-72.5 7.5q7 10 12.5 30t9.5 46.5t6 57.5t2 64q0 54 -5.5 101.5t-16.5 82.5q35 5 71.5 15t71.5 23q-1 21 -4.5 42t-12.5 41h160q-13 -33 -16 -80q26 -11 55 -19.5t58 -13.5
q-19 -38 -52.5 -61.5t-68.5 -23.5q-23 0 -55 16t-63 45q5 -38 7.5 -75.5t2.5 -75.5q0 -33 -2.5 -72.5t-7.5 -70.5q22 -9 56.5 -17t62.5 -10q6 38 31.5 66.5t67.5 40.5q-1 -8 -1 -22v-34q0 -38 3.5 -61t8.5 -40z" />
    <glyph glyph-name="sterling" unicode="&#xa3;" horiz-adv-x="520" 
d="M62 61q15 4 26 11t18.5 22t11.5 40t4 65v113h-83v11q42 16 83 52v80q0 45 -0.5 74t-2.5 48.5t-6 33.5t-11 29q22 6 48.5 15.5t53 21.5t51 26.5t42.5 29.5q35 -19 81 -33.5t106 -27.5q-17 -48 -38.5 -68.5t-49.5 -20.5q-27 0 -61 16t-76 43l-20 -13q4 -14 6.5 -28.5
t4 -36.5t2 -53t0.5 -76v-60h141v-4q-14 -15 -26.5 -36.5t-19.5 -42.5l-95 13v-122q0 -32 3 -53t10 -34.5t18 -21t27 -11.5h8q14 0 35.5 5.5t44 15.5t42 22t29.5 26v-128q-48 0 -81.5 -20.5t-50.5 -48.5l-143 71q-24 0 -45 -6.5t-38 -16.5t-29.5 -22.5t-19.5 -25.5v126z" />
    <glyph glyph-name="currency" unicode="&#xa4;" horiz-adv-x="559" 
d="M277 508q36 0 63 -9q23 26 35 59l124 -124q-14 -8 -29 -16.5t-29 -19.5q9 -29 9 -57q0 -34 -10 -63q26 -22 59 -33l-124 -124q-17 33 -37 57q-21 -7 -54 -7q-17 0 -32.5 1.5t-29.5 6.5q-11 -15 -20 -30t-17 -29l-124 124q30 10 57 32q-5 14 -7.5 30t-2.5 32q0 31 9 61
q-24 19 -56 36l124 124q5 -17 14 -31.5t20 -27.5q29 8 58 8zM277 432q-23 0 -40 -8t-28.5 -21.5t-17 -30.5t-5.5 -34q0 -15 5.5 -31t17.5 -29.5t29.5 -22t41.5 -8.5q22 0 39.5 8t28.5 21.5t17 30.5t6 34t-5.5 33.5t-17.5 29t-29.5 20.5t-41.5 8z" />
    <glyph glyph-name="yen" unicode="&#xa5;" horiz-adv-x="821" 
d="M217 229q26 -13 56 -15.5t60 -2.5q2 12 2 23.5t1 21.5l-27 29q-25 -2 -53.5 -5.5t-48.5 -11.5v140l18 -4q-9 42 -32 95.5t-53 104t-63.5 91t-63.5 55.5q46 0 75 -4t46.5 -11t27.5 -16.5t19 -19.5q14 25 42 37t66 14q-12 -17 -20 -37.5t-8 -41.5q0 -5 0.5 -9t1.5 -9
l105 -251l37 -39l36 38l98 252q1 5 1 9v9q0 22 -12.5 42t-24.5 37q17 -9 36 -14t37.5 -7.5t34.5 -3t28 -0.5q23 0 42 4t38 8.5t40 8.5t49 4q-23 -14 -47.5 -38t-47.5 -54.5t-44.5 -64.5t-39.5 -68t-31.5 -66t-20.5 -58l27 7v-140q-23 8 -53.5 12t-57.5 5q-6 -7 -11 -13.5
t-10 -13.5q0 -22 3 -47q32 0 67.5 2.5t61.5 15.5v-140q-23 8 -54 12t-59 5q8 -32 16.5 -56.5t19.5 -32.5q-29 -7 -61 -20t-52 -37q-29 30 -61.5 40t-69.5 17q11 17 19.5 40t14.5 49q-27 -1 -57 -5t-53 -12v140h10z" />
    <glyph glyph-name="brokenbar" unicode="&#xa6;" horiz-adv-x="286" 
d="M73 406q13 26 15.5 55.5t2.5 57.5v101q0 28 -2.5 57.5t-15.5 55.5h138q-9 -25 -13 -53.5t-4 -58.5v-103q0 -30 4 -58.5t13 -53.5h-138zM73 -36q13 26 15.5 55.5t2.5 57.5v101q0 28 -2.5 57.5t-15.5 55.5h138q-9 -25 -13 -53.5t-4 -58.5v-103q0 -30 4 -58.5t13 -53.5h-138
z" />
    <glyph glyph-name="section" unicode="&#xa7;" horiz-adv-x="509" 
d="M237 710q-5 -11 -6 -21t-1 -20q0 -17 6.5 -45.5t19 -63t30 -72t39 -72t46 -62.5t51.5 -44q-9 -14 -9 -38q0 -28 9 -66.5t19.5 -79.5t19.5 -80.5t9 -69.5q0 -29 -6.5 -62t-21.5 -70q-31 0 -66 -4t-68 -11.5t-61.5 -17t-44.5 -21.5q-12 11 -26.5 22.5t-33 21t-41.5 16
t-51 7.5q12 20 24.5 52t14.5 64q97 -2 162 -90q10 20 11.5 39.5t1.5 36.5q0 20 -8 51t-21.5 66t-31.5 70.5t-38.5 65t-41.5 49t-40 22.5q7 17 7 48q0 33 -7.5 74.5t-16.5 84t-16.5 82.5t-7.5 70q0 47 16 95q23 2 50.5 6t55.5 10.5t55.5 15.5t50.5 22q32 -20 78 -38t110 -23
q-17 -46 -47 -64.5t-64 -18.5q-40 0 -66.5 19.5t-43.5 43.5zM124 713q-3 -7 -5 -17.5t-3 -22t-1.5 -22.5t-0.5 -18q0 -37 17.5 -91t43.5 -117t57 -130t57 -129t43.5 -114.5t17.5 -86.5q0 -9 -1.5 -22.5t-4.5 -28t-7 -27.5t-8 -21l35 8q14 21 18.5 47t4.5 45q0 47 -18 105.5
t-44.5 122t-57.5 129t-57.5 126.5t-44.5 114.5t-18 93.5q0 4 0.5 12.5t1 18t1.5 18t2 12.5z" />
    <glyph glyph-name="dieresis" unicode="&#xa8;" horiz-adv-x="440" 
d="M10 650q17 29 41.5 57.5t54.5 44.5q6 -8 18.5 -19t27 -22t28 -20.5t20.5 -13.5q-34 -24 -57.5 -46.5t-40.5 -56.5q-6 7 -18.5 17.5t-26.5 21.5t-27 21t-20 16zM240 650q17 29 41.5 57.5t54.5 44.5q6 -8 18.5 -19t27 -22t28 -20.5t20.5 -13.5q-34 -24 -57.5 -46.5
t-40.5 -56.5q-6 7 -18.5 17.5t-26.5 21.5t-27 21t-20 16z" />
    <glyph glyph-name="copyright" unicode="&#xa9;" horiz-adv-x="830" 
d="M413 734q96 0 165.5 -30.5t114.5 -81.5t66.5 -116t21.5 -134q0 -68 -21.5 -133.5t-65.5 -117t-110.5 -83t-156.5 -31.5q-99 0 -170.5 31t-117.5 82t-68 116t-22 133t21.5 133.5t66.5 117t113.5 83t162.5 31.5zM413 656q-72 0 -125.5 -25.5t-89 -66.5t-53 -92.5
t-17.5 -102.5q0 -46 17.5 -96t53.5 -92t90 -69t127 -27q70 0 123.5 25.5t89.5 66.5t54 92.5t18 102.5q0 53 -18 104t-54 91t-90 64.5t-126 24.5zM471 145q-14 9 -41 17.5t-59 16t-64.5 12t-56.5 4.5q6 10 15.5 36t9.5 57q0 25 -7 49.5t-12 38.5q3 5 6.5 15t7 23t5.5 27.5
t2 29.5q0 24 -9 45.5t-13 34.5q21 4 46.5 10t51 13t50 15t44.5 17q26 -17 61.5 -29.5t71.5 -19.5q-16 -29 -42.5 -48.5t-55.5 -19.5q-18 0 -43 8.5t-51 32.5q4 -31 6 -71.5t2 -72.5q0 -12 -0.5 -28.5t-1.5 -33.5t-2.5 -33t-3.5 -28q18 -8 45.5 -14t49.5 -8q5 31 32.5 49.5
t59.5 28.5q0 -33 0.5 -54t2 -34.5t3 -22t3.5 -15.5q-13 -2 -29.5 -7.5t-33 -12t-30.5 -14.5t-20 -14z" />
    <glyph glyph-name="ordfeminine" unicode="&#xaa;" horiz-adv-x="382" 
d="M150 454l32 -2t41 -6v98q-20 -8 -39 -12.5t-33 -6.5zM330 677q-5 -8 -8.5 -18t-5.5 -24t-2.5 -33t-0.5 -45q0 -33 1.5 -53.5t5.5 -32t10 -16t15 -6.5v-7q-10 -4 -21 -13t-21 -19.5t-18.5 -21.5t-12.5 -19q-15 9 -27 25t-19 33l-48 -58q-27 16 -58 24.5t-73 8.5
q7 19 8.5 46.5t1.5 55.5q0 35 -9 59q5 -2 9.5 -2h9.5q21 0 43.5 1.5t43.5 4.5t38.5 8t29.5 11v69q-24 -11 -50 -17.5t-43 -6.5q-23 0 -40 12.5t-27 54.5q5 0 6.5 -0.5t9.5 -0.5q51 0 87.5 9.5t56.5 20.5q23 -25 48 -37.5t60 -12.5z" />
    <glyph glyph-name="guillemotleft" unicode="&#xab;" horiz-adv-x="663" 
d="M225 455q1 -1 9 -2.5t20 -3t25 -3t24 -1.5q33 0 63 10q-6 -7 -21.5 -24.5t-35.5 -40t-42 -47.5t-42 -47.5t-35 -39.5t-21 -24q6 -7 21.5 -25t35.5 -42t42 -50t42 -49.5t35.5 -41t21.5 -23.5q-33 10 -70 10q-35 0 -71 -10l-202 231zM495 455q1 -1 9 -2.5t20 -3t25 -3
t24 -1.5q33 0 63 10q-6 -7 -21.5 -24.5t-35.5 -40t-42 -47.5t-42 -47.5t-35 -39.5t-21 -24q6 -7 21.5 -25t35.5 -42t42 -50t42 -49.5t35.5 -41t21.5 -23.5q-33 10 -70 10q-35 0 -71 -10l-202 231z" />
    <glyph glyph-name="logicalnot" unicode="&#xac;" horiz-adv-x="604" 
d="M46 508q26 -13 55.5 -15.5t57.5 -2.5h263q27 0 57.5 2t54.5 16v-280q-3 1 -12 1.5t-19 1t-19 0.5h-13h-13t-18.5 -0.5t-18 -1t-12.5 -1.5l31 158h-315q-21 -2 -41 -6t-38 -10v138z" />
    <glyph glyph-name="uni00AD" unicode="&#xad;" horiz-adv-x="503" 
d="M63 378q26 -13 55.5 -15.5t57.5 -2.5h151q28 0 57.5 2.5t55.5 15.5v-138q-25 9 -53.5 13t-58.5 4h-153q-30 0 -58.5 -4t-53.5 -13v138z" />
    <glyph glyph-name="registered" unicode="&#xae;" horiz-adv-x="491" 
d="M244 788q54 0 93 -17t63.5 -45t36.5 -64t12 -74t-12 -74.5t-36 -65t-61 -46t-87 -17.5q-56 0 -95.5 17t-65.5 45.5t-38 64t-12 73.5t12 74.5t37 65t63 46t90 17.5zM244 742q-39 0 -68 -13.5t-48 -36t-28.5 -50.5t-9.5 -57q0 -24 9.5 -51.5t29 -50t49 -37.5t69.5 -15
q39 0 68 13.5t48.5 36t29 50.5t9.5 57q0 28 -9.5 56t-29 49.5t-49.5 35t-70 13.5zM339 478q-20 0 -39.5 -5.5t-30.5 -11.5q4 15 4 40q0 14 -0.5 33.5t-0.5 34.5l-17 17q-11 -7 -20 -11t-17 -9q2 -20 4 -46t4 -41l-81 23q7 11 9.5 36.5t2.5 48.5q0 15 -1 31t-2.5 29.5
t-3.5 23.5t-5 14q12 1 28.5 4.5t33 8t30.5 9t20 7.5q9 -7 27.5 -12.5t53.5 -5.5q0 -12 -5.5 -18t-5.5 -14q0 -9 2 -24t4 -21q-2 -2 -8.5 -5t-16.5 -8q10 -13 28 -26q-2 -2 -2 -6.5v-10.5q0 -28 1 -51.5t4 -33.5zM266 666q-14 0 -24.5 3.5t-24.5 6.5v-68l49 23v35z" />
    <glyph glyph-name="macron" unicode="&#xaf;" horiz-adv-x="347" 
d="M10 735q26 -13 55.5 -15.5t57.5 -2.5h101q28 0 57.5 2.5t55.5 15.5q-2 -14 -3 -27t-1 -27t1 -27t3 -27q-25 9 -53.5 13t-58.5 4h-103q-30 0 -58.5 -4t-53.5 -13q2 14 3 27t1 27t-1 27t-3 27z" />
    <glyph glyph-name="degree" unicode="&#xb0;" horiz-adv-x="346" 
d="M153 735q35 -11 67.5 -15.5t52.5 -4.5q6 0 13 0.5t15 1.5q-6 -33 -6 -77q0 -54 9 -105q-12 -2 -29.5 -7t-35 -12.5t-34 -17t-26.5 -19.5q-6 4 -22.5 9t-36 9t-38.5 6.5t-30 2.5q-3 0 -6 -0.5t-5 -0.5q14 12 14 70q0 15 -1 32t-3 32.5t-4 26.5t-4 13q20 4 53.5 18.5
t56.5 37.5zM223 661q-11 1 -25.5 3l-29 4t-26 5t-17.5 6q2 -21 3 -34.5t1 -31.5q0 -15 -0.5 -28t-1.5 -31q9 -1 21.5 -2.5t26 -3t26 -3.5t21.5 -5z" />
    <glyph glyph-name="plusminus" unicode="&#xb1;" horiz-adv-x="515" 
d="M69 539q26 -13 55.5 -15.5t57.5 -2.5h24v24q0 28 -2.5 57.5t-15.5 55.5h138q-9 -25 -13 -53.5t-4 -58.5v-25h24q28 0 57.5 2.5t55.5 15.5v-138q-25 9 -53.5 13t-58.5 4h-25v-25q0 -30 4 -58.5t13 -53.5h-138q13 26 15.5 55.5t2.5 57.5v24h-25q-30 0 -58.5 -4t-53.5 -13
v138zM69 231q26 -13 55.5 -15.5t57.5 -2.5h151q28 0 57.5 2.5t55.5 15.5v-138q-25 9 -53.5 13t-58.5 4h-153q-30 0 -58.5 -4t-53.5 -13v138z" />
    <glyph glyph-name="twosuperior" unicode="&#xb2;" horiz-adv-x="385" 
d="M59 396q-4 11 -5 23t-1 24q0 40 14.5 74t38.5 59.5t54.5 42.5t62.5 24v67q-12 -11 -37 -18t-54 -7q-28 0 -53 6.5t-39 20.5q10 2 31.5 11t44.5 20.5t42.5 23.5t25.5 21q13 -11 32.5 -20.5t39.5 -16.5t37.5 -11t26.5 -4h4q-4 -9 -4 -28v-45q0 -13 3.5 -31t11.5 -28
q-39 -7 -68 -15t-50 -18.5t-34.5 -25.5t-21.5 -36q11 3 20.5 6t23.5 3q29 0 56.5 -7t35.5 -12q17 16 41 16q9 0 18 -4l-66 -102q-7 5 -19 9.5t-25.5 8.5t-28 6t-26.5 2q-11 0 -27.5 -2t-35 -6.5t-37 -12t-32.5 -18.5z" />
    <glyph glyph-name="threesuperior" unicode="&#xb3;" horiz-adv-x="343" 
d="M120 408q-4 4 -14.5 11t-22.5 14t-24.5 13t-20.5 8q3 11 4 20t1 17t-0.5 18t-2.5 16q4 0 6.5 0.5t5.5 0.5q19 0 45 -14.5t41 -40.5l54 10q0 2 -0.5 16t-0.5 31t-0.5 31.5t-0.5 17.5l-51 30l-46 -12l-21 35l21 33l46 -14l48 20q0 11 -0.5 24t-0.5 36q-14 -6 -31.5 -8.5
t-30.5 -2.5q-32 0 -48 11t-24 29q25 4 55 12t49 19q11 -8 27.5 -13.5t34.5 -9t35.5 -5t30.5 -1.5q2 0 3.5 0.5t3.5 0.5q-6 -18 -8.5 -50t-2.5 -59q-20 -7 -44 -11.5t-44 -11.5q11 -6 26.5 -11t30 -8.5t24.5 -6.5t10 -4q0 -8 1 -31t3 -49t4 -47t4 -24q-15 0 -41 -4t-53 -10
t-49.5 -13t-31.5 -13z" />
    <glyph glyph-name="acute" unicode="&#xb4;" horiz-adv-x="210" 
d="M9 617q7 12 19.5 32t27 42.5t28 45.5t22.5 41q6 -8 18.5 -19t27 -22t28 -20.5t20.5 -13.5q-9 -6 -26 -19.5t-37 -31.5t-41.5 -38t-40.5 -39q-16 13 -23.5 21.5t-22.5 20.5z" />
    <glyph glyph-name="mu" unicode="&#xb5;" horiz-adv-x="563" 
d="M44 443q21 2 47 6.5t52 10.5t48 12.5t35 12.5q-2 -17 -3.5 -31t-2 -30t-1 -35t-0.5 -45v-202l42 -32l96 42v156q0 34 -1.5 56t-6.5 35t-13.5 19.5t-23.5 10.5v13q48 3 94.5 14t80.5 28v-236q0 -47 2 -76.5t7 -47.5t13.5 -26t22.5 -11v-11q-13 -6 -29 -18t-31 -27
t-27 -30.5t-18 -28.5q-33 28 -47.5 52t-19.5 59q-50 -26 -81.5 -46.5t-58.5 -45.5q5 -29 16 -46t30 -29l-1 -11q-21 -2 -47 -6.5t-52 -10.5t-48 -12.5t-35 -12.5q8 54 10 108t2 111q0 45 -0.5 91.5t-0.5 97.5q0 36 -2.5 62.5t-8.5 45.5t-15.5 31.5t-24.5 21.5z" />
    <glyph glyph-name="paragraph" unicode="&#xb6;" horiz-adv-x="658" 
d="M256 -169q13 26 15.5 55.5t2.5 57.5v328q-40 0 -70.5 -1.5t-62.5 -9.5q-18 19 -31.5 31.5t-26.5 23t-26 20.5t-29 24q6 57 10 108.5t4 100.5q0 42 -3.5 81t-11.5 81q75 -8 171.5 -15t214.5 -7q40 0 68.5 0.5t52 3t45.5 6t51 9.5q-4 -27 -11.5 -47.5t-19.5 -35.5
t-30.5 -25.5t-43.5 -18.5v-658q0 -30 4 -58.5t13 -53.5h-113q12 26 14 55.5t2 57.5v655h-82v-656q0 -30 4 -58.5t13 -53.5h-124z" />
    <glyph glyph-name="periodcentered" unicode="&#xb7;" horiz-adv-x="255" 
d="M34 312q17 29 41.5 57.5t54.5 44.5q6 -8 18.5 -19t27 -22t28 -20.5t20.5 -13.5q-34 -24 -57.5 -46.5t-40.5 -56.5q-6 7 -18.5 17.5t-26.5 21.5t-27 21t-20 16z" />
    <glyph glyph-name="cedilla" unicode="&#xb8;" horiz-adv-x="249" 
d="M56 -116q1 11 1 23v23v21.5t-0.5 33.5t-0.5 34v22h75v-120h61l42 -31v-29.5t0.5 -45t1.5 -42.5t3 -21q-15 0 -33.5 -3t-37 -8.5t-34.5 -11.5t-25 -12q-26 32 -61 32q-9 0 -18.5 -2t-19.5 -7q12 31 32.5 46t41.5 15q7 0 17.5 -1.5t21.5 -4t21 -6.5t16 -10q0 3 -0.5 11.5
t-0.5 20.5t-0.5 26t-0.5 28q-14 2 -24 3t-21 1q-24 0 -39 -4z" />
    <glyph glyph-name="onesuperior" unicode="&#xb9;" horiz-adv-x="263" 
d="M192 501q0 -20 9 -27.5t21 -7.5q7 0 13 3q-5 -5 -15.5 -15t-22.5 -21t-23.5 -21.5t-17.5 -15.5q-16 17 -28.5 27.5t-30.5 18.5v246q-5 -8 -17 -12t-25 -4q-15 0 -28 4t-17 10q13 4 28.5 15.5t29 26.5t24.5 31t16 29q9 -11 20.5 -17t23 -10t22 -5.5t18.5 -3.5v-251z" />
    <glyph glyph-name="ordmasculine" unicode="&#xba;" horiz-adv-x="399" 
d="M172 727q56 -19 91 -23t68 -4h10.5t9.5 2q-9 -45 -9 -107q0 -38 3.5 -75t9.5 -72q-35 -5 -76 -27t-71 -52q-8 6 -26.5 12.5t-41 12.5t-45 9.5t-37.5 3.5q-5 0 -15 -2q9 8 14 33.5t5 64.5q0 20 -1.5 44.5t-4 46t-5 37t-5.5 18.5q27 5 60.5 26t65.5 52zM256 638
q-32 3 -63 10t-47 15q3 -29 4.5 -55t1.5 -52q0 -20 -0.5 -45.5t-2.5 -50.5q23 -2 51.5 -7t53.5 -13z" />
    <glyph glyph-name="guillemotright" unicode="&#xbb;" horiz-adv-x="663" 
d="M639 232l-202 -231q-36 10 -71 10q-37 0 -70 -10q6 6 21.5 23.5t35.5 41t42 49.5t42 50t35.5 42t21.5 25q-6 7 -21 24t-35 39.5t-42 47.5t-42 47.5t-35.5 40t-21.5 24.5q30 -10 63 -10q10 0 23.5 1.5t25.5 3t20 3t9 2.5zM369 232l-202 -231q-36 10 -71 10q-37 0 -70 -10
q6 6 21.5 23.5t35.5 41t42 49.5t42 50t35.5 42t21.5 25q-6 7 -21 24t-35 39.5t-42 47.5t-42 47.5t-35.5 40t-21.5 24.5q30 -10 63 -10q10 0 23.5 1.5t25.5 3t20 3t9 2.5z" />
    <glyph glyph-name="onequarter" unicode="&#xbc;" horiz-adv-x="778" 
d="M605 117h-58h-27t-29 -0.5t-25.5 -1t-16.5 -1.5q1 6 1.5 12t0.5 11q0 31 -8 37q3 2 14 15t25 32t30.5 42.5t30.5 46.5t24 43t13 32q9 -11 25.5 -17.5t35 -10.5t34.5 -6l24 -3v-174h36q0 -4 0.5 -12.5t1.5 -18t3 -19t5 -15.5q-7 5 -11 6.5t-19 1.5h-16v-20
q0 -20 8.5 -27.5t20.5 -7.5q4 0 7.5 1t6.5 2q-4 -5 -17 -13.5t-28 -18t-28.5 -18.5t-19.5 -15q-5 5 -19 16.5t-26 17.5zM609 307q-4 -9 -12 -26t-18 -36t-21.5 -38t-23.5 -33h75v133zM432 676q1 4 5 15.5t8 26.5t7.5 30.5t3.5 27.5q0 4 -2 12h154q-11 -6 -30 -31.5
t-43 -79.5l-255 -565q-2 -4 -6 -16t-8 -27t-7 -30.5t-3 -26.5q0 -4 2 -12h-154q11 6 30 31.5t43 79.5zM204 501q0 -20 9 -27.5t21 -7.5q7 0 13 3q-5 -5 -15.5 -15t-22.5 -21t-23.5 -21.5t-17.5 -15.5q-16 17 -28.5 27.5t-30.5 18.5v246q-5 -8 -17 -12t-25 -4q-15 0 -28 4
t-17 10q13 4 28.5 15.5t29 26.5t24.5 31t16 29q9 -11 20 -17t23 -10t22.5 -5.5t18.5 -3.5v-251z" />
    <glyph glyph-name="onehalf" unicode="&#xbd;" horiz-adv-x="775" 
d="M432 676q1 4 5 15.5t8 26.5t7.5 30.5t3.5 27.5q0 4 -2 12h154q-11 -6 -30 -31.5t-43 -79.5l-255 -565q-2 -4 -6 -16t-8 -27t-7 -30.5t-3 -26.5q0 -4 2 -12h-154q11 6 30 31.5t43 79.5zM448 0q-4 11 -5 23t-1 24q0 40 14.5 74t38.5 59.5t54.5 42.5t62.5 24v67
q-12 -11 -37 -18t-54 -7q-28 0 -53 6.5t-39 20.5q10 2 31.5 11t44.5 20.5t42.5 23.5t25.5 21q13 -11 32.5 -20.5t39.5 -16.5t37.5 -11t26.5 -4h4q-4 -9 -4 -28v-45q0 -13 3.5 -31t11.5 -28q-39 -7 -68 -15t-50 -18.5t-34.5 -25.5t-21.5 -36q11 3 20.5 6t23.5 3q29 0 56.5 -7
t35.5 -12q17 16 41 16q9 0 18 -4l-66 -102q-7 5 -19 9.5t-25.5 8.5t-28 6t-26.5 2q-11 0 -27.5 -2t-35 -6.5t-37 -12t-32.5 -18.5zM204 501q0 -20 9 -27.5t21 -7.5q7 0 13 3q-5 -5 -15.5 -15t-22.5 -21t-23.5 -21.5t-17.5 -15.5q-16 17 -28.5 27.5t-30.5 18.5v246
q-5 -8 -17 -12t-25 -4q-15 0 -28 4t-17 10q13 4 28.5 15.5t29 26.5t24.5 31t16 29q9 -11 20 -17t23 -10t22.5 -5.5t18.5 -3.5v-251z" />
    <glyph glyph-name="threequarters" unicode="&#xbe;" horiz-adv-x="781" 
d="M113 408q-4 4 -14.5 11t-22.5 14t-24.5 13t-20.5 8q3 11 4 20t1 17t-0.5 18t-2.5 16q4 0 6.5 0.5t5.5 0.5q19 0 45 -14.5t41 -40.5l54 10q0 2 -0.5 16t-0.5 31t-0.5 31.5t-0.5 17.5l-51 30l-46 -12l-21 35l21 33l46 -14l48 20q0 11 -0.5 24t-0.5 36q-14 -6 -31.5 -8.5
t-30.5 -2.5q-32 0 -48 11t-24 29q25 4 55 12t49 19q11 -8 27.5 -13.5t34.5 -9t35.5 -5t30.5 -1.5q2 0 3.5 0.5t3.5 0.5q-6 -18 -8.5 -50t-2.5 -59q-20 -7 -44 -11.5t-44 -11.5q11 -6 26.5 -11t30 -8.5t24.5 -6.5t10 -4q0 -8 1 -31t3 -49t4 -47t4 -24q-15 0 -41 -4t-53 -10
t-49.5 -13t-31.5 -13zM614 117h-58h-27t-29 -0.5t-25.5 -1t-16.5 -1.5q1 6 1.5 12t0.5 11q0 31 -8 37q3 2 14 15t25 32t30.5 42.5t30.5 46.5t24 43t13 32q9 -11 25.5 -17.5t35 -10.5t34.5 -6l24 -3v-174h36q0 -4 0.5 -12.5t1.5 -18t3 -19t5 -15.5q-7 5 -11 6.5t-19 1.5h-16
v-20q0 -20 8.5 -27.5t20.5 -7.5q4 0 7.5 1t6.5 2q-4 -5 -17 -13.5t-28 -18t-28.5 -18.5t-19.5 -15q-5 5 -19 16.5t-26 17.5zM618 307q-4 -9 -12 -26t-18 -36t-21.5 -38t-23.5 -33h75v133zM463 676q1 4 5 15.5t8 26.5t7.5 30.5t3.5 27.5q0 4 -2 12h154q-11 -6 -30 -31.5
t-43 -79.5l-255 -565q-2 -4 -6 -16t-8 -27t-7 -30.5t-3 -26.5q0 -4 2 -12h-154q11 6 29.5 31.5t43.5 79.5z" />
    <glyph glyph-name="questiondown" unicode="&#xbf;" horiz-adv-x="501" 
d="M197 46v-62.5t-0.5 -67.5t-1 -55.5t-1.5 -26.5q10 10 29.5 18t40.5 13.5t41 8t32 2.5q42 0 79.5 -29t61.5 -87q-38 16 -74 16q-64 0 -114 -59q-18 11 -47.5 22.5t-64 20.5t-70 15t-65.5 6q2 3 3.5 24t3 50.5t2 64.5t1 67t0.5 56.5v34.5l155 102q0 14 -1.5 32t-3.5 37
t-5 36t-7 29h160q-16 -33 -16 -67q0 -38 4 -63t12 -46zM368 483q-17 -29 -41.5 -57.5t-54.5 -44.5q-6 7 -19 18t-27.5 22t-27.5 20.5t-20 14.5q34 24 57.5 46.5t40.5 56.5q6 -8 18 -18.5t26 -21.5t27 -20.5t21 -15.5z" />
    <glyph glyph-name="Agrave" unicode="&#xc0;" horiz-adv-x="730" 
d="M823 -56q-57 20 -112.5 43.5t-109.5 55.5q-13 -13 -23 -22t-21 -15.5t-23.5 -11t-29.5 -8.5q10 12 14 29t4 35q0 29 -7.5 56.5t-13.5 46.5l-24 76q-29 -38 -57.5 -84t-49.5 -88q-17 24 -45.5 68t-63.5 95l-16 -52q-6 -20 -9.5 -40t-3.5 -41q0 -31 8 -61t26 -56
q-20 7 -33.5 14t-25 16t-23 19.5t-26.5 24.5q-42 -40 -83 -56.5t-92 -17.5q19 3 40 24.5t41 56t38.5 78.5t32.5 93l32 112q-35 37 -76 63.5t-74 26.5h-5t-12 -1l-1 3q43 22 80 22q25 0 51 -9.5t60 -28.5l54 185q5 17 7 30t2 21q0 21 -12.5 30t-44.5 9q-20 0 -43 -3t-55 -9
q6 9 29 21t55.5 23t70 18.5t72.5 7.5q26 0 50 -6t36 -21q18 1 39 5t40 9.5t34 11t20 8.5q-14 -20 -20.5 -47.5t-6.5 -59.5q0 -41 9 -85.5t21.5 -82.5t26.5 -65t24 -33q0 -59 20.5 -125t53 -126t73 -107.5t79.5 -71.5zM369 221q17 23 38.5 49.5t39.5 52.5l-77 250l-79 -258
q20 -21 40.5 -47t37.5 -47zM429 847q-8 -17 -10.5 -28t-10.5 -30q-26 7 -59.5 14t-65 13t-57.5 10.5t-36 5.5q4 7 11 21.5t14 31t13 32.5t8 26q16 -11 44 -25t57 -27.5t54.5 -25t37.5 -18.5z" />
    <glyph glyph-name="Aacute" unicode="&#xc1;" horiz-adv-x="730" 
d="M823 -56q-57 20 -112.5 43.5t-109.5 55.5q-13 -13 -23 -22t-21 -15.5t-23.5 -11t-29.5 -8.5q10 12 14 29t4 35q0 29 -7.5 56.5t-13.5 46.5l-24 76q-29 -38 -57.5 -84t-49.5 -88q-17 24 -45.5 68t-63.5 95l-16 -52q-6 -20 -9.5 -40t-3.5 -41q0 -31 8 -61t26 -56
q-20 7 -33.5 14t-25 16t-23 19.5t-26.5 24.5q-42 -40 -83 -56.5t-92 -17.5q19 3 40 24.5t41 56t38.5 78.5t32.5 93l32 112q-35 37 -76 63.5t-74 26.5h-5t-12 -1l-1 3q43 22 80 22q25 0 51 -9.5t60 -28.5l54 185q5 17 7 30t2 21q0 21 -12.5 30t-44.5 9q-20 0 -43 -3t-55 -9
q6 9 29 21t55.5 23t70 18.5t72.5 7.5q26 0 50 -6t36 -21q18 1 39 5t40 9.5t34 11t20 8.5q-14 -20 -20.5 -47.5t-6.5 -59.5q0 -41 9 -85.5t21.5 -82.5t26.5 -65t24 -33q0 -59 20.5 -125t53 -126t73 -107.5t79.5 -71.5zM369 221q17 23 38.5 49.5t39.5 52.5l-77 250l-79 -258
q20 -21 40.5 -47t37.5 -47zM300 847q12 7 37.5 19t54.5 25.5t56.5 27t44.5 24.5q2 -10 8 -26t13 -32.5t14 -31t11 -21.5q-11 -1 -36.5 -5.5t-57.5 -10.5t-65.5 -13t-58.5 -14q-8 19 -10.5 30t-10.5 28z" />
    <glyph glyph-name="Acircumflex" unicode="&#xc2;" horiz-adv-x="730" 
d="M823 -56q-57 20 -112.5 43.5t-109.5 55.5q-13 -13 -23 -22t-21 -15.5t-23.5 -11t-29.5 -8.5q10 12 14 29t4 35q0 29 -7.5 56.5t-13.5 46.5l-24 76q-29 -38 -57.5 -84t-49.5 -88q-17 24 -45.5 68t-63.5 95l-16 -52q-6 -20 -9.5 -40t-3.5 -41q0 -31 8 -61t26 -56
q-20 7 -33.5 14t-25 16t-23 19.5t-26.5 24.5q-42 -40 -83 -56.5t-92 -17.5q19 3 40 24.5t41 56t38.5 78.5t32.5 93l32 112q-35 37 -76 63.5t-74 26.5h-5t-12 -1l-1 3q43 22 80 22q25 0 51 -9.5t60 -28.5l54 185q5 17 7 30t2 21q0 21 -12.5 30t-44.5 9q-20 0 -43 -3t-55 -9
q6 9 29 21t55.5 23t70 18.5t72.5 7.5q26 0 50 -6t36 -21q18 1 39 5t40 9.5t34 11t20 8.5q-14 -20 -20.5 -47.5t-6.5 -59.5q0 -41 9 -85.5t21.5 -82.5t26.5 -65t24 -33q0 -59 20.5 -125t53 -126t73 -107.5t79.5 -71.5zM369 221q17 23 38.5 49.5t39.5 52.5l-77 250l-79 -258
q20 -21 40.5 -47t37.5 -47zM540 828q-15 -12 -23 -20t-23 -22q-12 7 -28 14.5t-33 14.5t-33.5 13.5t-29.5 11.5q-14 -5 -31 -11.5t-34 -14t-32.5 -15t-27.5 -13.5q-16 13 -23.5 21.5t-22.5 20.5q35 26 81.5 55.5t88.5 61.5q66 -45 111.5 -75t59.5 -42z" />
    <glyph glyph-name="Atilde" unicode="&#xc3;" horiz-adv-x="730" 
d="M823 -56q-57 20 -112.5 43.5t-109.5 55.5q-13 -13 -23 -22t-21 -15.5t-23.5 -11t-29.5 -8.5q10 12 14 29t4 35q0 29 -7.5 56.5t-13.5 46.5l-24 76q-29 -38 -57.5 -84t-49.5 -88q-17 24 -45.5 68t-63.5 95l-16 -52q-6 -20 -9.5 -40t-3.5 -41q0 -31 8 -61t26 -56
q-20 7 -33.5 14t-25 16t-23 19.5t-26.5 24.5q-42 -40 -83 -56.5t-92 -17.5q19 3 40 24.5t41 56t38.5 78.5t32.5 93l32 112q-35 37 -76 63.5t-74 26.5h-5t-12 -1l-1 3q43 22 80 22q25 0 51 -9.5t60 -28.5l54 185q5 17 7 30t2 21q0 21 -12.5 30t-44.5 9q-20 0 -43 -3t-55 -9
q6 9 29 21t55.5 23t70 18.5t72.5 7.5q26 0 50 -6t36 -21q18 1 39 5t40 9.5t34 11t20 8.5q-14 -20 -20.5 -47.5t-6.5 -59.5q0 -41 9 -85.5t21.5 -82.5t26.5 -65t24 -33q0 -59 20.5 -125t53 -126t73 -107.5t79.5 -71.5zM369 221q17 23 38.5 49.5t39.5 52.5l-77 250l-79 -258
q20 -21 40.5 -47t37.5 -47zM202 899q31 2 65.5 15.5t57.5 27.5l91 -44q35 2 65 16t58 29v-118q-42 -1 -72.5 -12.5t-49.5 -29.5l-93 44q-52 -1 -79.5 -15.5t-42.5 -28.5v116z" />
    <glyph glyph-name="Adieresis" unicode="&#xc4;" horiz-adv-x="730" 
d="M823 -56q-57 20 -112.5 43.5t-109.5 55.5q-13 -13 -23 -22t-21 -15.5t-23.5 -11t-29.5 -8.5q10 12 14 29t4 35q0 29 -7.5 56.5t-13.5 46.5l-24 76q-29 -38 -57.5 -84t-49.5 -88q-17 24 -45.5 68t-63.5 95l-16 -52q-6 -20 -9.5 -40t-3.5 -41q0 -31 8 -61t26 -56
q-20 7 -33.5 14t-25 16t-23 19.5t-26.5 24.5q-42 -40 -83 -56.5t-92 -17.5q19 3 40 24.5t41 56t38.5 78.5t32.5 93l32 112q-35 37 -76 63.5t-74 26.5h-5t-12 -1l-1 3q43 22 80 22q25 0 51 -9.5t60 -28.5l54 185q5 17 7 30t2 21q0 21 -12.5 30t-44.5 9q-20 0 -43 -3t-55 -9
q6 9 29 21t55.5 23t70 18.5t72.5 7.5q26 0 50 -6t36 -21q18 1 39 5t40 9.5t34 11t20 8.5q-14 -20 -20.5 -47.5t-6.5 -59.5q0 -41 9 -85.5t21.5 -82.5t26.5 -65t24 -33q0 -59 20.5 -125t53 -126t73 -107.5t79.5 -71.5zM369 221q17 23 38.5 49.5t39.5 52.5l-77 250l-79 -258
q20 -21 40.5 -47t37.5 -47zM186 854q16 26 37.5 51.5t48.5 39.5q6 -7 17 -16.5t24 -19.5t25 -18.5t18 -12.5q-30 -22 -51.5 -42t-36.5 -50q-5 7 -16 16.5t-23.5 19.5t-24 18.5t-18.5 13.5zM385 854q16 26 37.5 51.5t48.5 39.5q6 -7 17 -16.5t24 -19.5t25 -18.5t18 -12.5
q-30 -22 -51.5 -42t-36.5 -50q-5 7 -16 16.5t-23.5 19.5t-24 18.5t-18.5 13.5z" />
    <glyph glyph-name="Aring" unicode="&#xc5;" horiz-adv-x="730" 
d="M823 -56q-57 20 -112.5 43.5t-109.5 55.5q-13 -13 -23 -22t-21 -15.5t-23.5 -11t-29.5 -8.5q10 12 14 29t4 35q0 29 -7.5 56.5t-13.5 46.5l-24 76q-29 -38 -57.5 -84t-49.5 -88q-17 24 -45.5 68t-63.5 95l-16 -52q-6 -20 -9.5 -40t-3.5 -41q0 -31 8 -61t26 -56
q-20 7 -33.5 14t-25 16t-23 19.5t-26.5 24.5q-42 -40 -83 -56.5t-92 -17.5q19 3 40 24.5t41 56t38.5 78.5t32.5 93l32 112q-35 37 -76 63.5t-74 26.5h-5t-12 -1l-1 3q43 22 80 22q25 0 51 -9.5t60 -28.5l54 185q5 17 7 30t2 21q0 21 -12.5 30t-44.5 9q-20 0 -43 -3t-55 -9
q6 9 29 21t55.5 23t70 18.5t72.5 7.5q26 0 50 -6t36 -21q18 1 39 5t40 9.5t34 11t20 8.5q-14 -20 -20.5 -47.5t-6.5 -59.5q0 -41 9 -85.5t21.5 -82.5t26.5 -65t24 -33q0 -59 20.5 -125t53 -126t73 -107.5t79.5 -71.5zM369 221q17 23 38.5 49.5t39.5 52.5l-77 250l-79 -258
q20 -21 40.5 -47t37.5 -47zM370 945q42 0 62.5 -24.5t20.5 -53.5q0 -31 -20 -56t-60 -25q-45 0 -65.5 24.5t-20.5 54.5t20.5 55t62.5 25zM370 886q-11 0 -16.5 -6.5t-5.5 -14.5t6 -14t17 -6q9 0 14 6.5t5 14.5q0 7 -4.5 13.5t-15.5 6.5z" />
    <glyph glyph-name="AE" unicode="&#xc6;" horiz-adv-x="929" 
d="M-2 384q16 6 35.5 10.5t39 7.5t36.5 4.5t29 1.5h33.5t35.5 -1l70 188q5 14 7 28.5t2 25.5q0 19 -21 27.5t-49 8.5q-32 0 -95 -12q5 8 27.5 17t54.5 16.5t69 12t72 4.5q10 0 24 -0.5t29 -1t29.5 -2.5t26.5 -5q61 3 103 14t75 34q43 -22 74 -31.5t69 -9.5q46 0 97 12
q0 -34 -12 -57.5t-30 -38.5t-39 -21.5t-40 -6.5q-28 0 -50 12t-56 32q-11 -10 -28.5 -20.5t-33.5 -21.5v-169q14 -2 25.5 -3.5t21.5 -1.5q23 0 39.5 8t34.5 21q19 -17 44.5 -40t57.5 -39q-27 -13 -53 -35t-48 -39q-12 11 -30 22.5t-41 11.5q-24 0 -48 -7q-2 -11 -3.5 -25.5
t-2.5 -30.5t-1.5 -30.5t-0.5 -24.5q0 -23 2 -45t6 -48q16 -11 38 -28t66 -48q2 2 11 7.5t19 11t18 10l8 4.5q-2 17 -5 36.5t-8 28.5q21 19 41 34.5t39.5 28.5t40 23.5t44.5 20.5q-11 -20 -16.5 -53.5t-5.5 -66.5q0 -27 3.5 -49t8.5 -32q-28 -14 -50.5 -25.5t-44.5 -25.5
t-45.5 -34.5t-53.5 -51.5q-17 13 -48 30.5t-68 35t-76.5 34t-72.5 27.5q2 24 3.5 63t2.5 88q-25 24 -56.5 47.5t-69.5 44.5l-50 -129q-10 -25 -15.5 -49t-5.5 -47q0 -25 7.5 -50t24.5 -52q-20 7 -33.5 14t-25 16t-23 19.5t-26.5 24.5q-45 -40 -88 -56.5t-97 -17.5
q20 2 41.5 24t42.5 57t40.5 79.5t37.5 91.5l48 129q-45 15 -92 24t-96 9zM344 392q53 -9 90 -28v143.5t1 103.5l-2 12z" />
    <glyph glyph-name="Ccedilla" unicode="&#xc7;" horiz-adv-x="626" 
d="M284 -116v12.5t0.5 18t0.5 29.5v46q-48 8 -93.5 12.5t-83.5 4.5q-32 0 -59 -10l-1 3q15 9 26.5 34t20 57t12.5 66.5t4 63.5q0 45 -9.5 86t-26.5 62q16 16 26.5 42.5t16.5 57t8 62.5t2 60q0 23 -1 40t-2 26q-23 8 -47.5 33t-36.5 54q64 -7 121.5 -9.5t108.5 -2.5
q109 0 176 7t106 7q8 0 14 -0.5t11 -1.5q-6 -12 -12.5 -45t-12.5 -72t-10.5 -76t-6.5 -56l-7 -3q-35 26 -50.5 57.5t-23.5 77.5q-14 11 -35 14t-53 3q-26 0 -50 -1t-38 -1q-5 -29 -8.5 -67t-6 -81t-4 -89.5t-1.5 -92.5q0 -63 1.5 -119.5t5.5 -98.5l169 -17q14 62 49.5 110
t76.5 93l6 -2q-3 -23 -4 -45.5t-1 -43.5q0 -52 5 -94t12 -63q-17 -2 -33.5 -5.5t-35.5 -11.5t-40.5 -22t-47.5 -36q-16 5 -31.5 9t-31.5 8v-53h61l42 -31v-29.5t0.5 -45t1.5 -42.5t3 -21q-15 0 -33.5 -3t-37 -8.5t-34.5 -11.5t-25 -12q-26 32 -61 32q-9 0 -18.5 -2t-19.5 -7
q12 31 32.5 46t41.5 15q7 0 17.5 -1.5t21.5 -4t21 -6.5t16 -10q0 3 -0.5 11.5t-0.5 20.5t-0.5 26t-0.5 28q-20 4 -45 4q-24 0 -39 -4z" />
    <glyph glyph-name="Egrave" unicode="&#xc8;" horiz-adv-x="623" 
d="M46 0q15 9 26.5 34t20 57t12.5 66.5t4 63.5q0 45 -9.5 86t-26.5 62q16 16 26.5 42.5t16.5 57t8 62.5t2 60q0 23 -1 40t-2 26q-23 8 -47.5 33t-36.5 54q64 -7 121.5 -9.5t108.5 -2.5q109 0 176 7t106 7q8 0 14 -0.5t11 -1.5q-6 -11 -12.5 -40t-12.5 -63.5t-10.5 -67
t-6.5 -48.5l-7 -3q-35 20 -50.5 45t-23.5 60q-14 11 -35 14t-53 3q-26 0 -50 -1t-38 -1q-8 -39 -12 -95t-6 -119q14 -2 28.5 -2.5t22.5 -0.5q21 0 41.5 16.5t39.5 42.5q5 -12 10 -27.5t11.5 -31t14.5 -29.5t19 -21q-9 -9 -17.5 -23t-16 -30t-14 -32t-11.5 -29q-6 11 -14 24
t-17 24t-19.5 18.5t-22.5 7.5q-9 0 -26 -1t-31 -4v-18q0 -63 1.5 -119.5t5.5 -98.5l169 -17q14 62 49.5 110t76.5 93l6 -2q-3 -23 -4 -45.5t-1 -43.5q0 -52 5 -94t12 -63q-17 -2 -33.5 -5.5t-35.5 -11.5t-40.5 -22t-47.5 -36q-84 25 -166 37.5t-148 12.5q-32 0 -59 -10z
M377 847q-8 -17 -10.5 -28t-10.5 -30q-26 7 -59.5 14t-65 13t-57.5 10.5t-36 5.5q4 7 11 21.5t14 31t13 32.5t8 26q16 -11 44 -25t57 -27.5t54.5 -25t37.5 -18.5z" />
    <glyph glyph-name="Eacute" unicode="&#xc9;" horiz-adv-x="623" 
d="M46 0q15 9 26.5 34t20 57t12.5 66.5t4 63.5q0 45 -9.5 86t-26.5 62q16 16 26.5 42.5t16.5 57t8 62.5t2 60q0 23 -1 40t-2 26q-23 8 -47.5 33t-36.5 54q64 -7 121.5 -9.5t108.5 -2.5q109 0 176 7t106 7q8 0 14 -0.5t11 -1.5q-6 -11 -12.5 -40t-12.5 -63.5t-10.5 -67
t-6.5 -48.5l-7 -3q-35 20 -50.5 45t-23.5 60q-14 11 -35 14t-53 3q-26 0 -50 -1t-38 -1q-8 -39 -12 -95t-6 -119q14 -2 28.5 -2.5t22.5 -0.5q21 0 41.5 16.5t39.5 42.5q5 -12 10 -27.5t11.5 -31t14.5 -29.5t19 -21q-9 -9 -17.5 -23t-16 -30t-14 -32t-11.5 -29q-6 11 -14 24
t-17 24t-19.5 18.5t-22.5 7.5q-9 0 -26 -1t-31 -4v-18q0 -63 1.5 -119.5t5.5 -98.5l169 -17q14 62 49.5 110t76.5 93l6 -2q-3 -23 -4 -45.5t-1 -43.5q0 -52 5 -94t12 -63q-17 -2 -33.5 -5.5t-35.5 -11.5t-40.5 -22t-47.5 -36q-84 25 -166 37.5t-148 12.5q-32 0 -59 -10z
M248 847q12 7 37.5 19t54.5 25.5t56.5 27t44.5 24.5q2 -10 8 -26t13 -32.5t14 -31t11 -21.5q-11 -1 -36.5 -5.5t-57.5 -10.5t-65.5 -13t-58.5 -14q-8 19 -10.5 30t-10.5 28z" />
    <glyph glyph-name="Ecircumflex" unicode="&#xca;" horiz-adv-x="623" 
d="M46 0q15 9 26.5 34t20 57t12.5 66.5t4 63.5q0 45 -9.5 86t-26.5 62q16 16 26.5 42.5t16.5 57t8 62.5t2 60q0 23 -1 40t-2 26q-23 8 -47.5 33t-36.5 54q64 -7 121.5 -9.5t108.5 -2.5q109 0 176 7t106 7q8 0 14 -0.5t11 -1.5q-6 -11 -12.5 -40t-12.5 -63.5t-10.5 -67
t-6.5 -48.5l-7 -3q-35 20 -50.5 45t-23.5 60q-14 11 -35 14t-53 3q-26 0 -50 -1t-38 -1q-8 -39 -12 -95t-6 -119q14 -2 28.5 -2.5t22.5 -0.5q21 0 41.5 16.5t39.5 42.5q5 -12 10 -27.5t11.5 -31t14.5 -29.5t19 -21q-9 -9 -17.5 -23t-16 -30t-14 -32t-11.5 -29q-6 11 -14 24
t-17 24t-19.5 18.5t-22.5 7.5q-9 0 -26 -1t-31 -4v-18q0 -63 1.5 -119.5t5.5 -98.5l169 -17q14 62 49.5 110t76.5 93l6 -2q-3 -23 -4 -45.5t-1 -43.5q0 -52 5 -94t12 -63q-17 -2 -33.5 -5.5t-35.5 -11.5t-40.5 -22t-47.5 -36q-84 25 -166 37.5t-148 12.5q-32 0 -59 -10z
M488 828q-15 -12 -23 -20t-23 -22q-12 7 -28 14.5t-33 14.5t-33.5 13.5t-29.5 11.5q-14 -5 -31 -11.5t-34 -14t-32.5 -15t-27.5 -13.5q-16 13 -23.5 21.5t-22.5 20.5q35 26 81.5 55.5t88.5 61.5q66 -45 111.5 -75t59.5 -42z" />
    <glyph glyph-name="Edieresis" unicode="&#xcb;" horiz-adv-x="623" 
d="M46 0q15 9 26.5 34t20 57t12.5 66.5t4 63.5q0 45 -9.5 86t-26.5 62q16 16 26.5 42.5t16.5 57t8 62.5t2 60q0 23 -1 40t-2 26q-23 8 -47.5 33t-36.5 54q64 -7 121.5 -9.5t108.5 -2.5q109 0 176 7t106 7q8 0 14 -0.5t11 -1.5q-6 -11 -12.5 -40t-12.5 -63.5t-10.5 -67
t-6.5 -48.5l-7 -3q-35 20 -50.5 45t-23.5 60q-14 11 -35 14t-53 3q-26 0 -50 -1t-38 -1q-8 -39 -12 -95t-6 -119q14 -2 28.5 -2.5t22.5 -0.5q21 0 41.5 16.5t39.5 42.5q5 -12 10 -27.5t11.5 -31t14.5 -29.5t19 -21q-9 -9 -17.5 -23t-16 -30t-14 -32t-11.5 -29q-6 11 -14 24
t-17 24t-19.5 18.5t-22.5 7.5q-9 0 -26 -1t-31 -4v-18q0 -63 1.5 -119.5t5.5 -98.5l169 -17q14 62 49.5 110t76.5 93l6 -2q-3 -23 -4 -45.5t-1 -43.5q0 -52 5 -94t12 -63q-17 -2 -33.5 -5.5t-35.5 -11.5t-40.5 -22t-47.5 -36q-84 25 -166 37.5t-148 12.5q-32 0 -59 -10z
M328 854q16 26 37.5 51.5t48.5 39.5q6 -7 17 -16.5t24 -19.5t25 -18.5t18 -12.5q-30 -22 -51.5 -42t-36.5 -50q-5 7 -16 16.5t-23.5 19.5t-24 18.5t-18.5 13.5zM129 854q16 26 37.5 51.5t48.5 39.5q6 -7 17 -16.5t24 -19.5t25 -18.5t18 -12.5q-30 -22 -51.5 -42t-36.5 -50
q-5 7 -16 16.5t-23.5 19.5t-24 18.5t-18.5 13.5z" />
    <glyph glyph-name="Igrave" unicode="&#xcc;" horiz-adv-x="396" 
d="M343 739q-21 -14 -35.5 -37.5t-23 -51t-12.5 -57t-4 -56.5q0 -19 1.5 -40.5t5 -44t9 -44t13.5 -39.5q-16 -27 -21.5 -65t-5.5 -76q0 -64 16 -121.5t67 -112.5q-54 7 -94.5 9.5t-73.5 2.5q-45 0 -78 -3t-66 -8q21 13 39 34.5t31 47.5t20.5 55t7.5 57q0 51 -12 99.5
t-38 80.5q28 52 37 95t9 89q0 28 -3 60q-39 16 -53 50.5t-18 76.5q33 -9 61.5 -13t54.5 -4q46 0 85 5.5t81 10.5zM260 847q-8 -17 -10.5 -28t-10.5 -30q-26 7 -59.5 14t-65 13t-57.5 10.5t-36 5.5q4 7 11 21.5t14 31t13 32.5t8 26q16 -11 44 -25t57 -27.5t54.5 -25
t37.5 -18.5z" />
    <glyph glyph-name="Iacute" unicode="&#xcd;" horiz-adv-x="396" 
d="M343 739q-21 -14 -35.5 -37.5t-23 -51t-12.5 -57t-4 -56.5q0 -19 1.5 -40.5t5 -44t9 -44t13.5 -39.5q-16 -27 -21.5 -65t-5.5 -76q0 -64 16 -121.5t67 -112.5q-54 7 -94.5 9.5t-73.5 2.5q-45 0 -78 -3t-66 -8q21 13 39 34.5t31 47.5t20.5 55t7.5 57q0 51 -12 99.5
t-38 80.5q28 52 37 95t9 89q0 28 -3 60q-39 16 -53 50.5t-18 76.5q33 -9 61.5 -13t54.5 -4q46 0 85 5.5t81 10.5zM131 847q12 7 37.5 19t54.5 25.5t56.5 27t44.5 24.5q2 -10 8 -26t13 -32.5t14 -31t11 -21.5q-11 -1 -36.5 -5.5t-57.5 -10.5t-65.5 -13t-58.5 -14
q-8 19 -10.5 30t-10.5 28z" />
    <glyph glyph-name="Icircumflex" unicode="&#xce;" horiz-adv-x="396" 
d="M343 739q-21 -14 -35.5 -37.5t-23 -51t-12.5 -57t-4 -56.5q0 -19 1.5 -40.5t5 -44t9 -44t13.5 -39.5q-16 -27 -21.5 -65t-5.5 -76q0 -64 16 -121.5t67 -112.5q-54 7 -94.5 9.5t-73.5 2.5q-45 0 -78 -3t-66 -8q21 13 39 34.5t31 47.5t20.5 55t7.5 57q0 51 -12 99.5
t-38 80.5q28 52 37 95t9 89q0 28 -3 60q-39 16 -53 50.5t-18 76.5q33 -9 61.5 -13t54.5 -4q46 0 85 5.5t81 10.5zM371 828q-15 -12 -23 -20t-23 -22q-12 7 -28 14.5t-33 14.5t-33.5 13.5t-29.5 11.5q-14 -5 -31 -11.5t-34 -14t-32.5 -15t-27.5 -13.5q-16 13 -23.5 21.5
t-22.5 20.5q35 26 81.5 55.5t88.5 61.5q66 -45 111.5 -75t59.5 -42z" />
    <glyph glyph-name="Idieresis" unicode="&#xcf;" horiz-adv-x="396" 
d="M343 739q-21 -14 -35.5 -37.5t-23 -51t-12.5 -57t-4 -56.5q0 -19 1.5 -40.5t5 -44t9 -44t13.5 -39.5q-16 -27 -21.5 -65t-5.5 -76q0 -64 16 -121.5t67 -112.5q-54 7 -94.5 9.5t-73.5 2.5q-45 0 -78 -3t-66 -8q21 13 39 34.5t31 47.5t20.5 55t7.5 57q0 51 -12 99.5
t-38 80.5q28 52 37 95t9 89q0 28 -3 60q-39 16 -53 50.5t-18 76.5q33 -9 61.5 -13t54.5 -4q46 0 85 5.5t81 10.5zM12 854q16 26 37.5 51.5t48.5 39.5q6 -7 17 -16.5t24 -19.5t25 -18.5t18 -12.5q-30 -22 -51.5 -42t-36.5 -50q-5 7 -16 16.5t-23.5 19.5t-24 18.5t-18.5 13.5z
M211 854q16 26 37.5 51.5t48.5 39.5q6 -7 17 -16.5t24 -19.5t25 -18.5t18 -12.5q-30 -22 -51.5 -42t-36.5 -50q-5 7 -16 16.5t-23.5 19.5t-24 18.5t-18.5 13.5z" />
    <glyph glyph-name="Eth" unicode="&#xd0;" horiz-adv-x="718" 
d="M612 683q3 -48 8.5 -80.5t13.5 -62t19 -63t25 -83.5q-10 -20 -17.5 -50.5t-13 -63.5t-8 -65t-2.5 -56q0 -19 1.5 -37t6.5 -34q-58 -11 -101 -49.5t-85 -92.5q-81 35 -187.5 49.5t-227.5 14.5q11 6 28 22.5t33 38t27.5 45t11.5 43.5q0 29 -1.5 67t-11.5 73
q-28 -1 -54.5 -5t-49.5 -12v130q23 -12 49 -15t52 -3q8 36 11 80.5t3 82.5q0 32 -5 55t-17.5 42.5t-34 38.5t-54.5 44q71 0 127.5 0.5t104.5 2t90 5t84 10.5q31 -19 79 -39t96 -33zM500 144q0 22 3 58.5t8.5 74t13 70.5t16.5 49q-7 20 -16 50.5t-18 64t-16 67t-10 59.5
q-16 0 -40.5 -1.5t-53 -5t-57 -9t-52.5 -13.5q-2 -42 -3 -96.5t-1 -117.5q20 2 40 5.5t39 12.5v-130q-18 6 -38 10t-41 6q2 -48 4 -97t7 -101q10 -3 26.5 -7t34.5 -8t35.5 -7.5t30.5 -5.5q14 23 38 42t50 30z" />
    <glyph glyph-name="Ntilde" unicode="&#xd1;" horiz-adv-x="768" 
d="M522 130q-5 99 -7.5 190t-4 161t-2 112t-0.5 43q-5 61 -63 84q10 -1 19.5 -1h19.5q45 0 82.5 4.5t68.5 9.5t56.5 9.5t47.5 4.5q12 0 23 -3q-60 -43 -92.5 -93.5t-32.5 -113.5q0 -74 49 -168q-23 -58 -37.5 -125t-14.5 -134q0 -29 2.5 -66.5t9.5 -73.5q30 -32 53.5 -50
t42.5 -27t35.5 -12t32.5 -5l-26 66q34 -19 68 -36t70 -30t75.5 -20.5t84.5 -7.5q30 0 62.5 2t68.5 7q-88 -35 -165.5 -50.5t-146.5 -15.5q-88 0 -162.5 25t-138 67.5t-116 98t-96 117t-78 124.5t-61.5 120v-102q0 -62 4 -104t13 -73t23 -54.5t34 -47.5q-22 6 -38.5 12
t-32 14t-32 20t-38.5 30q-27 -48 -72 -83t-121 -60q30 29 56 65.5t45.5 78t31 85.5t11.5 89q0 42 -10.5 81t-34.5 75q49 94 49 168q0 63 -32.5 113.5t-92.5 93.5q10 3 23 3q20 0 45.5 -4.5t56 -9.5t66 -9.5t76.5 -4.5h19.5t19.5 1q-54 -21 -62 -74q18 -45 43.5 -104t57 -124
t68.5 -131.5t77 -126.5zM224 899q31 2 65.5 15.5t57.5 27.5l91 -44q35 2 65 16t58 29v-118q-42 -1 -72.5 -12.5t-49.5 -29.5l-93 44q-52 -1 -79.5 -15.5t-42.5 -28.5v116z" />
    <glyph glyph-name="Ograve" unicode="&#xd2;" horiz-adv-x="691" 
d="M222 113q18 -10 33 -18t30.5 -14.5t33.5 -11.5t41 -9q42 21 67 27.5t33 11.5q2 97 3.5 203.5t1.5 202.5v49.5t-2 47.5q-18 10 -33 18t-30.5 14.5t-33 11.5t-40.5 9q-42 -21 -67.5 -29t-33.5 -13q-1 -25 -2 -60.5t-1.5 -76.5t-0.5 -86v-88q0 -45 0.5 -97t0.5 -92zM42 362
q13 14 23.5 35.5t18.5 47t12.5 53.5t4.5 55q0 46 -14 87t-46 60q31 2 67.5 8t73.5 15t71 19.5t60 22.5q33 -5 78.5 -16.5t90.5 -23.5l82.5 -22t54.5 -11q-14 -23 -20 -57.5t-6 -71.5q0 -56 14 -111.5t40 -90.5q-25 -31 -41 -84.5t-16 -110.5q0 -46 14 -86t46 -60
q-31 -2 -68.5 -8t-75 -15t-72.5 -19.5t-60 -22.5q-33 4 -78 15t-89.5 23t-81.5 22.5t-53 12.5q14 13 19.5 42.5t5.5 67.5q0 35 -4.5 73.5t-12 71t-17.5 54.5t-21 25zM408 847q-8 -17 -10.5 -28t-10.5 -30q-26 7 -59.5 14t-65 13t-57.5 10.5t-36 5.5q4 7 11 21.5t14 31
t13 32.5t8 26q16 -11 44 -25t57 -27.5t54.5 -25t37.5 -18.5z" />
    <glyph glyph-name="Oacute" unicode="&#xd3;" horiz-adv-x="691" 
d="M222 113q18 -10 33 -18t30.5 -14.5t33.5 -11.5t41 -9q42 21 67 27.5t33 11.5q2 97 3.5 203.5t1.5 202.5v49.5t-2 47.5q-18 10 -33 18t-30.5 14.5t-33 11.5t-40.5 9q-42 -21 -67.5 -29t-33.5 -13q-1 -25 -2 -60.5t-1.5 -76.5t-0.5 -86v-88q0 -45 0.5 -97t0.5 -92zM42 362
q13 14 23.5 35.5t18.5 47t12.5 53.5t4.5 55q0 46 -14 87t-46 60q31 2 67.5 8t73.5 15t71 19.5t60 22.5q33 -5 78.5 -16.5t90.5 -23.5l82.5 -22t54.5 -11q-14 -23 -20 -57.5t-6 -71.5q0 -56 14 -111.5t40 -90.5q-25 -31 -41 -84.5t-16 -110.5q0 -46 14 -86t46 -60
q-31 -2 -68.5 -8t-75 -15t-72.5 -19.5t-60 -22.5q-33 4 -78 15t-89.5 23t-81.5 22.5t-53 12.5q14 13 19.5 42.5t5.5 67.5q0 35 -4.5 73.5t-12 71t-17.5 54.5t-21 25zM279 847q12 7 37.5 19t54.5 25.5t56.5 27t44.5 24.5q2 -10 8 -26t13 -32.5t14 -31t11 -21.5
q-11 -1 -36.5 -5.5t-57.5 -10.5t-65.5 -13t-58.5 -14q-8 19 -10.5 30t-10.5 28z" />
    <glyph glyph-name="Ocircumflex" unicode="&#xd4;" horiz-adv-x="691" 
d="M222 113q18 -10 33 -18t30.5 -14.5t33.5 -11.5t41 -9q42 21 67 27.5t33 11.5q2 97 3.5 203.5t1.5 202.5v49.5t-2 47.5q-18 10 -33 18t-30.5 14.5t-33 11.5t-40.5 9q-42 -21 -67.5 -29t-33.5 -13q-1 -25 -2 -60.5t-1.5 -76.5t-0.5 -86v-88q0 -45 0.5 -97t0.5 -92zM42 362
q13 14 23.5 35.5t18.5 47t12.5 53.5t4.5 55q0 46 -14 87t-46 60q31 2 67.5 8t73.5 15t71 19.5t60 22.5q33 -5 78.5 -16.5t90.5 -23.5l82.5 -22t54.5 -11q-14 -23 -20 -57.5t-6 -71.5q0 -56 14 -111.5t40 -90.5q-25 -31 -41 -84.5t-16 -110.5q0 -46 14 -86t46 -60
q-31 -2 -68.5 -8t-75 -15t-72.5 -19.5t-60 -22.5q-33 4 -78 15t-89.5 23t-81.5 22.5t-53 12.5q14 13 19.5 42.5t5.5 67.5q0 35 -4.5 73.5t-12 71t-17.5 54.5t-21 25zM519 828q-15 -12 -23 -20t-23 -22q-12 7 -28 14.5t-33 14.5t-33.5 13.5t-29.5 11.5q-14 -5 -31 -11.5
t-34 -14t-32.5 -15t-27.5 -13.5q-16 13 -23.5 21.5t-22.5 20.5q35 26 81.5 55.5t88.5 61.5q66 -45 111.5 -75t59.5 -42z" />
    <glyph glyph-name="Otilde" unicode="&#xd5;" horiz-adv-x="691" 
d="M222 113q18 -10 33 -18t30.5 -14.5t33.5 -11.5t41 -9q42 21 67 27.5t33 11.5q2 97 3.5 203.5t1.5 202.5v49.5t-2 47.5q-18 10 -33 18t-30.5 14.5t-33 11.5t-40.5 9q-42 -21 -67.5 -29t-33.5 -13q-1 -25 -2 -60.5t-1.5 -76.5t-0.5 -86v-88q0 -45 0.5 -97t0.5 -92zM42 362
q13 14 23.5 35.5t18.5 47t12.5 53.5t4.5 55q0 46 -14 87t-46 60q31 2 67.5 8t73.5 15t71 19.5t60 22.5q33 -5 78.5 -16.5t90.5 -23.5l82.5 -22t54.5 -11q-14 -23 -20 -57.5t-6 -71.5q0 -56 14 -111.5t40 -90.5q-25 -31 -41 -84.5t-16 -110.5q0 -46 14 -86t46 -60
q-31 -2 -68.5 -8t-75 -15t-72.5 -19.5t-60 -22.5q-33 4 -78 15t-89.5 23t-81.5 22.5t-53 12.5q14 13 19.5 42.5t5.5 67.5q0 35 -4.5 73.5t-12 71t-17.5 54.5t-21 25zM181 899q31 2 65.5 15.5t57.5 27.5l91 -44q35 2 65 16t58 29v-118q-42 -1 -72.5 -12.5t-49.5 -29.5l-93 44
q-52 -1 -79.5 -15.5t-42.5 -28.5v116z" />
    <glyph glyph-name="Odieresis" unicode="&#xd6;" horiz-adv-x="691" 
d="M222 113q18 -10 33 -18t30.5 -14.5t33.5 -11.5t41 -9q42 21 67 27.5t33 11.5q2 97 3.5 203.5t1.5 202.5v49.5t-2 47.5q-18 10 -33 18t-30.5 14.5t-33 11.5t-40.5 9q-42 -21 -67.5 -29t-33.5 -13q-1 -25 -2 -60.5t-1.5 -76.5t-0.5 -86v-88q0 -45 0.5 -97t0.5 -92zM42 362
q13 14 23.5 35.5t18.5 47t12.5 53.5t4.5 55q0 46 -14 87t-46 60q31 2 67.5 8t73.5 15t71 19.5t60 22.5q33 -5 78.5 -16.5t90.5 -23.5l82.5 -22t54.5 -11q-14 -23 -20 -57.5t-6 -71.5q0 -56 14 -111.5t40 -90.5q-25 -31 -41 -84.5t-16 -110.5q0 -46 14 -86t46 -60
q-31 -2 -68.5 -8t-75 -15t-72.5 -19.5t-60 -22.5q-33 4 -78 15t-89.5 23t-81.5 22.5t-53 12.5q14 13 19.5 42.5t5.5 67.5q0 35 -4.5 73.5t-12 71t-17.5 54.5t-21 25zM160 854q16 26 37.5 51.5t48.5 39.5q6 -7 17 -16.5t24 -19.5t25 -18.5t18 -12.5q-30 -22 -51.5 -42
t-36.5 -50q-5 7 -16 16.5t-23.5 19.5t-24 18.5t-18.5 13.5zM359 854q16 26 37.5 51.5t48.5 39.5q6 -7 17 -16.5t24 -19.5t25 -18.5t18 -12.5q-30 -22 -51.5 -42t-36.5 -50q-5 7 -16 16.5t-23.5 19.5t-24 18.5t-18.5 13.5z" />
    <glyph glyph-name="multiply" unicode="&#xd7;" horiz-adv-x="455" 
d="M312 177q-11 27 -29 50t-39 43l-17 16l-17 -17q-21 -21 -38.5 -44t-28.5 -47l-98 97q28 10 50.5 29t42.5 39l16 16l-16 17q-20 21 -43 39t-50 29l98 97q11 -25 29 -47t38 -44l17 -18l17 17q20 20 39 42.5t29 50.5l97 -98q-24 -11 -47 -28.5t-44 -38.5l-18 -18l18 -17
q22 -20 44 -38t47 -29z" />
    <glyph glyph-name="Oslash" unicode="&#xd8;" horiz-adv-x="1018" 
d="M215 362q13 14 23.5 35.5t18.5 47t12.5 53.5t4.5 55q0 46 -14 87t-46 60q31 2 67.5 8t73.5 15t71 19.5t60 22.5q33 -5 78.5 -16.5t90.5 -23.5l82.5 -22t54.5 -11q-15 -26 -21 -66l28 24q32 27 54 47t29 37h152q-8 -2 -29.5 -15.5t-48.5 -32t-55.5 -40t-50.5 -39.5
l-84 -70q3 -51 17 -98.5t37 -77.5q-25 -31 -41 -84.5t-16 -110.5q0 -46 14 -86t46 -60q-31 -2 -68.5 -8t-75 -15t-72.5 -19.5t-60 -22.5q-33 4 -78 15t-89.5 23t-81.5 22.5t-53 12.5q12 11 17.5 35.5t7.5 56.5l-42 -35q-33 -28 -55 -48t-30 -37h-164q8 1 31.5 14.5t53 32
t60 40.5t53.5 41l89 75q-3 29 -8.5 56.5t-12 49t-14.5 36t-16 17.5zM395 113q18 -10 33 -18t30.5 -14.5t33.5 -11.5t41 -9q42 21 67 27.5t33 11.5q2 78 3.5 163.5t1.5 166.5l-244 -205q1 -30 1 -59v-52zM398 613q-1 -24 -2 -58.5t-1.5 -75t-0.5 -84v-85.5l244 205
q0 22 -0.5 44t-1.5 43q-18 10 -33 18t-30.5 14.5t-33 11.5t-40.5 9q-42 -21 -67.5 -29t-33.5 -13z" />
    <glyph glyph-name="Ugrave" unicode="&#xd9;" horiz-adv-x="709" 
d="M582 535q0 -33 5 -65.5t12.5 -59t16.5 -44.5t17 -23q-18 -18 -29.5 -41.5t-18 -49.5t-8.5 -53.5t-2 -53.5q0 -15 0.5 -26.5t1.5 -19.5q17 -4 33 -12t29.5 -23t23 -38t12.5 -56q-60 18 -105 25t-83 7q-103 0 -170 -17.5t-92 -32.5q-14 30 -53 65.5t-87 75.5q2 14 3 33.5
t1 33.5q0 34 -2 65.5t-6.5 57t-10.5 43t-14 23.5q27 35 39 84.5t12 106.5q0 52 -12.5 99t-42.5 90q45 -4 77 -9.5t54 -20.5t36.5 -44.5t24.5 -80.5q0 -109 -8 -210t-12 -207l76 -93q24 15 58.5 26t77.5 13q9 25 12.5 73t4 110t0.5 134t1 147q-3 73 -9 155q58 -19 116 -19
q26 0 55 4.5t66 14.5q-3 -31 -12.5 -54t-23 -38.5t-30 -24.5t-32.5 -12q-1 -8 -1.5 -21t-0.5 -37zM405 847q-8 -17 -10.5 -28t-10.5 -30q-26 7 -59.5 14t-65 13t-57.5 10.5t-36 5.5q4 7 11 21.5t14 31t13 32.5t8 26q16 -11 44 -25t57 -27.5t54.5 -25t37.5 -18.5z" />
    <glyph glyph-name="Uacute" unicode="&#xda;" horiz-adv-x="709" 
d="M582 535q0 -33 5 -65.5t12.5 -59t16.5 -44.5t17 -23q-18 -18 -29.5 -41.5t-18 -49.5t-8.5 -53.5t-2 -53.5q0 -15 0.5 -26.5t1.5 -19.5q17 -4 33 -12t29.5 -23t23 -38t12.5 -56q-60 18 -105 25t-83 7q-103 0 -170 -17.5t-92 -32.5q-14 30 -53 65.5t-87 75.5q2 14 3 33.5
t1 33.5q0 34 -2 65.5t-6.5 57t-10.5 43t-14 23.5q27 35 39 84.5t12 106.5q0 52 -12.5 99t-42.5 90q45 -4 77 -9.5t54 -20.5t36.5 -44.5t24.5 -80.5q0 -109 -8 -210t-12 -207l76 -93q24 15 58.5 26t77.5 13q9 25 12.5 73t4 110t0.5 134t1 147q-3 73 -9 155q58 -19 116 -19
q26 0 55 4.5t66 14.5q-3 -31 -12.5 -54t-23 -38.5t-30 -24.5t-32.5 -12q-1 -8 -1.5 -21t-0.5 -37zM276 847q12 7 37.5 19t54.5 25.5t56.5 27t44.5 24.5q2 -10 8 -26t13 -32.5t14 -31t11 -21.5q-11 -1 -36.5 -5.5t-57.5 -10.5t-65.5 -13t-58.5 -14q-8 19 -10.5 30t-10.5 28z
" />
    <glyph glyph-name="Ucircumflex" unicode="&#xdb;" horiz-adv-x="709" 
d="M582 535q0 -33 5 -65.5t12.5 -59t16.5 -44.5t17 -23q-18 -18 -29.5 -41.5t-18 -49.5t-8.5 -53.5t-2 -53.5q0 -15 0.5 -26.5t1.5 -19.5q17 -4 33 -12t29.5 -23t23 -38t12.5 -56q-60 18 -105 25t-83 7q-103 0 -170 -17.5t-92 -32.5q-14 30 -53 65.5t-87 75.5q2 14 3 33.5
t1 33.5q0 34 -2 65.5t-6.5 57t-10.5 43t-14 23.5q27 35 39 84.5t12 106.5q0 52 -12.5 99t-42.5 90q45 -4 77 -9.5t54 -20.5t36.5 -44.5t24.5 -80.5q0 -109 -8 -210t-12 -207l76 -93q24 15 58.5 26t77.5 13q9 25 12.5 73t4 110t0.5 134t1 147q-3 73 -9 155q58 -19 116 -19
q26 0 55 4.5t66 14.5q-3 -31 -12.5 -54t-23 -38.5t-30 -24.5t-32.5 -12q-1 -8 -1.5 -21t-0.5 -37zM516 828q-15 -12 -23 -20t-23 -22q-12 7 -28 14.5t-33 14.5t-33.5 13.5t-29.5 11.5q-14 -5 -31 -11.5t-34 -14t-32.5 -15t-27.5 -13.5q-16 13 -23.5 21.5t-22.5 20.5
q35 26 81.5 55.5t88.5 61.5q66 -45 111.5 -75t59.5 -42z" />
    <glyph glyph-name="Udieresis" unicode="&#xdc;" horiz-adv-x="709" 
d="M582 535q0 -33 5 -65.5t12.5 -59t16.5 -44.5t17 -23q-18 -18 -29.5 -41.5t-18 -49.5t-8.5 -53.5t-2 -53.5q0 -15 0.5 -26.5t1.5 -19.5q17 -4 33 -12t29.5 -23t23 -38t12.5 -56q-60 18 -105 25t-83 7q-103 0 -170 -17.5t-92 -32.5q-14 30 -53 65.5t-87 75.5q2 14 3 33.5
t1 33.5q0 34 -2 65.5t-6.5 57t-10.5 43t-14 23.5q27 35 39 84.5t12 106.5q0 52 -12.5 99t-42.5 90q45 -4 77 -9.5t54 -20.5t36.5 -44.5t24.5 -80.5q0 -109 -8 -210t-12 -207l76 -93q24 15 58.5 26t77.5 13q9 25 12.5 73t4 110t0.5 134t1 147q-3 73 -9 155q58 -19 116 -19
q26 0 55 4.5t66 14.5q-3 -31 -12.5 -54t-23 -38.5t-30 -24.5t-32.5 -12q-1 -8 -1.5 -21t-0.5 -37zM167 854q16 26 37.5 51.5t48.5 39.5q6 -7 17 -16.5t24 -19.5t25 -18.5t18 -12.5q-30 -22 -51.5 -42t-36.5 -50q-5 7 -16 16.5t-23.5 19.5t-24 18.5t-18.5 13.5zM366 854
q16 26 37.5 51.5t48.5 39.5q6 -7 17 -16.5t24 -19.5t25 -18.5t18 -12.5q-30 -22 -51.5 -42t-36.5 -50q-5 7 -16 16.5t-23.5 19.5t-24 18.5t-18.5 13.5z" />
    <glyph glyph-name="Yacute" unicode="&#xdd;" horiz-adv-x="757" 
d="M259 27q13 21 23 46.5t16 53t9.5 55.5t4.5 54q-28 29 -55.5 58.5t-56.5 46.5q0 47 -18 104.5t-48.5 113t-69.5 103t-81 74.5q48 0 77 -3.5t47 -10t28 -15t20 -18.5q14 25 47 37t72 14q-12 -17 -20.5 -37.5t-8.5 -41.5q0 -5 0.5 -9t1.5 -9l106 -248l38 -39l37 38l102 249
q1 5 1 9v9q0 22 -12.5 42t-25.5 37q16 -8 34 -13t36 -7.5t34 -3.5t28 -1q21 0 37.5 4t34 8.5t37.5 8.5t49 4q-27 -17 -55 -47t-54 -67t-49.5 -77.5t-41 -78.5t-27.5 -70.5t-10 -53.5q-30 -19 -51 -50.5t-43 -58.5q1 -30 5.5 -61.5t12 -60.5t17 -52.5t20.5 -35.5
q-45 -29 -72 -57t-43 -70q-10 41 -48.5 72.5t-84.5 54.5zM309 847q12 7 37.5 19t54.5 25.5t56.5 27t44.5 24.5q2 -10 8 -26t13 -32.5t14 -31t11 -21.5q-11 -1 -36.5 -5.5t-57.5 -10.5t-65.5 -13t-58.5 -14q-8 19 -10.5 30t-10.5 28z" />
    <glyph glyph-name="Thorn" unicode="&#xde;" horiz-adv-x="674" 
d="M447 92q-39 14 -85.5 17t-103.5 4q10 -35 23.5 -64t32.5 -40q-8 -3 -22.5 -8.5t-31.5 -14.5t-35 -22t-32 -32q-17 19 -38.5 33t-41.5 23t-37 14t-24 7q10 15 17.5 40t12.5 53t7.5 56.5t2.5 50.5q0 21 -3.5 42.5t-9 40.5t-13 34t-15.5 23q23 35 33.5 75t10.5 88
q0 22 -2.5 50.5t-7.5 57t-12.5 53.5t-17.5 40q22 8 39 14.5t32.5 15t32 19.5t37.5 28q13 -12 25.5 -22t26.5 -19t30.5 -17.5t38.5 -18.5q-27 -34 -43 -71q19 -10 60.5 -23t91.5 -24.5t101.5 -19.5t92.5 -8q14 0 27 1t27 3q-5 -11 -13 -26t-18.5 -30t-24.5 -29t-30 -24
q-5 -32 -7.5 -63t-2.5 -60q0 -42 7 -72t25 -66q-32 -9 -56 -19.5t-42.5 -23.5t-34 -29.5t-30.5 -36.5zM242 230q10 1 21 1.5t24 0.5q41 0 80.5 -5.5t55.5 -15.5q5 11 14 20.5t17 14.5q-1 14 -1.5 40t-1.5 56t-1.5 60.5t-1.5 53.5q-32 5 -58 11.5t-50 14t-47 15.5t-48 15
q-2 -17 -2 -33.5t-1 -32.5v-216z" />
    <glyph glyph-name="germandbls" unicode="&#xdf;" horiz-adv-x="519" 
d="M48 -119q13 26 15.5 55.5t2.5 57.5v627q54 42 96.5 80t84.5 87q16 -8 42 -16.5t56.5 -16.5t61.5 -14.5t58 -10.5q-4 -11 -6 -21t-2.5 -22t-0.5 -27.5v-36.5v-37.5t0.5 -39t1 -32t2.5 -16.5l-128 -100v-8l147 -83q-2 -11 -3.5 -33.5t-2 -49t-1 -51t-0.5 -38.5
q0 -29 1.5 -51t5.5 -38q-18 -9 -49 -22t-66 -26.5t-70 -26.5t-60 -22l-8 3q15 7 36 21t40.5 34t33.5 45.5t14 55.5v154q-17 12 -31 22t-28 19.5t-29 19t-34 20.5v81l128 111v102l-165 51v-695q0 -30 4 -58.5t13 -53.5h-160z" />
    <glyph glyph-name="agrave" unicode="&#xe0;" horiz-adv-x="478" 
d="M180 94q22 -2 45.5 -3t58.5 -9v141q-29 -11 -56 -18.5t-46 -9.5zM438 413q-16 -23 -20.5 -61t-4.5 -111q0 -48 2.5 -76.5t7.5 -45t14 -23t22 -9.5v-11q-14 -5 -29.5 -17.5t-30.5 -27.5t-27 -31t-18 -28q-21 14 -38 37t-27 46l-69 -83q-38 23 -83.5 35t-103.5 13
q10 26 12 65.5t2 79.5q0 24 -3 45.5t-10 38.5q22 -3 48 -3q28 0 57.5 2.5t56.5 7.5t49.5 11.5t37.5 14.5v99q-34 -15 -71 -25t-61 -10q-17 0 -31.5 3.5t-26.5 14t-21.5 29.5t-16.5 49q6 0 8.5 -0.5t14.5 -0.5q72 0 124 13t81 30q33 -36 68.5 -53.5t86.5 -17.5zM319 617
q-15 -12 -22.5 -20.5t-23.5 -21.5q-19 19 -40.5 39t-42 38t-37 31.5t-25.5 19.5l19.5 13t28 20.5t27.5 22.5t19 19q9 -18 22.5 -41t27.5 -45.5t26.5 -42.5t20.5 -32z" />
    <glyph glyph-name="aacute" unicode="&#xe1;" horiz-adv-x="478" 
d="M180 94q22 -2 45.5 -3t58.5 -9v141q-29 -11 -56 -18.5t-46 -9.5zM438 413q-16 -23 -20.5 -61t-4.5 -111q0 -48 2.5 -76.5t7.5 -45t14 -23t22 -9.5v-11q-14 -5 -29.5 -17.5t-30.5 -27.5t-27 -31t-18 -28q-21 14 -38 37t-27 46l-69 -83q-38 23 -83.5 35t-103.5 13
q10 26 12 65.5t2 79.5q0 24 -3 45.5t-10 38.5q22 -3 48 -3q28 0 57.5 2.5t56.5 7.5t49.5 11.5t37.5 14.5v99q-34 -15 -71 -25t-61 -10q-17 0 -31.5 3.5t-26.5 14t-21.5 29.5t-16.5 49q6 0 8.5 -0.5t14.5 -0.5q72 0 124 13t81 30q33 -36 68.5 -53.5t86.5 -17.5zM187 617
q7 12 19.5 32t27 42.5t28 45.5t22.5 41q6 -8 18.5 -19t27 -22t28 -20.5t20.5 -13.5q-9 -6 -26 -19.5t-37 -31.5t-41.5 -38t-40.5 -39q-16 13 -23.5 21.5t-22.5 20.5z" />
    <glyph glyph-name="acircumflex" unicode="&#xe2;" horiz-adv-x="478" 
d="M180 94q22 -2 45.5 -3t58.5 -9v141q-29 -11 -56 -18.5t-46 -9.5zM438 413q-16 -23 -20.5 -61t-4.5 -111q0 -48 2.5 -76.5t7.5 -45t14 -23t22 -9.5v-11q-14 -5 -29.5 -17.5t-30.5 -27.5t-27 -31t-18 -28q-21 14 -38 37t-27 46l-69 -83q-38 23 -83.5 35t-103.5 13
q10 26 12 65.5t2 79.5q0 24 -3 45.5t-10 38.5q22 -3 48 -3q28 0 57.5 2.5t56.5 7.5t49.5 11.5t37.5 14.5v99q-34 -15 -71 -25t-61 -10q-17 0 -31.5 3.5t-26.5 14t-21.5 29.5t-16.5 49q6 0 8.5 -0.5t14.5 -0.5q72 0 124 13t81 30q33 -36 68.5 -53.5t86.5 -17.5zM388 617
q-15 -12 -23 -20t-23 -22q-24 19 -51.5 39.5t-52.5 38.5q-26 -18 -54 -38.5t-51 -39.5q-16 13 -23.5 21.5t-22.5 20.5q35 35 73.5 75.5t76.5 85.5q66 -70 101.5 -108t49.5 -53z" />
    <glyph glyph-name="atilde" unicode="&#xe3;" horiz-adv-x="478" 
d="M180 94q22 -2 45.5 -3t58.5 -9v141q-29 -11 -56 -18.5t-46 -9.5zM438 413q-16 -23 -20.5 -61t-4.5 -111q0 -48 2.5 -76.5t7.5 -45t14 -23t22 -9.5v-11q-14 -5 -29.5 -17.5t-30.5 -27.5t-27 -31t-18 -28q-21 14 -38 37t-27 46l-69 -83q-38 23 -83.5 35t-103.5 13
q10 26 12 65.5t2 79.5q0 24 -3 45.5t-10 38.5q22 -3 48 -3q28 0 57.5 2.5t56.5 7.5t49.5 11.5t37.5 14.5v99q-34 -15 -71 -25t-61 -10q-17 0 -31.5 3.5t-26.5 14t-21.5 29.5t-16.5 49q6 0 8.5 -0.5t14.5 -0.5q72 0 124 13t81 30q33 -36 68.5 -53.5t86.5 -17.5zM70 691
q31 3 65.5 24t57.5 46l91 -71q35 5 64.5 25.5t58.5 46.5v-118q-42 -1 -72.5 -21t-49.5 -48l-93 71q-51 0 -79.5 -22.5t-42.5 -48.5v116z" />
    <glyph glyph-name="adieresis" unicode="&#xe4;" horiz-adv-x="478" 
d="M180 94q22 -2 45.5 -3t58.5 -9v141q-29 -11 -56 -18.5t-46 -9.5zM438 413q-16 -23 -20.5 -61t-4.5 -111q0 -48 2.5 -76.5t7.5 -45t14 -23t22 -9.5v-11q-14 -5 -29.5 -17.5t-30.5 -27.5t-27 -31t-18 -28q-21 14 -38 37t-27 46l-69 -83q-38 23 -83.5 35t-103.5 13
q10 26 12 65.5t2 79.5q0 24 -3 45.5t-10 38.5q22 -3 48 -3q28 0 57.5 2.5t56.5 7.5t49.5 11.5t37.5 14.5v99q-34 -15 -71 -25t-61 -10q-17 0 -31.5 3.5t-26.5 14t-21.5 29.5t-16.5 49q6 0 8.5 -0.5t14.5 -0.5q72 0 124 13t81 30q33 -36 68.5 -53.5t86.5 -17.5zM39 650
q17 29 41.5 57.5t54.5 44.5q6 -8 18.5 -19t27 -22t28 -20.5t20.5 -13.5q-34 -24 -57.5 -46.5t-40.5 -56.5q-6 7 -18.5 17.5t-26.5 21.5t-27 21t-20 16zM269 650q17 29 41.5 57.5t54.5 44.5q6 -8 18.5 -19t27 -22t28 -20.5t20.5 -13.5q-34 -24 -57.5 -46.5t-40.5 -56.5
q-6 7 -18.5 17.5t-26.5 21.5t-27 21t-20 16z" />
    <glyph glyph-name="aring" unicode="&#xe5;" horiz-adv-x="478" 
d="M180 94q22 -2 45.5 -3t58.5 -9v141q-29 -11 -56 -18.5t-46 -9.5zM438 413q-16 -23 -20.5 -61t-4.5 -111q0 -48 2.5 -76.5t7.5 -45t14 -23t22 -9.5v-11q-14 -5 -29.5 -17.5t-30.5 -27.5t-27 -31t-18 -28q-21 14 -38 37t-27 46l-69 -83q-38 23 -83.5 35t-103.5 13
q10 26 12 65.5t2 79.5q0 24 -3 45.5t-10 38.5q22 -3 48 -3q28 0 57.5 2.5t56.5 7.5t49.5 11.5t37.5 14.5v99q-34 -15 -71 -25t-61 -10q-17 0 -31.5 3.5t-26.5 14t-21.5 29.5t-16.5 49q6 0 8.5 -0.5t14.5 -0.5q72 0 124 13t81 30q33 -36 68.5 -53.5t86.5 -17.5zM234 784
q28 0 48.5 -9t34 -23t20 -33t6.5 -38q0 -20 -6.5 -39t-20 -34t-33 -24t-45.5 -9q-29 0 -50 9t-35 23.5t-21 33t-7 38.5q0 19 7 38t20.5 34t34 24t47.5 9zM234 727q-24 0 -37 -15.5t-13 -32.5t13 -32t39 -15q23 0 35 15.5t12 32.5t-12 32t-37 15z" />
    <glyph glyph-name="ae" unicode="&#xe6;" horiz-adv-x="711" 
d="M486 -32q-23 17 -55.5 33t-67.5 25q-30 -8 -65.5 -18t-77.5 -36q-38 23 -83.5 35t-103.5 13q10 26 12 65.5t2 79.5q0 24 -3 45.5t-10 38.5q22 -3 48 -3q28 0 57.5 2.5t56.5 7.5t49.5 11.5t37.5 14.5v99q-34 -15 -71 -25t-61 -10q-17 0 -31.5 3.5t-26.5 14t-21.5 29.5
t-16.5 49q6 0 8.5 -0.5t14.5 -0.5q72 0 124 13t81 30q38 -41 81 -59q17 11 35 25.5t37 33.5q41 -8 101 -13.5t119 -7.5q-3 -18 -3 -45q0 -21 2 -45.5t5 -48.5t8 -46t11 -38q-61 -5 -124 -13.5t-123 -18.5v-28t-0.5 -35.5t-1.5 -35.5t-3 -27q9 -2 26.5 -2.5t37.5 -1t41 -1
t36 -1.5q5 31 24.5 53t66.5 36q-1 -12 -1 -23.5v-22.5q0 -34 2.5 -53.5t9.5 -38.5q-19 -2 -45 -7.5t-52 -14t-49.5 -18t-37.5 -19.5zM427 392q2 -45 3.5 -75.5t2.5 -55.5l117 29q-5 20 -8.5 42t-3.5 45q-23 0 -53.5 4t-57.5 11zM180 94q22 -2 45.5 -3t58.5 -9v141
q-29 -11 -56 -18.5t-46 -9.5z" />
    <glyph glyph-name="ccedilla" unicode="&#xe7;" horiz-adv-x="448" 
d="M186 -116q1 11 1 23v23v77q-40 11 -82 18t-75 8q7 10 12.5 30t9.5 46.5t6 57.5t2 64q0 54 -5.5 101.5t-16.5 82.5q54 9 111 27.5t106 41.5q33 -21 77 -37t89 -24q-19 -38 -52.5 -61.5t-68.5 -23.5q-23 0 -55 16t-63 45q5 -38 7.5 -75.5t2.5 -75.5q0 -33 -2.5 -72.5
t-7.5 -70.5q22 -9 56.5 -17t62.5 -10q6 38 31.5 66.5t67.5 40.5q-1 -8 -1 -22v-34q0 -38 3.5 -61t8.5 -40q-16 -3 -34.5 -9.5t-36 -15t-32 -17.5t-21.5 -17q-5 4 -11.5 7t-14.5 7v-62h61l42 -31v-29.5t0.5 -45t1.5 -42.5t3 -21q-15 0 -33.5 -3t-37 -8.5t-34.5 -11.5t-25 -12
q-26 32 -61 32q-9 0 -18.5 -2t-19.5 -7q12 31 32.5 46t41.5 15q7 0 17.5 -1.5t21.5 -4t21 -6.5t16 -10q0 3 -0.5 11.5t-0.5 20.5t-0.5 26t-0.5 28q-14 2 -24 3t-21 1q-24 0 -39 -4z" />
    <glyph glyph-name="egrave" unicode="&#xe8;" horiz-adv-x="461" 
d="M236 -32q-19 14 -47 26t-57.5 20.5t-57 13.5t-45.5 5q8 13 14 36.5t9.5 51t5 56.5t1.5 53q0 61 -7.5 101.5t-14.5 63.5q43 8 78.5 31t70.5 58q41 -8 101 -13.5t119 -7.5q-3 -18 -3 -45q0 -21 2 -45.5t5 -48.5t8 -46t11 -38q-61 -5 -124 -13.5t-123 -18.5q-1 -29 -4 -57
t-5 -49q12 -5 30.5 -9t39.5 -7.5t41 -6t34 -3.5q5 31 24.5 53t66.5 36q-1 -12 -1 -23.5v-22.5q0 -34 2.5 -53.5t9.5 -38.5q-19 -2 -45 -7.5t-52 -14t-49.5 -18t-37.5 -19.5zM172 394q5 -42 7.5 -74t3.5 -59l117 29q-5 20 -8.5 42t-3.5 45q-23 0 -55.5 4.5t-60.5 12.5z
M302 617q-15 -12 -22.5 -20.5t-23.5 -21.5q-19 19 -40.5 39t-42 38t-37 31.5t-25.5 19.5l19.5 13t28 20.5t27.5 22.5t19 19q9 -18 22.5 -41t27.5 -45.5t26.5 -42.5t20.5 -32z" />
    <glyph glyph-name="eacute" unicode="&#xe9;" horiz-adv-x="461" 
d="M236 -32q-19 14 -47 26t-57.5 20.5t-57 13.5t-45.5 5q8 13 14 36.5t9.5 51t5 56.5t1.5 53q0 61 -7.5 101.5t-14.5 63.5q43 8 78.5 31t70.5 58q41 -8 101 -13.5t119 -7.5q-3 -18 -3 -45q0 -21 2 -45.5t5 -48.5t8 -46t11 -38q-61 -5 -124 -13.5t-123 -18.5q-1 -29 -4 -57
t-5 -49q12 -5 30.5 -9t39.5 -7.5t41 -6t34 -3.5q5 31 24.5 53t66.5 36q-1 -12 -1 -23.5v-22.5q0 -34 2.5 -53.5t9.5 -38.5q-19 -2 -45 -7.5t-52 -14t-49.5 -18t-37.5 -19.5zM172 394q5 -42 7.5 -74t3.5 -59l117 29q-5 20 -8.5 42t-3.5 45q-23 0 -55.5 4.5t-60.5 12.5z
M160 617q7 12 19.5 32t27 42.5t28 45.5t22.5 41q6 -8 18.5 -19t27 -22t28 -20.5t20.5 -13.5q-9 -6 -26 -19.5t-37 -31.5t-41.5 -38t-40.5 -39q-16 13 -23.5 21.5t-22.5 20.5z" />
    <glyph glyph-name="ecircumflex" unicode="&#xea;" horiz-adv-x="461" 
d="M236 -32q-19 14 -47 26t-57.5 20.5t-57 13.5t-45.5 5q8 13 14 36.5t9.5 51t5 56.5t1.5 53q0 61 -7.5 101.5t-14.5 63.5q43 8 78.5 31t70.5 58q41 -8 101 -13.5t119 -7.5q-3 -18 -3 -45q0 -21 2 -45.5t5 -48.5t8 -46t11 -38q-61 -5 -124 -13.5t-123 -18.5q-1 -29 -4 -57
t-5 -49q12 -5 30.5 -9t39.5 -7.5t41 -6t34 -3.5q5 31 24.5 53t66.5 36q-1 -12 -1 -23.5v-22.5q0 -34 2.5 -53.5t9.5 -38.5q-19 -2 -45 -7.5t-52 -14t-49.5 -18t-37.5 -19.5zM172 394q5 -42 7.5 -74t3.5 -59l117 29q-5 20 -8.5 42t-3.5 45q-23 0 -55.5 4.5t-60.5 12.5z
M391 617q-15 -12 -23 -20t-23 -22q-24 19 -51.5 39.5t-52.5 38.5q-26 -18 -54 -38.5t-51 -39.5q-16 13 -23.5 21.5t-22.5 20.5q35 35 73.5 75.5t76.5 85.5q66 -70 101.5 -108t49.5 -53z" />
    <glyph glyph-name="edieresis" unicode="&#xeb;" horiz-adv-x="461" 
d="M236 -32q-19 14 -47 26t-57.5 20.5t-57 13.5t-45.5 5q8 13 14 36.5t9.5 51t5 56.5t1.5 53q0 61 -7.5 101.5t-14.5 63.5q43 8 78.5 31t70.5 58q41 -8 101 -13.5t119 -7.5q-3 -18 -3 -45q0 -21 2 -45.5t5 -48.5t8 -46t11 -38q-61 -5 -124 -13.5t-123 -18.5q-1 -29 -4 -57
t-5 -49q12 -5 30.5 -9t39.5 -7.5t41 -6t34 -3.5q5 31 24.5 53t66.5 36q-1 -12 -1 -23.5v-22.5q0 -34 2.5 -53.5t9.5 -38.5q-19 -2 -45 -7.5t-52 -14t-49.5 -18t-37.5 -19.5zM172 394q5 -42 7.5 -74t3.5 -59l117 29q-5 20 -8.5 42t-3.5 45q-23 0 -55.5 4.5t-60.5 12.5z
M32 650q17 29 41.5 57.5t54.5 44.5q6 -8 18.5 -19t27 -22t28 -20.5t20.5 -13.5q-34 -24 -57.5 -46.5t-40.5 -56.5q-6 7 -18.5 17.5t-26.5 21.5t-27 21t-20 16zM262 650q17 29 41.5 57.5t54.5 44.5q6 -8 18.5 -19t27 -22t28 -20.5t20.5 -13.5q-34 -24 -57.5 -46.5
t-40.5 -56.5q-6 7 -18.5 17.5t-26.5 21.5t-27 21t-20 16z" />
    <glyph glyph-name="igrave" unicode="&#xec;" horiz-adv-x="265" 
d="M198 455v-367q0 -63 27 -73v-15q-32 -5 -60 -12t-58 -16h-5q-34 46 -34 108v348l-37 16v11q35 5 76 13.5t73 16.5zM216 617q-15 -12 -22.5 -20.5t-23.5 -21.5q-19 19 -40.5 39t-42 38t-37 31.5t-25.5 19.5l19.5 13t28 20.5t27.5 22.5t19 19q9 -18 22.5 -41t27.5 -45.5
t26.5 -42.5t20.5 -32z" />
    <glyph glyph-name="iacute" unicode="&#xed;" horiz-adv-x="265" 
d="M198 455v-367q0 -63 27 -73v-15q-32 -5 -60 -12t-58 -16h-5q-34 46 -34 108v348l-37 16v11q35 5 76 13.5t73 16.5zM44 617q7 12 19.5 32t27 42.5t28 45.5t22.5 41q6 -8 18.5 -19t27 -22t28 -20.5t20.5 -13.5q-9 -6 -26 -19.5t-37 -31.5t-41.5 -38t-40.5 -39
q-16 13 -23.5 21.5t-22.5 20.5z" />
    <glyph glyph-name="icircumflex" unicode="&#xee;" horiz-adv-x="265" 
d="M198 455v-367q0 -63 27 -73v-15q-32 -5 -60 -12t-58 -16h-5q-34 46 -34 108v348l-37 16v11q35 5 76 13.5t73 16.5zM285 617q-15 -12 -23 -20t-23 -22q-24 19 -51.5 39.5t-52.5 38.5q-26 -18 -54 -38.5t-51 -39.5q-16 13 -23.5 21.5t-22.5 20.5q35 35 73.5 75.5t76.5 85.5
q66 -70 101.5 -108t49.5 -53z" />
    <glyph glyph-name="idieresis" unicode="&#xef;" horiz-adv-x="265" 
d="M198 455v-367q0 -63 27 -73v-15q-32 -5 -60 -12t-58 -16h-5q-34 46 -34 108v348l-37 16v11q35 5 76 13.5t73 16.5zM-74 650q17 29 41.5 57.5t54.5 44.5q6 -8 18.5 -19t27 -22t28 -20.5t20.5 -13.5q-34 -24 -57.5 -46.5t-40.5 -56.5q-6 7 -18.5 17.5t-26.5 21.5t-27 21
t-20 16zM156 650q17 29 41.5 57.5t54.5 44.5q6 -8 18.5 -19t27 -22t28 -20.5t20.5 -13.5q-34 -24 -57.5 -46.5t-40.5 -56.5q-6 7 -18.5 17.5t-26.5 21.5t-27 21t-20 16z" />
    <glyph glyph-name="eth" unicode="&#xf0;" horiz-adv-x="518" 
d="M258 788q49 -48 93 -117l112 24l18 -66l-95 -20q35 -66 57.5 -141t27.5 -150q-2 -22 -3.5 -43.5t-1.5 -43.5q0 -35 3 -71.5t8 -74.5q-25 -3 -53 -13t-56 -25t-54 -34.5t-47 -40.5q-11 9 -38 18.5t-59 17.5t-64 13t-53 5q-6 0 -11.5 -0.5t-10.5 -1.5q14 12 20.5 47.5
t6.5 92.5q0 29 -2 63.5t-5.5 65.5t-7.5 53t-8 27l30 22.5t36.5 28.5t36 30t29.5 27l168 -61q-12 37 -27.5 78.5t-37.5 86.5l-111 -22l-13 66l89 18q-24 40 -54 76t-68 65h145zM335 357q-46 4 -90 13.5t-67 21.5q5 -42 7 -78.5t2 -73.5q0 -29 -1.5 -65.5t-3.5 -71.5
q34 -4 75 -11t76 -18z" />
    <glyph glyph-name="ntilde" unicode="&#xf1;" horiz-adv-x="520" 
d="M199 372q43 28 77 56t70 66q17 -16 31 -28.5t28.5 -22.5t30.5 -19.5t37 -19.5q-4 -14 -6.5 -29.5t-4 -39.5t-2.5 -59t-1 -87q0 -44 0.5 -72.5t1.5 -46.5t3 -29.5t4 -21.5q-20 -7 -40.5 -19t-41 -27t-38.5 -31t-32 -31l-6 6q6 20 11 49.5t8 59t5 54.5t2 36q0 57 -0.5 114
t-0.5 114l-13 14l-123 -55v-215q0 -63 27 -73v-15h-184v15q12 5 19.5 20.5t7.5 43.5v349l-37 16v11q35 5 76 13.5t73 16.5l18 -30v-83zM105 691q31 3 65.5 24t57.5 46l91 -71q35 5 64.5 25.5t58.5 46.5v-118q-42 -1 -72.5 -21t-49.5 -48l-93 71q-51 0 -79.5 -22.5
t-42.5 -48.5v116z" />
    <glyph glyph-name="ograve" unicode="&#xf2;" horiz-adv-x="511" 
d="M214 484q69 -23 115 -31t85 -8q22 0 33.5 0.5t22.5 2.5q-12 -65 -12 -153q0 -108 18 -210q-25 -3 -53 -13t-56 -25t-54 -34.5t-47 -40.5q-11 9 -38 18.5t-59 17.5t-64 13t-53 5q-6 0 -11.5 -0.5t-10.5 -1.5q14 12 20.5 47.5t6.5 92.5q0 29 -2 63.5t-5.5 65.5t-7.5 53
t-8 27q39 7 87 36.5t93 74.5zM334 357q-46 4 -90 13.5t-67 21.5q5 -42 7 -78.5t2 -73.5q0 -29 -1.5 -65.5t-3.5 -71.5q34 -4 75 -11t76 -18zM332 617q-15 -12 -22.5 -20.5t-23.5 -21.5q-19 19 -40.5 39t-42 38t-37 31.5t-25.5 19.5l19.5 13t28 20.5t27.5 22.5t19 19
q9 -18 22.5 -41t27.5 -45.5t26.5 -42.5t20.5 -32z" />
    <glyph glyph-name="oacute" unicode="&#xf3;" horiz-adv-x="511" 
d="M214 484q69 -23 115 -31t85 -8q22 0 33.5 0.5t22.5 2.5q-12 -65 -12 -153q0 -108 18 -210q-25 -3 -53 -13t-56 -25t-54 -34.5t-47 -40.5q-11 9 -38 18.5t-59 17.5t-64 13t-53 5q-6 0 -11.5 -0.5t-10.5 -1.5q14 12 20.5 47.5t6.5 92.5q0 29 -2 63.5t-5.5 65.5t-7.5 53
t-8 27q39 7 87 36.5t93 74.5zM334 357q-46 4 -90 13.5t-67 21.5q5 -42 7 -78.5t2 -73.5q0 -29 -1.5 -65.5t-3.5 -71.5q34 -4 75 -11t76 -18zM179 617q7 12 19.5 32t27 42.5t28 45.5t22.5 41q6 -8 18.5 -19t27 -22t28 -20.5t20.5 -13.5q-9 -6 -26 -19.5t-37 -31.5t-41.5 -38
t-40.5 -39q-16 13 -23.5 21.5t-22.5 20.5z" />
    <glyph glyph-name="ocircumflex" unicode="&#xf4;" horiz-adv-x="511" 
d="M214 484q69 -23 115 -31t85 -8q22 0 33.5 0.5t22.5 2.5q-12 -65 -12 -153q0 -108 18 -210q-25 -3 -53 -13t-56 -25t-54 -34.5t-47 -40.5q-11 9 -38 18.5t-59 17.5t-64 13t-53 5q-6 0 -11.5 -0.5t-10.5 -1.5q14 12 20.5 47.5t6.5 92.5q0 29 -2 63.5t-5.5 65.5t-7.5 53
t-8 27q39 7 87 36.5t93 74.5zM334 357q-46 4 -90 13.5t-67 21.5q5 -42 7 -78.5t2 -73.5q0 -29 -1.5 -65.5t-3.5 -71.5q34 -4 75 -11t76 -18zM411 617q-15 -12 -23 -20t-23 -22q-24 19 -51.5 39.5t-52.5 38.5q-26 -18 -54 -38.5t-51 -39.5q-16 13 -23.5 21.5t-22.5 20.5
q35 35 73.5 75.5t76.5 85.5q66 -70 101.5 -108t49.5 -53z" />
    <glyph glyph-name="otilde" unicode="&#xf5;" horiz-adv-x="511" 
d="M214 484q69 -23 115 -31t85 -8q22 0 33.5 0.5t22.5 2.5q-12 -65 -12 -153q0 -108 18 -210q-25 -3 -53 -13t-56 -25t-54 -34.5t-47 -40.5q-11 9 -38 18.5t-59 17.5t-64 13t-53 5q-6 0 -11.5 -0.5t-10.5 -1.5q14 12 20.5 47.5t6.5 92.5q0 29 -2 63.5t-5.5 65.5t-7.5 53
t-8 27q39 7 87 36.5t93 74.5zM334 357q-46 4 -90 13.5t-67 21.5q5 -42 7 -78.5t2 -73.5q0 -29 -1.5 -65.5t-3.5 -71.5q34 -4 75 -11t76 -18zM93 691q31 3 65.5 24t57.5 46l91 -71q35 5 64.5 25.5t58.5 46.5v-118q-42 -1 -72.5 -21t-49.5 -48l-93 71q-51 0 -79.5 -22.5
t-42.5 -48.5v116z" />
    <glyph glyph-name="odieresis" unicode="&#xf6;" horiz-adv-x="511" 
d="M214 484q69 -23 115 -31t85 -8q22 0 33.5 0.5t22.5 2.5q-12 -65 -12 -153q0 -108 18 -210q-25 -3 -53 -13t-56 -25t-54 -34.5t-47 -40.5q-11 9 -38 18.5t-59 17.5t-64 13t-53 5q-6 0 -11.5 -0.5t-10.5 -1.5q14 12 20.5 47.5t6.5 92.5q0 29 -2 63.5t-5.5 65.5t-7.5 53
t-8 27q39 7 87 36.5t93 74.5zM334 357q-46 4 -90 13.5t-67 21.5q5 -42 7 -78.5t2 -73.5q0 -29 -1.5 -65.5t-3.5 -71.5q34 -4 75 -11t76 -18zM52 650q17 29 41.5 57.5t54.5 44.5q6 -8 18.5 -19t27 -22t28 -20.5t20.5 -13.5q-34 -24 -57.5 -46.5t-40.5 -56.5q-6 7 -18.5 17.5
t-26.5 21.5t-27 21t-20 16zM282 650q17 29 41.5 57.5t54.5 44.5q6 -8 18.5 -19t27 -22t28 -20.5t20.5 -13.5q-34 -24 -57.5 -46.5t-40.5 -56.5q-6 7 -18.5 17.5t-26.5 21.5t-27 21t-20 16z" />
    <glyph glyph-name="divide" unicode="&#xf7;" horiz-adv-x="456" 
d="M139 146q17 29 41.5 57.5t54.5 44.5q6 -8 18.5 -19t27 -22t28 -20.5t20.5 -13.5q-34 -24 -57.5 -46.5t-40.5 -56.5q-6 7 -18.5 17.5t-26.5 21.5t-27 21t-20 16zM139 547q17 29 41.5 57.5t54.5 44.5q6 -8 18.5 -19t27 -22t28 -20.5t20.5 -13.5q-34 -24 -57.5 -46.5
t-40.5 -56.5q-6 7 -18.5 17.5t-26.5 21.5t-27 21t-20 16zM39 429q26 -13 55.5 -15.5t57.5 -2.5h151q28 0 57.5 2.5t55.5 15.5v-138q-25 9 -53.5 13t-58.5 4h-153q-30 0 -58.5 -4t-53.5 -13v138z" />
    <glyph glyph-name="oslash" unicode="&#xf8;" horiz-adv-x="599" 
d="M252 484q69 -23 115 -31t85 -8q22 0 33.5 0.5t22.5 2.5q-2 -5 -2.5 -10.5t-1.5 -10.5l44 37h60l-110 -94q-1 -17 -1.5 -36t-0.5 -39q0 -108 18 -210q-25 -3 -53 -13t-56 -25t-54 -34.5t-47 -40.5q-11 9 -37 18t-57.5 16.5t-63 13t-52.5 6.5l-42 -36h-60l96 82q7 32 7 92
q0 29 -2 63.5t-5.5 65.5t-7.5 53t-8 27q39 7 87 36.5t93 74.5zM224 240v-25.5t-1 -27.5l149 127v43q-46 4 -90 13.5t-67 21.5q5 -42 7 -78.5t2 -73.5zM371 262l-150 -128l-2 -31q34 -4 75 -11t76 -18z" />
    <glyph glyph-name="ugrave" unicode="&#xf9;" 
d="M18 443q21 2 47 6.5t52 10.5t48 12.5t35 12.5q-2 -17 -3.5 -31t-2 -30t-1 -35t-0.5 -45v-202l42 -32l96 42v156q0 34 -1.5 56t-6.5 35t-13.5 19.5t-23.5 10.5v13q48 3 94.5 14t80.5 28v-236q0 -47 2 -76.5t7 -47.5t13.5 -26t22.5 -11v-11q-13 -6 -29 -18t-31 -27
t-27 -30.5t-18 -28.5q-33 28 -47.5 52t-19.5 59q-30 -15 -52.5 -28t-41 -26t-34 -27t-31.5 -30q-20 18 -35.5 30.5t-30 22.5t-29 18.5t-32.5 18.5q4 6 7.5 27t6.5 51t4.5 64.5t1.5 66.5q0 36 -2.5 62.5t-8.5 45.5t-15.5 31.5t-24.5 21.5zM341 617q-15 -12 -22.5 -20.5
t-23.5 -21.5q-19 19 -40.5 39t-42 38t-37 31.5t-25.5 19.5l19.5 13t28 20.5t27.5 22.5t19 19q9 -18 22.5 -41t27.5 -45.5t26.5 -42.5t20.5 -32z" />
    <glyph glyph-name="uacute" unicode="&#xfa;" 
d="M18 443q21 2 47 6.5t52 10.5t48 12.5t35 12.5q-2 -17 -3.5 -31t-2 -30t-1 -35t-0.5 -45v-202l42 -32l96 42v156q0 34 -1.5 56t-6.5 35t-13.5 19.5t-23.5 10.5v13q48 3 94.5 14t80.5 28v-236q0 -47 2 -76.5t7 -47.5t13.5 -26t22.5 -11v-11q-13 -6 -29 -18t-31 -27
t-27 -30.5t-18 -28.5q-33 28 -47.5 52t-19.5 59q-30 -15 -52.5 -28t-41 -26t-34 -27t-31.5 -30q-20 18 -35.5 30.5t-30 22.5t-29 18.5t-32.5 18.5q4 6 7.5 27t6.5 51t4.5 64.5t1.5 66.5q0 36 -2.5 62.5t-8.5 45.5t-15.5 31.5t-24.5 21.5zM169 617q7 12 19.5 32t27 42.5
t28 45.5t22.5 41q6 -8 18.5 -19t27 -22t28 -20.5t20.5 -13.5q-9 -6 -26 -19.5t-37 -31.5t-41.5 -38t-40.5 -39q-16 13 -23.5 21.5t-22.5 20.5z" />
    <glyph glyph-name="ucircumflex" unicode="&#xfb;" 
d="M18 443q21 2 47 6.5t52 10.5t48 12.5t35 12.5q-2 -17 -3.5 -31t-2 -30t-1 -35t-0.5 -45v-202l42 -32l96 42v156q0 34 -1.5 56t-6.5 35t-13.5 19.5t-23.5 10.5v13q48 3 94.5 14t80.5 28v-236q0 -47 2 -76.5t7 -47.5t13.5 -26t22.5 -11v-11q-13 -6 -29 -18t-31 -27
t-27 -30.5t-18 -28.5q-33 28 -47.5 52t-19.5 59q-30 -15 -52.5 -28t-41 -26t-34 -27t-31.5 -30q-20 18 -35.5 30.5t-30 22.5t-29 18.5t-32.5 18.5q4 6 7.5 27t6.5 51t4.5 64.5t1.5 66.5q0 36 -2.5 62.5t-8.5 45.5t-15.5 31.5t-24.5 21.5zM410 617q-15 -12 -23 -20t-23 -22
q-24 19 -51.5 39.5t-52.5 38.5q-26 -18 -54 -38.5t-51 -39.5q-16 13 -23.5 21.5t-22.5 20.5q35 35 73.5 75.5t76.5 85.5q66 -70 101.5 -108t49.5 -53z" />
    <glyph glyph-name="udieresis" unicode="&#xfc;" 
d="M18 443q21 2 47 6.5t52 10.5t48 12.5t35 12.5q-2 -17 -3.5 -31t-2 -30t-1 -35t-0.5 -45v-202l42 -32l96 42v156q0 34 -1.5 56t-6.5 35t-13.5 19.5t-23.5 10.5v13q48 3 94.5 14t80.5 28v-236q0 -47 2 -76.5t7 -47.5t13.5 -26t22.5 -11v-11q-13 -6 -29 -18t-31 -27
t-27 -30.5t-18 -28.5q-33 28 -47.5 52t-19.5 59q-30 -15 -52.5 -28t-41 -26t-34 -27t-31.5 -30q-20 18 -35.5 30.5t-30 22.5t-29 18.5t-32.5 18.5q4 6 7.5 27t6.5 51t4.5 64.5t1.5 66.5q0 36 -2.5 62.5t-8.5 45.5t-15.5 31.5t-24.5 21.5zM51 650q17 29 41.5 57.5t54.5 44.5
q6 -8 18.5 -19t27 -22t28 -20.5t20.5 -13.5q-34 -24 -57.5 -46.5t-40.5 -56.5q-6 7 -18.5 17.5t-26.5 21.5t-27 21t-20 16zM281 650q17 29 41.5 57.5t54.5 44.5q6 -8 18.5 -19t27 -22t28 -20.5t20.5 -13.5q-34 -24 -57.5 -46.5t-40.5 -56.5q-6 7 -18.5 17.5t-26.5 21.5
t-27 21t-20 16z" />
    <glyph glyph-name="yacute" unicode="&#xfd;" horiz-adv-x="532" 
d="M21 443q21 2 47 6.5t52 10.5t48 12.5t35 12.5q-2 -17 -3.5 -31t-2 -30t-1 -35t-0.5 -45v-182l42 -32l96 42v136q0 34 -1.5 56t-6.5 35t-13.5 19.5t-23.5 10.5v13q48 3 94.5 14t80.5 28v-460q0 -63 1.5 -105.5t6.5 -63.5q-28 0 -61 -8.5t-66.5 -23.5t-65.5 -35.5
t-57 -44.5q-57 42 -106 61t-103 19q8 42 25.5 76.5t40.5 56.5q11 -1 34.5 -10.5t51.5 -24.5t55.5 -32t47.5 -33l75 24q-2 13 -3.5 28.5t-3 40t-2 61t-0.5 92.5q-29 -15 -51 -28t-40 -26t-33.5 -26.5t-31.5 -29.5q-20 18 -35.5 30.5t-30 22.5t-29 18.5t-32.5 18.5
q4 5 7.5 25.5t6.5 49t4.5 61.5t1.5 63q0 34 -2.5 59t-8.5 42.5t-15.5 29t-24.5 20.5zM206 617q7 12 19.5 32t27 42.5t28 45.5t22.5 41q6 -8 18.5 -19t27 -22t28 -20.5t20.5 -13.5q-9 -6 -26 -19.5t-37 -31.5t-41.5 -38t-40.5 -39q-16 13 -23.5 21.5t-22.5 20.5z" />
    <glyph glyph-name="thorn" unicode="&#xfe;" horiz-adv-x="532" 
d="M66 605q0 25 -1 45t-4.5 37t-9.5 33t-15 33q20 -7 47 -7q33 0 69.5 11t78.5 31q-20 -24 -27.5 -64t-7.5 -92v-223q35 24 87.5 44.5t101.5 32.5q24 -26 52 -43t57 -25q-11 -42 -13 -79.5t-2 -75.5q0 -47 1 -82t3 -60t5 -40.5t8 -24.5q-45 -8 -91.5 -30.5t-92.5 -54.5
q-31 13 -58.5 20t-57.5 10v-101q0 -26 1.5 -45.5t4.5 -37t9 -33t15 -32.5q-20 7 -47 7q-33 0 -69.5 -11t-78.5 -31q20 24 27.5 64t7.5 92v732zM279 70q12 11 32.5 24.5t36.5 20.5q-2 22 -2.5 59.5t-0.5 71.5q0 32 1.5 64t3.5 59q-20 -1 -42.5 -5.5t-43.5 -10.5t-39 -13.5
t-29 -14.5v-235q16 -1 40 -7t43 -13z" />
    <glyph glyph-name="ydieresis" unicode="&#xff;" horiz-adv-x="532" 
d="M21 443q21 2 47 6.5t52 10.5t48 12.5t35 12.5q-2 -17 -3.5 -31t-2 -30t-1 -35t-0.5 -45v-182l42 -32l96 42v136q0 34 -1.5 56t-6.5 35t-13.5 19.5t-23.5 10.5v13q48 3 94.5 14t80.5 28v-460q0 -63 1.5 -105.5t6.5 -63.5q-28 0 -61 -8.5t-66.5 -23.5t-65.5 -35.5
t-57 -44.5q-57 42 -106 61t-103 19q8 42 25.5 76.5t40.5 56.5q11 -1 34.5 -10.5t51.5 -24.5t55.5 -32t47.5 -33l75 24q-2 13 -3.5 28.5t-3 40t-2 61t-0.5 92.5q-29 -15 -51 -28t-40 -26t-33.5 -26.5t-31.5 -29.5q-20 18 -35.5 30.5t-30 22.5t-29 18.5t-32.5 18.5
q4 5 7.5 25.5t6.5 49t4.5 61.5t1.5 63q0 34 -2.5 59t-8.5 42.5t-15.5 29t-24.5 20.5zM58 650q17 29 41.5 57.5t54.5 44.5q6 -8 18.5 -19t27 -22t28 -20.5t20.5 -13.5q-34 -24 -57.5 -46.5t-40.5 -56.5q-6 7 -18.5 17.5t-26.5 21.5t-27 21t-20 16zM288 650q17 29 41.5 57.5
t54.5 44.5q6 -8 18.5 -19t27 -22t28 -20.5t20.5 -13.5q-34 -24 -57.5 -46.5t-40.5 -56.5q-6 7 -18.5 17.5t-26.5 21.5t-27 21t-20 16z" />
    <glyph glyph-name="Amacron" unicode="&#x100;" horiz-adv-x="730" 
d="M823 -56q-57 20 -112.5 43.5t-109.5 55.5q-13 -13 -23 -22t-21 -15.5t-23.5 -11t-29.5 -8.5q10 12 14 29t4 35q0 29 -7.5 56.5t-13.5 46.5l-24 76q-29 -38 -57.5 -84t-49.5 -88q-17 24 -45.5 68t-63.5 95l-16 -52q-6 -20 -9.5 -40t-3.5 -41q0 -31 8 -61t26 -56
q-20 7 -33.5 14t-25 16t-23 19.5t-26.5 24.5q-42 -40 -83 -56.5t-92 -17.5q19 3 40 24.5t41 56t38.5 78.5t32.5 93l32 112q-35 37 -76 63.5t-74 26.5h-5t-12 -1l-1 3q43 22 80 22q25 0 51 -9.5t60 -28.5l54 185q5 17 7 30t2 21q0 21 -12.5 30t-44.5 9q-20 0 -43 -3t-55 -9
q6 9 29 21t55.5 23t70 18.5t72.5 7.5q26 0 50 -6t36 -21q18 1 39 5t40 9.5t34 11t20 8.5q-14 -20 -20.5 -47.5t-6.5 -59.5q0 -41 9 -85.5t21.5 -82.5t26.5 -65t24 -33q0 -59 20.5 -125t53 -126t73 -107.5t79.5 -71.5zM369 221q17 23 38.5 49.5t39.5 52.5l-77 250l-79 -258
q20 -21 40.5 -47t37.5 -47zM207 921q26 -13 55.5 -15.5t57.5 -2.5h101q28 0 57.5 2.5t55.5 15.5q-2 -14 -3 -27t-1 -27t1 -27t3 -27q-25 9 -53.5 13t-58.5 4h-103q-30 0 -58.5 -4t-53.5 -13q2 14 3 27t1 27t-1 27t-3 27z" />
    <glyph glyph-name="amacron" unicode="&#x101;" horiz-adv-x="478" 
d="M180 94q22 -2 45.5 -3t58.5 -9v141q-29 -11 -56 -18.5t-46 -9.5zM438 413q-16 -23 -20.5 -61t-4.5 -111q0 -48 2.5 -76.5t7.5 -45t14 -23t22 -9.5v-11q-14 -5 -29.5 -17.5t-30.5 -27.5t-27 -31t-18 -28q-21 14 -38 37t-27 46l-69 -83q-38 23 -83.5 35t-103.5 13
q10 26 12 65.5t2 79.5q0 24 -3 45.5t-10 38.5q22 -3 48 -3q28 0 57.5 2.5t56.5 7.5t49.5 11.5t37.5 14.5v99q-34 -15 -71 -25t-61 -10q-17 0 -31.5 3.5t-26.5 14t-21.5 29.5t-16.5 49q6 0 8.5 -0.5t14.5 -0.5q72 0 124 13t81 30q33 -36 68.5 -53.5t86.5 -17.5zM75 735
q26 -13 55.5 -15.5t57.5 -2.5h101q28 0 57.5 2.5t55.5 15.5q-2 -14 -3 -27t-1 -27t1 -27t3 -27q-25 9 -53.5 13t-58.5 4h-103q-30 0 -58.5 -4t-53.5 -13q2 14 3 27t1 27t-1 27t-3 27z" />
    <glyph glyph-name="Abreve" unicode="&#x102;" horiz-adv-x="730" 
d="M823 -56q-57 20 -112.5 43.5t-109.5 55.5q-13 -13 -23 -22t-21 -15.5t-23.5 -11t-29.5 -8.5q10 12 14 29t4 35q0 29 -7.5 56.5t-13.5 46.5l-24 76q-29 -38 -57.5 -84t-49.5 -88q-17 24 -45.5 68t-63.5 95l-16 -52q-6 -20 -9.5 -40t-3.5 -41q0 -31 8 -61t26 -56
q-20 7 -33.5 14t-25 16t-23 19.5t-26.5 24.5q-42 -40 -83 -56.5t-92 -17.5q19 3 40 24.5t41 56t38.5 78.5t32.5 93l32 112q-35 37 -76 63.5t-74 26.5h-5t-12 -1l-1 3q43 22 80 22q25 0 51 -9.5t60 -28.5l54 185q5 17 7 30t2 21q0 21 -12.5 30t-44.5 9q-20 0 -43 -3t-55 -9
q6 9 29 21t55.5 23t70 18.5t72.5 7.5q26 0 50 -6t36 -21q18 1 39 5t40 9.5t34 11t20 8.5q-14 -20 -20.5 -47.5t-6.5 -59.5q0 -41 9 -85.5t21.5 -82.5t26.5 -65t24 -33q0 -59 20.5 -125t53 -126t73 -107.5t79.5 -71.5zM369 221q17 23 38.5 49.5t39.5 52.5l-77 250l-79 -258
q20 -21 40.5 -47t37.5 -47zM511 900q-5 -24 -18.5 -42.5t-33 -30.5t-43 -18.5t-47.5 -6.5q-23 0 -45 6t-41 18t-32.5 30.5t-19.5 43.5q12 4 21.5 7.5t17.5 7t15.5 8l17.5 10.5q2 -33 21.5 -49.5t43.5 -16.5q25 0 46.5 16.5t24.5 48.5q20 -14 36 -20.5t36 -11.5z" />
    <glyph glyph-name="abreve" unicode="&#x103;" horiz-adv-x="478" 
d="M180 94q22 -2 45.5 -3t58.5 -9v141q-29 -11 -56 -18.5t-46 -9.5zM438 413q-16 -23 -20.5 -61t-4.5 -111q0 -48 2.5 -76.5t7.5 -45t14 -23t22 -9.5v-11q-14 -5 -29.5 -17.5t-30.5 -27.5t-27 -31t-18 -28q-21 14 -38 37t-27 46l-69 -83q-38 23 -83.5 35t-103.5 13
q10 26 12 65.5t2 79.5q0 24 -3 45.5t-10 38.5q22 -3 48 -3q28 0 57.5 2.5t56.5 7.5t49.5 11.5t37.5 14.5v99q-34 -15 -71 -25t-61 -10q-17 0 -31.5 3.5t-26.5 14t-21.5 29.5t-16.5 49q6 0 8.5 -0.5t14.5 -0.5q72 0 124 13t81 30q33 -36 68.5 -53.5t86.5 -17.5zM379 701
q-5 -29 -18.5 -51t-33 -37t-43 -22.5t-47.5 -7.5q-23 0 -45 7t-41 21.5t-32.5 37t-19.5 52.5q12 4 21.5 7.5t17.5 7t15.5 8l17.5 10.5q2 -45 21.5 -65.5t43.5 -20.5q25 0 46.5 21.5t24.5 63.5q20 -14 36 -20.5t36 -11.5z" />
    <glyph glyph-name="Aogonek" unicode="&#x104;" horiz-adv-x="730" 
d="M823 -56q-48 17 -96 36.5t-96 45.5l-69 -100l28 -90q6 6 17 9t23 4.5t23.5 1.5h18.5q21 0 41.5 -15t32.5 -46q-10 5 -19.5 7t-18.5 2q-35 0 -61 -32q-9 6 -25 12t-34.5 11.5t-37 8.5t-33.5 3l-40 83l81 122q-20 -12 -54 -21q10 12 14 29t4 35q0 29 -7.5 56.5t-13.5 46.5
l-24 76q-29 -38 -57.5 -84t-49.5 -88q-17 24 -45.5 68t-63.5 95l-16 -52q-6 -20 -9.5 -40t-3.5 -41q0 -31 8 -61t26 -56q-20 7 -33.5 14t-25 16t-23 19.5t-26.5 24.5q-42 -40 -83 -56.5t-92 -17.5q19 3 40 24.5t41 56t38.5 78.5t32.5 93l32 112q-35 37 -76 63.5t-74 26.5h-5
t-12 -1l-1 3q43 22 80 22q25 0 51 -9.5t60 -28.5l54 185q5 17 7 30t2 21q0 21 -12.5 30t-44.5 9q-20 0 -43 -3t-55 -9q6 9 29 21t55.5 23t70 18.5t72.5 7.5q26 0 50 -6t36 -21q18 1 39 5t40 9.5t34 11t20 8.5q-14 -20 -20.5 -47.5t-6.5 -59.5q0 -41 9 -85.5t21.5 -82.5
t26.5 -65t24 -33q0 -59 20.5 -125t53 -126t73 -107.5t79.5 -71.5zM369 221q17 23 38.5 49.5t39.5 52.5l-77 250l-79 -258q20 -21 40.5 -47t37.5 -47z" />
    <glyph glyph-name="aogonek" unicode="&#x105;" horiz-adv-x="478" 
d="M438 413q-16 -23 -20.5 -61t-4.5 -111q0 -48 2.5 -76.5t7.5 -45t14 -23t22 -9.5v-11q-14 -5 -29.5 -17.5t-30.5 -27.5t-27 -31t-18 -28l-8 6l-59 -62l28 -90q6 6 17 9t23 4.5t23.5 1.5h18.5q21 0 41.5 -15t32.5 -46q-10 5 -19.5 7t-18.5 2q-35 0 -61 -32q-9 6 -25 12
t-34.5 11.5t-37 8.5t-33.5 3l-35 138l102 88q-6 9 -11 18t-9 19l-69 -83q-38 23 -83.5 35t-103.5 13q10 26 12 65.5t2 79.5q0 24 -3 45.5t-10 38.5q22 -3 48 -3q28 0 57.5 2.5t56.5 7.5t49.5 11.5t37.5 14.5v99q-34 -15 -71 -25t-61 -10q-17 0 -31.5 3.5t-26.5 14
t-21.5 29.5t-16.5 49q6 0 8.5 -0.5t14.5 -0.5q72 0 124 13t81 30q33 -36 68.5 -53.5t86.5 -17.5zM180 94q22 -2 45.5 -3t58.5 -9v141q-29 -11 -56 -18.5t-46 -9.5z" />
    <glyph glyph-name="Cacute" unicode="&#x106;" horiz-adv-x="624" 
d="M46 0q15 9 26.5 34t20 57t12.5 66.5t4 63.5q0 45 -9.5 86t-26.5 62q16 16 26.5 42.5t16.5 57t8 62.5t2 60q0 23 -1 40t-2 26q-23 8 -47.5 33t-36.5 54q64 -7 121.5 -9.5t108.5 -2.5q109 0 176 7t106 7q8 0 14 -0.5t11 -1.5q-6 -12 -12.5 -45t-12.5 -72t-10.5 -76
t-6.5 -56l-7 -3q-35 26 -50.5 57.5t-23.5 77.5q-14 11 -35 14t-53 3q-26 0 -50 -1t-38 -1q-5 -29 -8.5 -67t-6 -81t-4 -89.5t-1.5 -92.5q0 -63 1.5 -119.5t5.5 -98.5l169 -17q14 62 49.5 110t76.5 93l6 -2q-3 -23 -4 -45.5t-1 -43.5q0 -52 5 -94t12 -63q-17 -2 -33.5 -5.5
t-35.5 -11.5t-40.5 -22t-47.5 -36q-84 25 -166 37.5t-148 12.5q-32 0 -59 -10zM250 847q12 7 37.5 19t54.5 25.5t56.5 27t44.5 24.5q2 -10 8 -26t13 -32.5t14 -31t11 -21.5q-11 -1 -36.5 -5.5t-57.5 -10.5t-65.5 -13t-58.5 -14q-8 19 -10.5 30t-10.5 28z" />
    <glyph glyph-name="cacute" unicode="&#x107;" horiz-adv-x="448" 
d="M287 -31q-18 11 -49 22.5t-67.5 20.5t-73.5 15t-67 6q7 10 12.5 30t9.5 46.5t6 57.5t2 64q0 54 -5.5 101.5t-16.5 82.5q54 9 111 27.5t106 41.5q33 -21 77 -37t89 -24q-19 -38 -52.5 -61.5t-68.5 -23.5q-23 0 -55 16t-63 45q5 -38 7.5 -75.5t2.5 -75.5q0 -33 -2.5 -72.5
t-7.5 -70.5q22 -9 56.5 -17t62.5 -10q6 38 31.5 66.5t67.5 40.5q-1 -8 -1 -22v-34q0 -38 3.5 -61t8.5 -40q-16 -3 -34.5 -9.5t-36 -15t-32 -17.5t-21.5 -17zM158 617q7 12 19.5 32t27 42.5t28 45.5t22.5 41q6 -8 18.5 -19t27 -22t28 -20.5t20.5 -13.5q-9 -6 -26 -19.5
t-37 -31.5t-41.5 -38t-40.5 -39q-16 13 -23.5 21.5t-22.5 20.5z" />
    <glyph glyph-name="Ccircumflex" unicode="&#x108;" horiz-adv-x="624" 
d="M46 0q15 9 26.5 34t20 57t12.5 66.5t4 63.5q0 45 -9.5 86t-26.5 62q16 16 26.5 42.5t16.5 57t8 62.5t2 60q0 23 -1 40t-2 26q-23 8 -47.5 33t-36.5 54q64 -7 121.5 -9.5t108.5 -2.5q109 0 176 7t106 7q8 0 14 -0.5t11 -1.5q-6 -12 -12.5 -45t-12.5 -72t-10.5 -76
t-6.5 -56l-7 -3q-35 26 -50.5 57.5t-23.5 77.5q-14 11 -35 14t-53 3q-26 0 -50 -1t-38 -1q-5 -29 -8.5 -67t-6 -81t-4 -89.5t-1.5 -92.5q0 -63 1.5 -119.5t5.5 -98.5l169 -17q14 62 49.5 110t76.5 93l6 -2q-3 -23 -4 -45.5t-1 -43.5q0 -52 5 -94t12 -63q-17 -2 -33.5 -5.5
t-35.5 -11.5t-40.5 -22t-47.5 -36q-84 25 -166 37.5t-148 12.5q-32 0 -59 -10zM490 828q-15 -12 -23 -20t-23 -22q-12 7 -28 14.5t-33 14.5t-33.5 13.5t-29.5 11.5q-14 -5 -31 -11.5t-34 -14t-32.5 -15t-27.5 -13.5q-16 13 -23.5 21.5t-22.5 20.5q35 26 81.5 55.5t88.5 61.5
q66 -45 111.5 -75t59.5 -42z" />
    <glyph glyph-name="ccircumflex" unicode="&#x109;" horiz-adv-x="448" 
d="M287 -31q-18 11 -49 22.5t-67.5 20.5t-73.5 15t-67 6q7 10 12.5 30t9.5 46.5t6 57.5t2 64q0 54 -5.5 101.5t-16.5 82.5q54 9 111 27.5t106 41.5q33 -21 77 -37t89 -24q-19 -38 -52.5 -61.5t-68.5 -23.5q-23 0 -55 16t-63 45q5 -38 7.5 -75.5t2.5 -75.5q0 -33 -2.5 -72.5
t-7.5 -70.5q22 -9 56.5 -17t62.5 -10q6 38 31.5 66.5t67.5 40.5q-1 -8 -1 -22v-34q0 -38 3.5 -61t8.5 -40q-16 -3 -34.5 -9.5t-36 -15t-32 -17.5t-21.5 -17zM399 617q-15 -12 -23 -20t-23 -22q-24 19 -51.5 39.5t-52.5 38.5q-26 -18 -54 -38.5t-51 -39.5q-16 13 -23.5 21.5
t-22.5 20.5q35 35 73.5 75.5t76.5 85.5q66 -70 101.5 -108t49.5 -53z" />
    <glyph glyph-name="Cdotaccent" unicode="&#x10a;" horiz-adv-x="624" 
d="M46 0q15 9 26.5 34t20 57t12.5 66.5t4 63.5q0 45 -9.5 86t-26.5 62q16 16 26.5 42.5t16.5 57t8 62.5t2 60q0 23 -1 40t-2 26q-23 8 -47.5 33t-36.5 54q64 -7 121.5 -9.5t108.5 -2.5q109 0 176 7t106 7q8 0 14 -0.5t11 -1.5q-6 -12 -12.5 -45t-12.5 -72t-10.5 -76
t-6.5 -56l-7 -3q-35 26 -50.5 57.5t-23.5 77.5q-14 11 -35 14t-53 3q-26 0 -50 -1t-38 -1q-5 -29 -8.5 -67t-6 -81t-4 -89.5t-1.5 -92.5q0 -63 1.5 -119.5t5.5 -98.5l169 -17q14 62 49.5 110t76.5 93l6 -2q-3 -23 -4 -45.5t-1 -43.5q0 -52 5 -94t12 -63q-17 -2 -33.5 -5.5
t-35.5 -11.5t-40.5 -22t-47.5 -36q-84 25 -166 37.5t-148 12.5q-32 0 -59 -10zM238 854q16 26 37.5 51.5t48.5 39.5q6 -7 17 -16.5t24 -19.5t25 -18.5t18 -12.5q-30 -22 -51.5 -42t-36.5 -50q-5 7 -16 16.5t-23.5 19.5t-24 18.5t-18.5 13.5z" />
    <glyph glyph-name="cdotaccent" unicode="&#x10b;" horiz-adv-x="448" 
d="M287 -31q-18 11 -49 22.5t-67.5 20.5t-73.5 15t-67 6q7 10 12.5 30t9.5 46.5t6 57.5t2 64q0 54 -5.5 101.5t-16.5 82.5q54 9 111 27.5t106 41.5q33 -21 77 -37t89 -24q-19 -38 -52.5 -61.5t-68.5 -23.5q-23 0 -55 16t-63 45q5 -38 7.5 -75.5t2.5 -75.5q0 -33 -2.5 -72.5
t-7.5 -70.5q22 -9 56.5 -17t62.5 -10q6 38 31.5 66.5t67.5 40.5q-1 -8 -1 -22v-34q0 -38 3.5 -61t8.5 -40q-16 -3 -34.5 -9.5t-36 -15t-32 -17.5t-21.5 -17zM157 650q17 29 41.5 57.5t54.5 44.5q6 -8 18.5 -19t27 -22t28 -20.5t20.5 -13.5q-34 -24 -57.5 -46.5t-40.5 -56.5
q-6 7 -18.5 17.5t-26.5 21.5t-27 21t-20 16z" />
    <glyph glyph-name="Ccaron" unicode="&#x10c;" horiz-adv-x="624" 
d="M46 0q15 9 26.5 34t20 57t12.5 66.5t4 63.5q0 45 -9.5 86t-26.5 62q16 16 26.5 42.5t16.5 57t8 62.5t2 60q0 23 -1 40t-2 26q-23 8 -47.5 33t-36.5 54q64 -7 121.5 -9.5t108.5 -2.5q109 0 176 7t106 7q8 0 14 -0.5t11 -1.5q-6 -12 -12.5 -45t-12.5 -72t-10.5 -76
t-6.5 -56l-7 -3q-35 26 -50.5 57.5t-23.5 77.5q-14 11 -35 14t-53 3q-26 0 -50 -1t-38 -1q-5 -29 -8.5 -67t-6 -81t-4 -89.5t-1.5 -92.5q0 -63 1.5 -119.5t5.5 -98.5l169 -17q14 62 49.5 110t76.5 93l6 -2q-3 -23 -4 -45.5t-1 -43.5q0 -52 5 -94t12 -63q-17 -2 -33.5 -5.5
t-35.5 -11.5t-40.5 -22t-47.5 -36q-84 25 -166 37.5t-148 12.5q-32 0 -59 -10zM490 903q-14 -12 -59.5 -42t-111.5 -75q-42 32 -88.5 61.5t-81.5 55.5q15 13 22.5 20.5t23.5 21.5q12 -6 27.5 -13.5t32.5 -15t34 -14t31 -11.5q13 4 29.5 10.5t33.5 14t33 15t28 14.5
q15 -14 23 -22t23 -20z" />
    <glyph glyph-name="ccaron" unicode="&#x10d;" horiz-adv-x="448" 
d="M287 -31q-18 11 -49 22.5t-67.5 20.5t-73.5 15t-67 6q7 10 12.5 30t9.5 46.5t6 57.5t2 64q0 54 -5.5 101.5t-16.5 82.5q54 9 111 27.5t106 41.5q33 -21 77 -37t89 -24q-19 -38 -52.5 -61.5t-68.5 -23.5q-23 0 -55 16t-63 45q5 -38 7.5 -75.5t2.5 -75.5q0 -33 -2.5 -72.5
t-7.5 -70.5q22 -9 56.5 -17t62.5 -10q6 38 31.5 66.5t67.5 40.5q-1 -8 -1 -22v-34q0 -38 3.5 -61t8.5 -40q-16 -3 -34.5 -9.5t-36 -15t-32 -17.5t-21.5 -17zM399 736q-14 -15 -49.5 -53t-101.5 -108q-38 45 -76.5 85.5t-73.5 75.5q15 13 22.5 20.5t23.5 21.5
q23 -19 51 -39.5t54 -38.5q25 18 52.5 38.5t51.5 39.5q15 -14 23 -22t23 -20z" />
    <glyph glyph-name="Dcaron" unicode="&#x10e;" horiz-adv-x="702" 
d="M596 683q3 -48 8.5 -80.5t13.5 -62t19 -63t25 -83.5q-10 -20 -17.5 -50.5t-13 -63.5t-8 -65t-2.5 -56q0 -19 1.5 -37t6.5 -34q-58 -11 -101 -49.5t-85 -92.5q-81 35 -187.5 49.5t-227.5 14.5q11 6 28 22.5t33 38t27.5 45t11.5 43.5t-0.5 45t-4 51t-11 50.5t-20.5 42.5
q11 12 18 36.5t10.5 54t4.5 61t1 57.5q0 32 -5 55t-17.5 42.5t-34 38.5t-54.5 44q71 0 127.5 0.5t104.5 2t90 5t84 10.5q31 -19 79 -39t96 -33zM484 144q0 22 3 58.5t8.5 74t13 70.5t16.5 49q-7 20 -16 50.5t-18 64t-16 67t-10 59.5q-16 0 -40.5 -1.5t-53 -5t-57 -9
t-52.5 -13.5q-2 -45 -3 -103.5t-1 -124.5q0 -64 2.5 -134.5t8.5 -145.5q10 -3 26.5 -7t34.5 -8t35.5 -7.5t30.5 -5.5q14 23 38 42t50 30zM532 903q-14 -12 -59.5 -42t-111.5 -75q-42 32 -88.5 61.5t-81.5 55.5q15 13 22.5 20.5t23.5 21.5q12 -6 27.5 -13.5t32.5 -15t34 -14
t31 -11.5q13 4 29.5 10.5t33.5 14t33 15t28 14.5q15 -14 23 -22t23 -20z" />
    <glyph glyph-name="dcaron" unicode="&#x10f;" horiz-adv-x="534" 
d="M467 265q0 -56 2 -89t7.5 -51.5t14 -26t21.5 -11.5v-11q-14 -5 -29.5 -17.5t-30.5 -27.5t-27 -31t-18 -28q-21 14 -38 37t-27 46q-18 -12 -41 -24t-48.5 -22.5t-52.5 -19t-52 -14.5q-24 26 -52 43t-57 25q11 42 13 79.5t2 75.5q0 48 -1 82.5t-3.5 59t-5.5 40t-7 25.5
q45 8 91.5 30.5t92.5 54.5q31 -13 58 -20t58 -10v145q0 25 -1 45t-4.5 37t-9.5 33t-15 33q20 -7 47 -7q33 0 69.5 11t78.5 31q-20 -24 -27.5 -64t-7.5 -92v-367zM254 391q-12 -11 -32.5 -24.5t-36.5 -20.5q2 -22 2.5 -59.5t0.5 -71.5q0 -32 -1.5 -64t-3.5 -59q20 1 42.5 5.5
t43.5 10.5t39 13.5t29 14.5v235q-16 1 -40 7t-43 13zM512 644q24 20 34.5 42.5t19.5 56.5q15 0 33 -5.5t33.5 -18t27 -32.5t13.5 -48q-7 -20 -19.5 -45t-32 -48t-46.5 -39.5t-63 -19.5q27 33 27 75q0 24 -8 46t-19 36z" />
    <glyph glyph-name="Dcroat" unicode="&#x110;" horiz-adv-x="718" 
d="M612 683q3 -48 8.5 -80.5t13.5 -62t19 -63t25 -83.5q-10 -20 -17.5 -50.5t-13 -63.5t-8 -65t-2.5 -56q0 -19 1.5 -37t6.5 -34q-58 -11 -101 -49.5t-85 -92.5q-81 35 -187.5 49.5t-227.5 14.5q11 6 28 22.5t33 38t27.5 45t11.5 43.5q0 29 -1.5 67t-11.5 73
q-28 -1 -54.5 -5t-49.5 -12v130q23 -12 49 -15t52 -3q8 36 11 80.5t3 82.5q0 32 -5 55t-17.5 42.5t-34 38.5t-54.5 44q71 0 127.5 0.5t104.5 2t90 5t84 10.5q31 -19 79 -39t96 -33zM500 144q0 22 3 58.5t8.5 74t13 70.5t16.5 49q-7 20 -16 50.5t-18 64t-16 67t-10 59.5
q-16 0 -40.5 -1.5t-53 -5t-57 -9t-52.5 -13.5q-2 -42 -3 -96.5t-1 -117.5q20 2 40 5.5t39 12.5v-130q-18 6 -38 10t-41 6q2 -48 4 -97t7 -101q10 -3 26.5 -7t34.5 -8t35.5 -7.5t30.5 -5.5q14 23 38 42t50 30z" />
    <glyph glyph-name="dcroat" unicode="&#x111;" horiz-adv-x="534" 
d="M219 689q26 -13 56 -15.5t59 -2.5q-3 23 -9.5 42t-17.5 40q20 -7 47 -7q33 0 69.5 11t78.5 31q-17 -20 -24.5 -49.5t-9.5 -67.5q20 2 40 5.5t38 12.5q-2 -14 -3 -27t-1 -27t1 -27t3 -27q-18 6 -38 10t-41 6v-332q0 -56 2 -89t7.5 -51.5t14 -26t21.5 -11.5v-11
q-14 -5 -29.5 -17.5t-30.5 -27.5t-27 -31t-18 -28q-21 14 -38 37t-27 46q-18 -12 -41 -24t-48.5 -22.5t-52.5 -19t-52 -14.5q-24 26 -52 43t-57 25q11 42 13 79.5t2 75.5q0 48 -1 82.5t-3.5 59t-5.5 40t-7 25.5q45 8 91.5 30.5t92.5 54.5q31 -13 58 -20t58 -10v138h-6
q-30 0 -58.5 -4t-53.5 -13q2 14 3 27t1 27t-1 27t-3 27zM254 391q-12 -11 -32.5 -24.5t-36.5 -20.5q2 -22 2.5 -59.5t0.5 -71.5q0 -32 -1.5 -64t-3.5 -59q20 1 42.5 5.5t43.5 10.5t39 13.5t29 14.5v235q-16 1 -40 7t-43 13z" />
    <glyph glyph-name="Emacron" unicode="&#x112;" horiz-adv-x="623" 
d="M46 0q15 9 26.5 34t20 57t12.5 66.5t4 63.5q0 45 -9.5 86t-26.5 62q16 16 26.5 42.5t16.5 57t8 62.5t2 60q0 23 -1 40t-2 26q-23 8 -47.5 33t-36.5 54q64 -7 121.5 -9.5t108.5 -2.5q109 0 176 7t106 7q8 0 14 -0.5t11 -1.5q-6 -11 -12.5 -40t-12.5 -63.5t-10.5 -67
t-6.5 -48.5l-7 -3q-35 20 -50.5 45t-23.5 60q-14 11 -35 14t-53 3q-26 0 -50 -1t-38 -1q-8 -39 -12 -95t-6 -119q14 -2 28.5 -2.5t22.5 -0.5q21 0 41.5 16.5t39.5 42.5q5 -12 10 -27.5t11.5 -31t14.5 -29.5t19 -21q-9 -9 -17.5 -23t-16 -30t-14 -32t-11.5 -29q-6 11 -14 24
t-17 24t-19.5 18.5t-22.5 7.5q-9 0 -26 -1t-31 -4v-18q0 -63 1.5 -119.5t5.5 -98.5l169 -17q14 62 49.5 110t76.5 93l6 -2q-3 -23 -4 -45.5t-1 -43.5q0 -52 5 -94t12 -63q-17 -2 -33.5 -5.5t-35.5 -11.5t-40.5 -22t-47.5 -36q-84 25 -166 37.5t-148 12.5q-32 0 -59 -10z
M155 921q26 -13 55.5 -15.5t57.5 -2.5h101q28 0 57.5 2.5t55.5 15.5q-2 -14 -3 -27t-1 -27t1 -27t3 -27q-25 9 -53.5 13t-58.5 4h-103q-30 0 -58.5 -4t-53.5 -13q2 14 3 27t1 27t-1 27t-3 27z" />
    <glyph glyph-name="emacron" unicode="&#x113;" horiz-adv-x="461" 
d="M236 -32q-19 14 -47 26t-57.5 20.5t-57 13.5t-45.5 5q8 13 14 36.5t9.5 51t5 56.5t1.5 53q0 61 -7.5 101.5t-14.5 63.5q43 8 78.5 31t70.5 58q41 -8 101 -13.5t119 -7.5q-3 -18 -3 -45q0 -21 2 -45.5t5 -48.5t8 -46t11 -38q-61 -5 -124 -13.5t-123 -18.5q-1 -29 -4 -57
t-5 -49q12 -5 30.5 -9t39.5 -7.5t41 -6t34 -3.5q5 31 24.5 53t66.5 36q-1 -12 -1 -23.5v-22.5q0 -34 2.5 -53.5t9.5 -38.5q-19 -2 -45 -7.5t-52 -14t-49.5 -18t-37.5 -19.5zM172 394q5 -42 7.5 -74t3.5 -59l117 29q-5 20 -8.5 42t-3.5 45q-23 0 -55.5 4.5t-60.5 12.5z
M78 735q26 -13 55.5 -15.5t57.5 -2.5h101q28 0 57.5 2.5t55.5 15.5q-2 -14 -3 -27t-1 -27t1 -27t3 -27q-25 9 -53.5 13t-58.5 4h-103q-30 0 -58.5 -4t-53.5 -13q2 14 3 27t1 27t-1 27t-3 27z" />
    <glyph glyph-name="Ebreve" unicode="&#x114;" horiz-adv-x="623" 
d="M46 0q15 9 26.5 34t20 57t12.5 66.5t4 63.5q0 45 -9.5 86t-26.5 62q16 16 26.5 42.5t16.5 57t8 62.5t2 60q0 23 -1 40t-2 26q-23 8 -47.5 33t-36.5 54q64 -7 121.5 -9.5t108.5 -2.5q109 0 176 7t106 7q8 0 14 -0.5t11 -1.5q-6 -11 -12.5 -40t-12.5 -63.5t-10.5 -67
t-6.5 -48.5l-7 -3q-35 20 -50.5 45t-23.5 60q-14 11 -35 14t-53 3q-26 0 -50 -1t-38 -1q-8 -39 -12 -95t-6 -119q14 -2 28.5 -2.5t22.5 -0.5q21 0 41.5 16.5t39.5 42.5q5 -12 10 -27.5t11.5 -31t14.5 -29.5t19 -21q-9 -9 -17.5 -23t-16 -30t-14 -32t-11.5 -29q-6 11 -14 24
t-17 24t-19.5 18.5t-22.5 7.5q-9 0 -26 -1t-31 -4v-18q0 -63 1.5 -119.5t5.5 -98.5l169 -17q14 62 49.5 110t76.5 93l6 -2q-3 -23 -4 -45.5t-1 -43.5q0 -52 5 -94t12 -63q-17 -2 -33.5 -5.5t-35.5 -11.5t-40.5 -22t-47.5 -36q-84 25 -166 37.5t-148 12.5q-32 0 -59 -10z
M459 900q-5 -24 -18.5 -42.5t-33 -30.5t-43 -18.5t-47.5 -6.5q-23 0 -45 6t-41 18t-32.5 30.5t-19.5 43.5q12 4 21.5 7.5t17.5 7t15.5 8l17.5 10.5q2 -33 21.5 -49.5t43.5 -16.5q25 0 46.5 16.5t24.5 48.5q20 -14 36 -20.5t36 -11.5z" />
    <glyph glyph-name="ebreve" unicode="&#x115;" horiz-adv-x="461" 
d="M236 -32q-19 14 -47 26t-57.5 20.5t-57 13.5t-45.5 5q8 13 14 36.5t9.5 51t5 56.5t1.5 53q0 61 -7.5 101.5t-14.5 63.5q43 8 78.5 31t70.5 58q41 -8 101 -13.5t119 -7.5q-3 -18 -3 -45q0 -21 2 -45.5t5 -48.5t8 -46t11 -38q-61 -5 -124 -13.5t-123 -18.5q-1 -29 -4 -57
t-5 -49q12 -5 30.5 -9t39.5 -7.5t41 -6t34 -3.5q5 31 24.5 53t66.5 36q-1 -12 -1 -23.5v-22.5q0 -34 2.5 -53.5t9.5 -38.5q-19 -2 -45 -7.5t-52 -14t-49.5 -18t-37.5 -19.5zM172 394q5 -42 7.5 -74t3.5 -59l117 29q-5 20 -8.5 42t-3.5 45q-23 0 -55.5 4.5t-60.5 12.5z
M372 701q-5 -29 -18.5 -51t-33 -37t-43 -22.5t-47.5 -7.5q-23 0 -45 7t-41 21.5t-32.5 37t-19.5 52.5q12 4 21.5 7.5t17.5 7t15.5 8l17.5 10.5q2 -45 21.5 -65.5t43.5 -20.5q25 0 46.5 21.5t24.5 63.5q20 -14 36 -20.5t36 -11.5z" />
    <glyph glyph-name="Edotaccent" unicode="&#x116;" horiz-adv-x="623" 
d="M46 0q15 9 26.5 34t20 57t12.5 66.5t4 63.5q0 45 -9.5 86t-26.5 62q16 16 26.5 42.5t16.5 57t8 62.5t2 60q0 23 -1 40t-2 26q-23 8 -47.5 33t-36.5 54q64 -7 121.5 -9.5t108.5 -2.5q109 0 176 7t106 7q8 0 14 -0.5t11 -1.5q-6 -11 -12.5 -40t-12.5 -63.5t-10.5 -67
t-6.5 -48.5l-7 -3q-35 20 -50.5 45t-23.5 60q-14 11 -35 14t-53 3q-26 0 -50 -1t-38 -1q-8 -39 -12 -95t-6 -119q14 -2 28.5 -2.5t22.5 -0.5q21 0 41.5 16.5t39.5 42.5q5 -12 10 -27.5t11.5 -31t14.5 -29.5t19 -21q-9 -9 -17.5 -23t-16 -30t-14 -32t-11.5 -29q-6 11 -14 24
t-17 24t-19.5 18.5t-22.5 7.5q-9 0 -26 -1t-31 -4v-18q0 -63 1.5 -119.5t5.5 -98.5l169 -17q14 62 49.5 110t76.5 93l6 -2q-3 -23 -4 -45.5t-1 -43.5q0 -52 5 -94t12 -63q-17 -2 -33.5 -5.5t-35.5 -11.5t-40.5 -22t-47.5 -36q-84 25 -166 37.5t-148 12.5q-32 0 -59 -10z
M236 854q16 26 37.5 51.5t48.5 39.5q6 -7 17 -16.5t24 -19.5t25 -18.5t18 -12.5q-30 -22 -51.5 -42t-36.5 -50q-5 7 -16 16.5t-23.5 19.5t-24 18.5t-18.5 13.5z" />
    <glyph glyph-name="edotaccent" unicode="&#x117;" horiz-adv-x="461" 
d="M236 -32q-19 14 -47 26t-57.5 20.5t-57 13.5t-45.5 5q8 13 14 36.5t9.5 51t5 56.5t1.5 53q0 61 -7.5 101.5t-14.5 63.5q43 8 78.5 31t70.5 58q41 -8 101 -13.5t119 -7.5q-3 -18 -3 -45q0 -21 2 -45.5t5 -48.5t8 -46t11 -38q-61 -5 -124 -13.5t-123 -18.5q-1 -29 -4 -57
t-5 -49q12 -5 30.5 -9t39.5 -7.5t41 -6t34 -3.5q5 31 24.5 53t66.5 36q-1 -12 -1 -23.5v-22.5q0 -34 2.5 -53.5t9.5 -38.5q-19 -2 -45 -7.5t-52 -14t-49.5 -18t-37.5 -19.5zM172 394q5 -42 7.5 -74t3.5 -59l117 29q-5 20 -8.5 42t-3.5 45q-23 0 -55.5 4.5t-60.5 12.5z
M149 650q17 29 41.5 57.5t54.5 44.5q6 -8 18.5 -19t27 -22t28 -20.5t20.5 -13.5q-34 -24 -57.5 -46.5t-40.5 -56.5q-6 7 -18.5 17.5t-26.5 21.5t-27 21t-20 16z" />
    <glyph glyph-name="Eogonek" unicode="&#x118;" horiz-adv-x="625" 
d="M48 0q15 9 26.5 34t20 57t12.5 66.5t4 63.5q0 45 -9.5 86t-26.5 62q16 16 26.5 42.5t16.5 57t8 62.5t2 60q0 23 -1 40t-2 26q-23 8 -47.5 33t-36.5 54q64 -7 121.5 -9.5t108.5 -2.5q109 0 176 7t106 7q8 0 14 -0.5t11 -1.5q-6 -11 -12.5 -40t-12.5 -63.5t-10.5 -67
t-6.5 -48.5l-7 -3q-35 20 -50.5 45t-23.5 60q-14 11 -35 14t-53 3q-26 0 -50 -1t-38 -1q-8 -39 -12 -95t-6 -119q14 -2 28.5 -2.5t22.5 -0.5q21 0 41.5 16.5t39.5 42.5q5 -12 10 -27.5t11.5 -31t14.5 -29.5t19 -21q-9 -9 -17.5 -23t-16 -30t-14 -32t-11.5 -29q-6 11 -14 24
t-17 24t-19.5 18.5t-22.5 7.5q-9 0 -26 -1t-31 -4v-18q0 -63 1.5 -119.5t5.5 -98.5l169 -17q14 62 49.5 110t76.5 93l6 -2q-3 -23 -4 -45.5t-1 -43.5q0 -52 5 -94t12 -63q-17 -2 -33.5 -5.5t-35.5 -11.5t-40.5 -22t-47.5 -36q-25 8 -50 14.5t-50 11.5l-54 -57l28 -90
q6 6 17 9t23 4.5t23.5 1.5h18.5q21 0 41.5 -15t32.5 -46q-10 5 -19.5 7t-18.5 2q-35 0 -61 -32q-9 6 -25 12t-34.5 11.5t-37 8.5t-33.5 3l-35 138l64 56q-39 5 -75.5 8t-68.5 3t-59 -10z" />
    <glyph glyph-name="eogonek" unicode="&#x119;" horiz-adv-x="461" 
d="M420 27q-23 -3 -54 -10t-61 -17l-70 -74l28 -90q6 6 17 9t23 4.5t23.5 1.5h18.5q21 0 41.5 -15t32.5 -46q-10 5 -19.5 7t-18.5 2q-35 0 -61 -32q-9 6 -25 12t-34.5 11.5t-37 8.5t-33.5 3l-35 138l52 46q-21 10 -46 18.5t-49 15t-46 10t-37 3.5q8 13 14 36.5t9.5 51
t5 56.5t1.5 53q0 61 -7.5 101.5t-14.5 63.5q43 8 78.5 31t70.5 58q41 -8 101 -13.5t119 -7.5q-3 -18 -3 -45q0 -21 2 -45.5t5 -48.5t8 -46t11 -38q-61 -5 -124 -13.5t-123 -18.5q-1 -29 -4 -57t-5 -49q12 -5 30.5 -9t39.5 -7.5t41 -6t34 -3.5q5 31 24.5 53t66.5 36
q-1 -12 -1 -23.5v-22.5q0 -34 2.5 -53.5t9.5 -38.5zM172 394q5 -42 7.5 -74t3.5 -59l117 29q-5 20 -8.5 42t-3.5 45q-23 0 -55.5 4.5t-60.5 12.5z" />
    <glyph glyph-name="Ecaron" unicode="&#x11a;" horiz-adv-x="623" 
d="M46 0q15 9 26.5 34t20 57t12.5 66.5t4 63.5q0 45 -9.5 86t-26.5 62q16 16 26.5 42.5t16.5 57t8 62.5t2 60q0 23 -1 40t-2 26q-23 8 -47.5 33t-36.5 54q64 -7 121.5 -9.5t108.5 -2.5q109 0 176 7t106 7q8 0 14 -0.5t11 -1.5q-6 -11 -12.5 -40t-12.5 -63.5t-10.5 -67
t-6.5 -48.5l-7 -3q-35 20 -50.5 45t-23.5 60q-14 11 -35 14t-53 3q-26 0 -50 -1t-38 -1q-8 -39 -12 -95t-6 -119q14 -2 28.5 -2.5t22.5 -0.5q21 0 41.5 16.5t39.5 42.5q5 -12 10 -27.5t11.5 -31t14.5 -29.5t19 -21q-9 -9 -17.5 -23t-16 -30t-14 -32t-11.5 -29q-6 11 -14 24
t-17 24t-19.5 18.5t-22.5 7.5q-9 0 -26 -1t-31 -4v-18q0 -63 1.5 -119.5t5.5 -98.5l169 -17q14 62 49.5 110t76.5 93l6 -2q-3 -23 -4 -45.5t-1 -43.5q0 -52 5 -94t12 -63q-17 -2 -33.5 -5.5t-35.5 -11.5t-40.5 -22t-47.5 -36q-84 25 -166 37.5t-148 12.5q-32 0 -59 -10z
M488 903q-14 -12 -59.5 -42t-111.5 -75q-42 32 -88.5 61.5t-81.5 55.5q15 13 22.5 20.5t23.5 21.5q12 -6 27.5 -13.5t32.5 -15t34 -14t31 -11.5q13 4 29.5 10.5t33.5 14t33 15t28 14.5q15 -14 23 -22t23 -20z" />
    <glyph glyph-name="ecaron" unicode="&#x11b;" horiz-adv-x="461" 
d="M236 -32q-19 14 -47 26t-57.5 20.5t-57 13.5t-45.5 5q8 13 14 36.5t9.5 51t5 56.5t1.5 53q0 61 -7.5 101.5t-14.5 63.5q43 8 78.5 31t70.5 58q41 -8 101 -13.5t119 -7.5q-3 -18 -3 -45q0 -21 2 -45.5t5 -48.5t8 -46t11 -38q-61 -5 -124 -13.5t-123 -18.5q-1 -29 -4 -57
t-5 -49q12 -5 30.5 -9t39.5 -7.5t41 -6t34 -3.5q5 31 24.5 53t66.5 36q-1 -12 -1 -23.5v-22.5q0 -34 2.5 -53.5t9.5 -38.5q-19 -2 -45 -7.5t-52 -14t-49.5 -18t-37.5 -19.5zM172 394q5 -42 7.5 -74t3.5 -59l117 29q-5 20 -8.5 42t-3.5 45q-23 0 -55.5 4.5t-60.5 12.5z
M391 736q-14 -15 -49.5 -53t-101.5 -108q-38 45 -76.5 85.5t-73.5 75.5q15 13 22.5 20.5t23.5 21.5q23 -19 51 -39.5t54 -38.5q25 18 52.5 38.5t51.5 39.5q15 -14 23 -22t23 -20z" />
    <glyph glyph-name="Gcircumflex" unicode="&#x11c;" horiz-adv-x="651" 
d="M537 486q-20 14 -33.5 28.5t-22.5 31.5t-15 37t-10 44q-14 11 -45 14t-63 3q-26 0 -45 -1t-33 -1q-9 -25 -12 -85.5t-3 -138.5q0 -42 0.5 -86t1 -87t1 -83.5t0.5 -75.5q30 -7 49 -12.5t37 -9t41 -6t61 -4.5q2 8 2.5 34.5t0.5 61.5q0 39 -0.5 65t-2.5 52q-13 0 -21.5 2.5
t-20 5.5t-30 6t-49.5 5q4 7 10 18.5t12 24.5t10.5 24.5t6.5 19.5q38 -8 74.5 -12t69.5 -4q34 0 62 4.5t47 15.5q-3 -8 -10.5 -22.5t-15.5 -31t-14 -32.5t-6 -28q3 -42 5 -81t4.5 -70.5t4.5 -52.5t5 -27q-47 -11 -89 -34.5t-98 -70.5q-44 27 -94 46t-98.5 33.5t-93 25.5
t-77.5 22q16 4 27.5 19.5t19 38.5t11.5 51.5t4 57.5q0 45 -9.5 86t-26.5 62q16 16 26.5 42.5t16.5 57t8 62.5t2 60q0 23 -1 40t-2 26q-23 8 -47.5 33t-36.5 54q64 -7 121.5 -9.5t108.5 -2.5q111 0 182 7t110 7q8 0 14 -0.5t11 -1.5q-4 -9 -8.5 -30.5t-9.5 -48t-9 -56
t-7.5 -55t-5.5 -44.5t-2 -24zM495 828q-15 -12 -23 -20t-23 -22q-12 7 -28 14.5t-33 14.5t-33.5 13.5t-29.5 11.5q-14 -5 -31 -11.5t-34 -14t-32.5 -15t-27.5 -13.5q-16 13 -23.5 21.5t-22.5 20.5q35 26 81.5 55.5t88.5 61.5q66 -45 111.5 -75t59.5 -42z" />
    <glyph glyph-name="gcircumflex" unicode="&#x11d;" horiz-adv-x="532" 
d="M468 24q0 -127 9 -169q-28 0 -61 -8.5t-66.5 -23.5t-65.5 -35.5t-57 -44.5q-57 42 -106 61t-103 19q8 42 25.5 76.5t40.5 56.5q11 -1 34.5 -10.5t51.5 -24.5t55.5 -32t47.5 -33l75 24q-2 13 -3.5 28t-2.5 37t-2 53.5t-2 76.5q-19 -14 -42.5 -27t-48.5 -24t-50.5 -19.5
t-48.5 -13.5q-49 50 -109 68q4 14 7 28.5t4.5 32t2.5 40t1 53.5q0 81 -4 125t-13 63q23 4 50 12t54 19t53 25t47 29q60 -18 96.5 -25.5t62.5 -7.5q23 0 50.5 4.5t47.5 11.5q-8 -16 -14 -38t-9.5 -54t-5 -76t-1.5 -104v-173zM244 387q-11 -11 -28 -24t-31 -21q3 -29 3 -109
q0 -42 -1 -70.5t-4 -54.5q18 1 40 5t43.5 10t40.5 13.5t31 15.5v40q0 66 2 108t7 67q-10 0 -23.5 1.5t-27.5 4.5t-28 6.5t-24 7.5zM413 617q-15 -12 -23 -20t-23 -22q-24 19 -51.5 39.5t-52.5 38.5q-26 -18 -54 -38.5t-51 -39.5q-16 13 -23.5 21.5t-22.5 20.5
q35 35 73.5 75.5t76.5 85.5q66 -70 101.5 -108t49.5 -53z" />
    <glyph glyph-name="Gbreve" unicode="&#x11e;" horiz-adv-x="651" 
d="M537 486q-20 14 -33.5 28.5t-22.5 31.5t-15 37t-10 44q-14 11 -45 14t-63 3q-26 0 -45 -1t-33 -1q-9 -25 -12 -85.5t-3 -138.5q0 -42 0.5 -86t1 -87t1 -83.5t0.5 -75.5q30 -7 49 -12.5t37 -9t41 -6t61 -4.5q2 8 2.5 34.5t0.5 61.5q0 39 -0.5 65t-2.5 52q-13 0 -21.5 2.5
t-20 5.5t-30 6t-49.5 5q4 7 10 18.5t12 24.5t10.5 24.5t6.5 19.5q38 -8 74.5 -12t69.5 -4q34 0 62 4.5t47 15.5q-3 -8 -10.5 -22.5t-15.5 -31t-14 -32.5t-6 -28q3 -42 5 -81t4.5 -70.5t4.5 -52.5t5 -27q-47 -11 -89 -34.5t-98 -70.5q-44 27 -94 46t-98.5 33.5t-93 25.5
t-77.5 22q16 4 27.5 19.5t19 38.5t11.5 51.5t4 57.5q0 45 -9.5 86t-26.5 62q16 16 26.5 42.5t16.5 57t8 62.5t2 60q0 23 -1 40t-2 26q-23 8 -47.5 33t-36.5 54q64 -7 121.5 -9.5t108.5 -2.5q111 0 182 7t110 7q8 0 14 -0.5t11 -1.5q-4 -9 -8.5 -30.5t-9.5 -48t-9 -56
t-7.5 -55t-5.5 -44.5t-2 -24zM466 900q-5 -24 -18.5 -42.5t-33 -30.5t-43 -18.5t-47.5 -6.5q-23 0 -45 6t-41 18t-32.5 30.5t-19.5 43.5q12 4 21.5 7.5t17.5 7t15.5 8l17.5 10.5q2 -33 21.5 -49.5t43.5 -16.5q25 0 46.5 16.5t24.5 48.5q20 -14 36 -20.5t36 -11.5z" />
    <glyph glyph-name="gbreve" unicode="&#x11f;" horiz-adv-x="532" 
d="M468 24q0 -127 9 -169q-28 0 -61 -8.5t-66.5 -23.5t-65.5 -35.5t-57 -44.5q-57 42 -106 61t-103 19q8 42 25.5 76.5t40.5 56.5q11 -1 34.5 -10.5t51.5 -24.5t55.5 -32t47.5 -33l75 24q-2 13 -3.5 28t-2.5 37t-2 53.5t-2 76.5q-19 -14 -42.5 -27t-48.5 -24t-50.5 -19.5
t-48.5 -13.5q-49 50 -109 68q4 14 7 28.5t4.5 32t2.5 40t1 53.5q0 81 -4 125t-13 63q23 4 50 12t54 19t53 25t47 29q60 -18 96.5 -25.5t62.5 -7.5q23 0 50.5 4.5t47.5 11.5q-8 -16 -14 -38t-9.5 -54t-5 -76t-1.5 -104v-173zM244 387q-11 -11 -28 -24t-31 -21q3 -29 3 -109
q0 -42 -1 -70.5t-4 -54.5q18 1 40 5t43.5 10t40.5 13.5t31 15.5v40q0 66 2 108t7 67q-10 0 -23.5 1.5t-27.5 4.5t-28 6.5t-24 7.5zM404 701q-5 -29 -18.5 -51t-33 -37t-43 -22.5t-47.5 -7.5q-23 0 -45 7t-41 21.5t-32.5 37t-19.5 52.5q12 4 21.5 7.5t17.5 7t15.5 8
l17.5 10.5q2 -45 21.5 -65.5t43.5 -20.5q25 0 46.5 21.5t24.5 63.5q20 -14 36 -20.5t36 -11.5z" />
    <glyph glyph-name="Gdotaccent" unicode="&#x120;" horiz-adv-x="651" 
d="M537 486q-20 14 -33.5 28.5t-22.5 31.5t-15 37t-10 44q-14 11 -45 14t-63 3q-26 0 -45 -1t-33 -1q-9 -25 -12 -85.5t-3 -138.5q0 -42 0.5 -86t1 -87t1 -83.5t0.5 -75.5q30 -7 49 -12.5t37 -9t41 -6t61 -4.5q2 8 2.5 34.5t0.5 61.5q0 39 -0.5 65t-2.5 52q-13 0 -21.5 2.5
t-20 5.5t-30 6t-49.5 5q4 7 10 18.5t12 24.5t10.5 24.5t6.5 19.5q38 -8 74.5 -12t69.5 -4q34 0 62 4.5t47 15.5q-3 -8 -10.5 -22.5t-15.5 -31t-14 -32.5t-6 -28q3 -42 5 -81t4.5 -70.5t4.5 -52.5t5 -27q-47 -11 -89 -34.5t-98 -70.5q-44 27 -94 46t-98.5 33.5t-93 25.5
t-77.5 22q16 4 27.5 19.5t19 38.5t11.5 51.5t4 57.5q0 45 -9.5 86t-26.5 62q16 16 26.5 42.5t16.5 57t8 62.5t2 60q0 23 -1 40t-2 26q-23 8 -47.5 33t-36.5 54q64 -7 121.5 -9.5t108.5 -2.5q111 0 182 7t110 7q8 0 14 -0.5t11 -1.5q-4 -9 -8.5 -30.5t-9.5 -48t-9 -56
t-7.5 -55t-5.5 -44.5t-2 -24zM243 854q16 26 37.5 51.5t48.5 39.5q6 -7 17 -16.5t24 -19.5t25 -18.5t18 -12.5q-30 -22 -51.5 -42t-36.5 -50q-5 7 -16 16.5t-23.5 19.5t-24 18.5t-18.5 13.5z" />
    <glyph glyph-name="gdotaccent" unicode="&#x121;" horiz-adv-x="532" 
d="M468 24q0 -127 9 -169q-28 0 -61 -8.5t-66.5 -23.5t-65.5 -35.5t-57 -44.5q-57 42 -106 61t-103 19q8 42 25.5 76.5t40.5 56.5q11 -1 34.5 -10.5t51.5 -24.5t55.5 -32t47.5 -33l75 24q-2 13 -3.5 28t-2.5 37t-2 53.5t-2 76.5q-19 -14 -42.5 -27t-48.5 -24t-50.5 -19.5
t-48.5 -13.5q-49 50 -109 68q4 14 7 28.5t4.5 32t2.5 40t1 53.5q0 81 -4 125t-13 63q23 4 50 12t54 19t53 25t47 29q60 -18 96.5 -25.5t62.5 -7.5q23 0 50.5 4.5t47.5 11.5q-8 -16 -14 -38t-9.5 -54t-5 -76t-1.5 -104v-173zM244 387q-11 -11 -28 -24t-31 -21q3 -29 3 -109
q0 -42 -1 -70.5t-4 -54.5q18 1 40 5t43.5 10t40.5 13.5t31 15.5v40q0 66 2 108t7 67q-10 0 -23.5 1.5t-27.5 4.5t-28 6.5t-24 7.5zM171 650q17 29 41.5 57.5t54.5 44.5q6 -8 18.5 -19t27 -22t28 -20.5t20.5 -13.5q-34 -24 -57.5 -46.5t-40.5 -56.5q-6 7 -18.5 17.5
t-26.5 21.5t-27 21t-20 16z" />
    <glyph glyph-name="Gcommaaccent" unicode="&#x122;" horiz-adv-x="651" 
d="M537 486q-20 14 -33.5 28.5t-22.5 31.5t-15 37t-10 44q-14 11 -45 14t-63 3q-26 0 -45 -1t-33 -1q-9 -25 -12 -85.5t-3 -138.5q0 -42 0.5 -86t1 -87t1 -83.5t0.5 -75.5q30 -7 49 -12.5t37 -9t41 -6t61 -4.5q2 8 2.5 34.5t0.5 61.5q0 39 -0.5 65t-2.5 52q-13 0 -21.5 2.5
t-20 5.5t-30 6t-49.5 5q4 7 10 18.5t12 24.5t10.5 24.5t6.5 19.5q38 -8 74.5 -12t69.5 -4q34 0 62 4.5t47 15.5q-3 -8 -10.5 -22.5t-15.5 -31t-14 -32.5t-6 -28q3 -42 5 -81t4.5 -70.5t4.5 -52.5t5 -27q-47 -11 -89 -34.5t-98 -70.5q-44 27 -94 46t-98.5 33.5t-93 25.5
t-77.5 22q16 4 27.5 19.5t19 38.5t11.5 51.5t4 57.5q0 45 -9.5 86t-26.5 62q16 16 26.5 42.5t16.5 57t8 62.5t2 60q0 23 -1 40t-2 26q-23 8 -47.5 33t-36.5 54q64 -7 121.5 -9.5t108.5 -2.5q111 0 182 7t110 7q8 0 14 -0.5t11 -1.5q-4 -9 -8.5 -30.5t-9.5 -48t-9 -56
t-7.5 -55t-5.5 -44.5t-2 -24zM249 -156q19 10 31 25t23 44q38 0 66 -21t31 -53q-31 -57 -67 -86.5t-84 -35.5q11 13 18 31t7 36q0 38 -25 60z" />
    <glyph glyph-name="gcommaaccent" unicode="&#x123;" horiz-adv-x="532" 
d="M468 24q0 -127 9 -169q-28 0 -61 -8.5t-66.5 -23.5t-65.5 -35.5t-57 -44.5q-57 42 -106 61t-103 19q8 42 25.5 76.5t40.5 56.5q11 -1 34.5 -10.5t51.5 -24.5t55.5 -32t47.5 -33l75 24q-2 13 -3.5 28t-2.5 37t-2 53.5t-2 76.5q-19 -14 -42.5 -27t-48.5 -24t-50.5 -19.5
t-48.5 -13.5q-49 50 -109 68q4 14 7 28.5t4.5 32t2.5 40t1 53.5q0 81 -4 125t-13 63q23 4 50 12t54 19t53 25t47 29q60 -18 96.5 -25.5t62.5 -7.5q23 0 50.5 4.5t47.5 11.5q-8 -16 -14 -38t-9.5 -54t-5 -76t-1.5 -104v-173zM244 387q-11 -11 -28 -24t-31 -21q3 -29 3 -109
q0 -42 -1 -70.5t-4 -54.5q18 1 40 5t43.5 10t40.5 13.5t31 15.5v40q0 66 2 108t7 67q-10 0 -23.5 1.5t-27.5 4.5t-28 6.5t-24 7.5zM338 644q-20 -10 -31 -25t-23 -44q-38 0 -66 21t-31 53q31 57 67 86.5t84 35.5q-11 -13 -18 -31t-7 -36q0 -38 25 -60z" />
    <glyph glyph-name="Hcircumflex" unicode="&#x124;" horiz-adv-x="752" 
d="M305 739q-15 -14 -25.5 -37.5t-17 -51t-9.5 -57t-3 -56.5v-127q33 -4 69 -4.5t74 -0.5q27 0 50 1t52 3v144q0 49 -7 88.5t-27 87.5q36 -6 75 -6q42 0 86.5 5t90.5 11q-27 -16 -42 -41.5t-22.5 -55.5t-9 -61t-1.5 -58q0 -23 2 -45.5t7.5 -43t15 -37.5t24.5 -28
q-18 -32 -32.5 -80t-14.5 -96q0 -26 1.5 -50.5t7 -46t16 -39t27.5 -28.5q-47 -17 -71 -44t-40 -53q-5 13 -17 27.5t-28 27.5t-35.5 24t-40.5 18q13 14 20 36.5t10.5 50.5t4 60t0.5 65v42q-29 3 -50.5 4.5t-45.5 1.5q-45 0 -80.5 -2t-66.5 -6v-53q0 -64 12 -121.5t51 -112.5
q-45 7 -80.5 9.5t-62.5 2.5q-45 0 -78 -3t-66 -8q21 13 39 34t31 47t20.5 55t7.5 58q0 51 -12 99.5t-38 80.5q28 52 38.5 95t10.5 89q0 28 -3 60q-36 9 -66.5 39t-37.5 88q42 -9 78 -13t68 -4q38 0 71.5 5.5t69.5 10.5zM545 828q-15 -12 -23 -20t-23 -22q-12 7 -28 14.5
t-33 14.5t-33.5 13.5t-29.5 11.5q-14 -5 -31 -11.5t-34 -14t-32.5 -15t-27.5 -13.5q-16 13 -23.5 21.5t-22.5 20.5q35 26 81.5 55.5t88.5 61.5q66 -45 111.5 -75t59.5 -42z" />
    <glyph glyph-name="hcircumflex" unicode="&#x125;" horiz-adv-x="521" 
d="M310 -93q6 20 11 49.5t8 59t5 54.5t2 36q0 57 -0.5 114t-0.5 114l-13 14l-123 -55v-205q0 -63 27 -73v-15h-184v15q12 5 19.5 20.5t7.5 43.5v526q0 25 -1 45t-4.5 37t-9.5 33t-15 33q20 -7 47 -7q33 0 69.5 11t78.5 31q-20 -24 -27.5 -64t-7.5 -92v-270q43 28 77 56
t70 66q17 -16 31 -28.5t28.5 -22.5t30.5 -19.5t37 -19.5q-4 -14 -6.5 -29.5t-4 -39.5t-2.5 -59t-1 -87q0 -44 0.5 -72.5t1.5 -46.5t3 -29.5t4 -21.5q-20 -7 -40.5 -19t-41 -27t-38.5 -31t-32 -31zM518 617q-15 -12 -23 -20t-23 -22q-24 19 -51.5 39.5t-52.5 38.5
q-26 -18 -54 -38.5t-51 -39.5q-16 13 -23.5 21.5t-22.5 20.5q35 35 73.5 75.5t76.5 85.5q66 -70 101.5 -108t49.5 -53z" />
    <glyph glyph-name="Hbar" unicode="&#x126;" horiz-adv-x="758" 
d="M308 739q-24 -21 -36.5 -64.5t-16.5 -88.5h242q-2 37 -9 70t-24 73q36 -6 75 -6q42 0 86.5 5t90.5 11q-18 -11 -32 -31t-23 -42t-13.5 -43.5t-4.5 -36.5q21 1 42 4.5t41 13.5q-2 -14 -3 -27t-1 -27t1 -27t3 -27q-20 7 -41 10.5t-44 5.5q0 -21 2.5 -42t8 -40t15 -35
t23.5 -26q-18 -32 -32.5 -80t-14.5 -96q0 -26 1.5 -50.5t7 -46t16 -39t27.5 -28.5q-47 -17 -71 -44t-40 -53q-5 13 -17 27.5t-28 27.5t-35.5 24t-40.5 18q13 14 20 36.5t10.5 50.5t4 60t0.5 65v42q-29 3 -50.5 4.5t-45.5 1.5q-45 0 -80.5 -2t-66.5 -6v-53q0 -64 12 -121.5
t51 -112.5q-45 7 -80.5 9.5t-62.5 2.5q-45 0 -78 -3t-66 -8q21 13 39 34t31 47t20.5 55t7.5 58q0 51 -12 99.5t-38 80.5q22 40 32.5 74.5t14.5 69.5q-29 -1 -56.5 -5t-50.5 -12q2 14 3 27t1 27t-1 27t-3 27q25 -13 53 -15.5t55 -2.5q0 7 -0.5 13t-1.5 14q-36 9 -66.5 39
t-37.5 88q42 -9 78 -13t68 -4q38 0 71.5 5.5t69.5 10.5zM396 405q27 0 50 1t52 3v104h-245v-103q33 -4 69 -4.5t74 -0.5z" />
    <glyph glyph-name="hbar" unicode="&#x127;" horiz-adv-x="521" 
d="M-29 649q23 -11 48 -14.5t50 -3.5q-2 38 -8 65.5t-22 56.5q20 -7 47 -7q33 0 69.5 11t78.5 31q-20 -24 -27.5 -63.5t-7.5 -93.5q25 0 50.5 3.5t48.5 14.5q-2 -14 -3 -27t-1 -27t1 -27t3 -27q-48 16 -99 17v-196q43 28 77 56t70 66q17 -16 31 -28.5t28.5 -22.5t30.5 -19.5
t37 -19.5q-4 -14 -6.5 -29.5t-4 -39.5t-2.5 -59t-1 -87q0 -44 0.5 -72.5t1.5 -46.5t3 -29.5t4 -21.5q-20 -7 -40.5 -19t-41 -27t-38.5 -31t-32 -31l-6 6q6 20 11 49.5t8 59t5 54.5t2 36q0 57 -0.5 114t-0.5 114l-13 14l-123 -55v-205q0 -63 27 -73v-15h-184v15
q12 5 19.5 20.5t7.5 43.5v479q-51 -1 -98 -17q2 14 3 27t1 27t-1 27t-3 27z" />
    <glyph glyph-name="Itilde" unicode="&#x128;" horiz-adv-x="396" 
d="M343 739q-21 -14 -35.5 -37.5t-23 -51t-12.5 -57t-4 -56.5q0 -19 1.5 -40.5t5 -44t9 -44t13.5 -39.5q-16 -27 -21.5 -65t-5.5 -76q0 -64 16 -121.5t67 -112.5q-54 7 -94.5 9.5t-73.5 2.5q-45 0 -78 -3t-66 -8q21 13 39 34.5t31 47.5t20.5 55t7.5 57q0 51 -12 99.5
t-38 80.5q28 52 37 95t9 89q0 28 -3 60q-39 16 -53 50.5t-18 76.5q33 -9 61.5 -13t54.5 -4q46 0 85 5.5t81 10.5zM33 899q31 2 65.5 15.5t57.5 27.5l91 -44q35 2 65 16t58 29v-118q-42 -1 -72.5 -12.5t-49.5 -29.5l-93 44q-52 -1 -79.5 -15.5t-42.5 -28.5v116z" />
    <glyph glyph-name="itilde" unicode="&#x129;" horiz-adv-x="265" 
d="M198 455v-367q0 -63 27 -73v-15q-32 -5 -60 -12t-58 -16h-5q-34 46 -34 108v348l-37 16v11q35 5 76 13.5t73 16.5zM-33 691q31 3 65.5 24t57.5 46l91 -71q35 5 64.5 25.5t58.5 46.5v-118q-42 -1 -72.5 -21t-49.5 -48l-93 71q-51 0 -79.5 -22.5t-42.5 -48.5v116z" />
    <glyph glyph-name="Imacron" unicode="&#x12a;" horiz-adv-x="396" 
d="M343 739q-21 -14 -35.5 -37.5t-23 -51t-12.5 -57t-4 -56.5q0 -19 1.5 -40.5t5 -44t9 -44t13.5 -39.5q-16 -27 -21.5 -65t-5.5 -76q0 -64 16 -121.5t67 -112.5q-54 7 -94.5 9.5t-73.5 2.5q-45 0 -78 -3t-66 -8q21 13 39 34.5t31 47.5t20.5 55t7.5 57q0 51 -12 99.5
t-38 80.5q28 52 37 95t9 89q0 28 -3 60q-39 16 -53 50.5t-18 76.5q33 -9 61.5 -13t54.5 -4q46 0 85 5.5t81 10.5zM38 921q26 -13 55.5 -15.5t57.5 -2.5h101q28 0 57.5 2.5t55.5 15.5q-2 -14 -3 -27t-1 -27t1 -27t3 -27q-25 9 -53.5 13t-58.5 4h-103q-30 0 -58.5 -4
t-53.5 -13q2 14 3 27t1 27t-1 27t-3 27z" />
    <glyph glyph-name="imacron" unicode="&#x12b;" horiz-adv-x="265" 
d="M198 455v-367q0 -63 27 -73v-15q-32 -5 -60 -12t-58 -16h-5q-34 46 -34 108v348l-37 16v11q35 5 76 13.5t73 16.5zM-28 735q26 -13 55.5 -15.5t57.5 -2.5h101q28 0 57.5 2.5t55.5 15.5q-2 -14 -3 -27t-1 -27t1 -27t3 -27q-25 9 -53.5 13t-58.5 4h-103q-30 0 -58.5 -4
t-53.5 -13q2 14 3 27t1 27t-1 27t-3 27z" />
    <glyph glyph-name="Ibreve" unicode="&#x12c;" horiz-adv-x="396" 
d="M343 739q-21 -14 -35.5 -37.5t-23 -51t-12.5 -57t-4 -56.5q0 -19 1.5 -40.5t5 -44t9 -44t13.5 -39.5q-16 -27 -21.5 -65t-5.5 -76q0 -64 16 -121.5t67 -112.5q-54 7 -94.5 9.5t-73.5 2.5q-45 0 -78 -3t-66 -8q21 13 39 34.5t31 47.5t20.5 55t7.5 57q0 51 -12 99.5
t-38 80.5q28 52 37 95t9 89q0 28 -3 60q-39 16 -53 50.5t-18 76.5q33 -9 61.5 -13t54.5 -4q46 0 85 5.5t81 10.5zM342 900q-5 -24 -18.5 -42.5t-33 -30.5t-43 -18.5t-47.5 -6.5q-23 0 -45 6t-41 18t-32.5 30.5t-19.5 43.5q12 4 21.5 7.5t17.5 7t15.5 8l17.5 10.5
q2 -33 21.5 -49.5t43.5 -16.5q25 0 46.5 16.5t24.5 48.5q20 -14 36 -20.5t36 -11.5z" />
    <glyph glyph-name="ibreve" unicode="&#x12d;" horiz-adv-x="265" 
d="M198 455v-367q0 -63 27 -73v-15q-32 -5 -60 -12t-58 -16h-5q-34 46 -34 108v348l-37 16v11q35 5 76 13.5t73 16.5zM276 701q-5 -29 -18.5 -51t-33 -37t-43 -22.5t-47.5 -7.5q-23 0 -45 7t-41 21.5t-32.5 37t-19.5 52.5q12 4 21.5 7.5t17.5 7t15.5 8l17.5 10.5
q2 -45 21.5 -65.5t43.5 -20.5q25 0 46.5 21.5t24.5 63.5q20 -14 36 -20.5t36 -11.5z" />
    <glyph glyph-name="Iogonek" unicode="&#x12e;" horiz-adv-x="396" 
d="M343 739q-21 -14 -35.5 -37.5t-23 -51t-12.5 -57t-4 -56.5q0 -19 1.5 -40.5t5 -44t9 -44t13.5 -39.5q-16 -27 -21.5 -65t-5.5 -76q0 -64 16 -121.5t67 -112.5q-38 5 -69 7.5t-57 3.5l-75 -79l28 -90q6 6 17 9t23 4.5t23.5 1.5h18.5q21 0 41.5 -15t32.5 -46q-10 5 -19.5 7
t-18.5 2q-35 0 -61 -32q-9 6 -25 12t-34.5 11.5t-37 8.5t-33.5 3l-35 138l76 65q-30 -1 -55.5 -3.5t-51.5 -6.5q21 13 39 34.5t31 47.5t20.5 55t7.5 57q0 51 -12 99.5t-38 80.5q28 52 37 95t9 89q0 28 -3 60q-39 16 -53 50.5t-18 76.5q33 -9 61.5 -13t54.5 -4q46 0 85 5.5
t81 10.5z" />
    <glyph glyph-name="iogonek" unicode="&#x12f;" horiz-adv-x="266" 
d="M198 455v-367q0 -63 27 -73v-15q-24 -4 -46 -9t-45 -11l-51 -54l28 -90q6 6 17 9t23 4.5t23.5 1.5h18.5q21 0 41.5 -15t32.5 -46q-10 5 -19.5 7t-18.5 2q-35 0 -61 -32q-9 6 -25 12t-34.5 11.5t-37 8.5t-33.5 3l-35 138l78 68q-13 30 -13 72v348l-37 16v11q35 5 76 13.5
t73 16.5zM40 650q17 29 41.5 57.5t54.5 44.5q6 -8 18.5 -19t27 -22t28 -20.5t20.5 -13.5q-34 -24 -57.5 -46.5t-40.5 -56.5q-6 7 -18.5 17.5t-26.5 21.5t-27 21t-20 16z" />
    <glyph glyph-name="Idotaccent" unicode="&#x130;" horiz-adv-x="396" 
d="M343 739q-21 -14 -35.5 -37.5t-23 -51t-12.5 -57t-4 -56.5q0 -19 1.5 -40.5t5 -44t9 -44t13.5 -39.5q-16 -27 -21.5 -65t-5.5 -76q0 -64 16 -121.5t67 -112.5q-54 7 -94.5 9.5t-73.5 2.5q-45 0 -78 -3t-66 -8q21 13 39 34.5t31 47.5t20.5 55t7.5 57q0 51 -12 99.5
t-38 80.5q28 52 37 95t9 89q0 28 -3 60q-39 16 -53 50.5t-18 76.5q33 -9 61.5 -13t54.5 -4q46 0 85 5.5t81 10.5zM119 854q16 26 37.5 51.5t48.5 39.5q6 -7 17 -16.5t24 -19.5t25 -18.5t18 -12.5q-30 -22 -51.5 -42t-36.5 -50q-5 7 -16 16.5t-23.5 19.5t-24 18.5t-18.5 13.5
z" />
    <glyph glyph-name="dotlessi" unicode="&#x131;" horiz-adv-x="265" 
d="M198 455v-367q0 -63 27 -73v-15q-32 -5 -60 -12t-58 -16h-5q-34 46 -34 108v348l-37 16v11q35 5 76 13.5t73 16.5z" />
    <glyph glyph-name="IJ" unicode="&#x132;" horiz-adv-x="752" 
d="M343 739q-21 -14 -35.5 -37.5t-23 -51t-12.5 -57t-4 -56.5q0 -19 1.5 -40.5t5 -44t9 -44t13.5 -39.5q-16 -27 -21.5 -65t-5.5 -76q0 -64 16 -121.5t67 -112.5q-54 7 -94.5 9.5t-73.5 2.5q-45 0 -78 -3t-66 -8q21 13 39 34.5t31 47.5t20.5 55t7.5 57q0 51 -12 99.5
t-38 80.5q28 52 37 95t9 89q0 28 -3 60q-39 16 -53 50.5t-18 76.5q33 -9 61.5 -13t54.5 -4q46 0 85 5.5t81 10.5zM309 -204q19 7 45 26.5t53 46t51.5 56.5t40.5 59q1 12 2 20t1.5 18t1 24.5t0.5 39.5q0 36 -1.5 71t-6 65t-12.5 53t-20 34q24 38 32 91.5t8 110.5q0 42 -2 77
t-3 69q-13 0 -21.5 2.5t-20 5.5t-30 6t-49.5 5q8 15 18 29t21 28q3 4 13.5 5t25.5 1q17 0 42 -1.5t52 -3t53 -2.5t44 -1q34 0 43 6q-3 -8 -10.5 -17.5t-15.5 -20.5t-14 -22.5t-6 -23.5q0 -30 -2 -64.5t-2 -76.5q0 -57 7 -111t29 -92q-16 -39 -22.5 -95.5t-6.5 -119.5
q0 -54 5.5 -88.5t20.5 -43.5v-5q-25 -14 -66 -40t-85.5 -56.5t-87.5 -61.5t-72 -55z" />
    <glyph glyph-name="ij" unicode="&#x133;" 
d="M198 455v-367q0 -63 27 -73v-15q-32 -5 -60 -12t-58 -16h-5q-34 46 -34 108v348l-37 16v11q35 5 76 13.5t73 16.5zM40 650q17 29 41.5 57.5t54.5 44.5q6 -8 18.5 -19t27 -22t28 -20.5t20.5 -13.5q-34 -24 -57.5 -46.5t-40.5 -56.5q-6 7 -18.5 17.5t-26.5 21.5t-27 21
t-20 16zM236 -261q36 51 60 101.5t37 107.5v480l-37 16v11q35 5 76 13.5t73 16.5l18 -30v-377q0 -45 0.5 -76.5t3.5 -53t8 -34.5t14 -22v-4q-21 -7 -47 -22t-54.5 -36.5t-58.5 -50t-58 -62.5zM305 650q17 29 41.5 57.5t54.5 44.5q6 -8 18.5 -19t27 -22t28 -20.5t20.5 -13.5
q-34 -24 -57.5 -46.5t-40.5 -56.5q-6 7 -18.5 17.5t-26.5 21.5t-27 21t-20 16z" />
    <glyph glyph-name="Jcircumflex" unicode="&#x134;" horiz-adv-x="382" 
d="M-61 -204q19 7 45 26.5t53 46t51.5 56.5t40.5 59q1 12 2 20t1.5 18t1 24.5t0.5 39.5q0 36 -1.5 71t-6 65t-12.5 53t-20 34q24 38 32 91.5t8 110.5q0 42 -2 77t-3 69q-13 0 -21.5 2.5t-20 5.5t-30 6t-49.5 5q8 15 18 29t21 28q3 4 13.5 5t25.5 1q17 0 42 -1.5t52 -3
t53 -2.5t44 -1q34 0 43 6q-3 -8 -10.5 -17.5t-15.5 -20.5t-14 -22.5t-6 -23.5q0 -30 -2 -64.5t-2 -76.5q0 -57 7 -111t29 -92q-16 -39 -22.5 -95.5t-6.5 -119.5q0 -54 5.5 -88.5t20.5 -43.5v-5q-25 -14 -66 -40t-85.5 -56.5t-87.5 -61.5t-72 -55zM374 828q-15 -12 -23 -20
t-23 -22q-12 7 -28 14.5t-33 14.5t-33.5 13.5t-29.5 11.5q-14 -5 -31 -11.5t-34 -14t-32.5 -15t-27.5 -13.5q-16 13 -23.5 21.5t-22.5 20.5q35 26 81.5 55.5t88.5 61.5q66 -45 111.5 -75t59.5 -42z" />
    <glyph glyph-name="jcircumflex" unicode="&#x135;" horiz-adv-x="266" 
d="M-28 -261q36 51 60 101.5t37 107.5v480l-37 16v11q35 5 76 13.5t73 16.5l18 -30v-377q0 -45 0.5 -76.5t3.5 -53t8 -34.5t14 -22v-4q-21 -7 -47 -22t-54.5 -36.5t-58.5 -50t-58 -62.5zM285 617q-15 -12 -23 -20t-23 -22q-24 19 -51.5 39.5t-52.5 38.5q-26 -18 -54 -38.5
t-51 -39.5q-16 13 -23.5 21.5t-22.5 20.5q35 35 73.5 75.5t76.5 85.5q66 -70 101.5 -108t49.5 -53z" />
    <glyph glyph-name="Kcommaaccent" unicode="&#x136;" horiz-adv-x="694" 
d="M653 39q-43 -29 -64 -57t-36 -70q-10 42 -39.5 73t-74.5 54q9 9 13.5 23.5t7 41t3.5 67.5t3 103q-5 2 -26.5 20.5t-47.5 41.5l-131 -82q4 -72 11 -137.5t21 -126.5q-26 13 -46.5 18t-39.5 5q-17 0 -33.5 -3t-34 -6.5t-36.5 -6.5t-42 -3h-11t-11 1q21 13 38.5 34.5
t30 47.5t19.5 55t7 57q0 51 -12 99.5t-38 80.5q28 52 38.5 95t10.5 89q0 14 -0.5 35.5t-2.5 37.5q-35 10 -55 34.5t-26 82.5q17 -5 30.5 -9t27.5 -7t31 -4.5t41 -1.5h33.5t24.5 1t27 3.5t40 6.5q-17 -29 -26.5 -58t-14.5 -70t-6.5 -99.5t-2.5 -145.5q34 18 68 42.5t61 47.5
t44 39t19 18q0 16 3 42.5t3 57.5q0 15 -1.5 32t-5.5 33.5t-11 31.5t-18 25q12 -6 26.5 -9.5t28 -5.5t24 -2.5t14.5 -0.5q15 0 28 6t27 12.5t31 12.5t40 6h11q-15 -16 -26 -36.5t-17.5 -43.5t-9.5 -46.5t-3 -45.5q0 -32 5.5 -61.5t14.5 -52.5q-5 -2 -16 -7t-26 -13t-32 -18
t-35 -20q12 -12 27 -23t31.5 -21.5t32.5 -20.5t30 -19q-5 -11 -7.5 -38t-2.5 -62q0 -26 2 -52.5t7 -51t12.5 -44.5t19.5 -32zM291 -156q19 10 31 25t23 44q38 0 66 -21t31 -53q-31 -57 -67 -86.5t-84 -35.5q11 13 18 31t7 36q0 38 -25 60z" />
    <glyph glyph-name="kcommaaccent" unicode="&#x137;" horiz-adv-x="501" 
d="M302 -78q5 13 9.5 32t7.5 40t5 43t2 41v83q-30 21 -61 37.5t-66 30.5v-141q0 -63 27 -73v-15h-184v15q27 10 27 64v526q0 27 -1.5 48t-5 38t-9 32t-14.5 30q18 -7 47 -7q31 0 67 10t81 32q-18 -22 -26.5 -59t-8.5 -97v-208q21 14 42 32t47 44q30 -20 68.5 -33.5
t92.5 -24.5q-9 -29 -9 -70q0 -11 1 -28t3 -25l-148 -56v-4q54 -11 93.5 -27t73.5 -36q-4 -21 -5.5 -42t-1.5 -49q0 -57 7 -89q-20 -9 -42 -21t-43 -25t-38.5 -26t-29.5 -25zM199 271l153 62l-2 33l-151 30v-125zM188 -156q19 10 31 25t23 44q38 0 66 -21t31 -53
q-31 -57 -67 -86.5t-84 -35.5q11 13 18 31t7 36q0 38 -25 60z" />
    <glyph glyph-name="kgreenlandic" unicode="&#x138;" horiz-adv-x="502" 
d="M303 -78q5 13 9.5 32t7.5 40t5 43t2 41v83q-30 21 -61 37.5t-66 30.5v-141q0 -63 27 -73v-15h-184v15q27 10 27 64v266q0 27 -1.5 48t-5 38t-9 32t-14.5 30q18 -7 47 -7q53 0 128 22q-15 -14 -15 -56v-28q21 14 42 32t47 44q30 -20 68.5 -33.5t92.5 -24.5q-9 -29 -9 -70
q0 -11 1 -28t3 -25l-148 -56v-4q54 -11 93.5 -27t73.5 -36q-4 -21 -5.5 -42t-1.5 -49q0 -57 7 -89q-20 -9 -42 -21t-43 -25t-38.5 -26t-29.5 -25zM200 271l153 62l-2 33l-151 30v-125z" />
    <glyph glyph-name="Lacute" unicode="&#x139;" horiz-adv-x="535" 
d="M799 -173q-76 -38 -142 -48t-120 -10q-55 0 -98 14t-78.5 35.5t-65.5 46.5t-59 46.5t-58.5 35.5t-64.5 14q-32 0 -65 -6q40 48 59 113.5t19 137.5q0 21 -2 43.5t-7.5 44t-16 41t-27.5 34.5q28 52 38.5 95t10.5 89q0 47 -5.5 72.5t-17.5 40.5t-30.5 25.5t-45.5 28.5
q19 -2 36.5 -3t34.5 -1q40 0 74 4t64 9t58 9t57 4q20 0 43 -3q-25 0 -47.5 -19t-40 -48.5t-28 -65t-10.5 -69.5v-253q0 -33 2.5 -62.5t7 -53t10.5 -40.5t13 -24q-17 -7 -39.5 -18.5t-34.5 -34.5q6 -20 35.5 -49.5t68.5 -59t80.5 -53.5t70.5 -33q-13 17 -25.5 39.5
t-20.5 39.5q46 -28 85 -47t73.5 -31t66.5 -17t65 -5q17 0 35 1.5t38 3.5zM115 847q12 7 37.5 19t54.5 25.5t56.5 27t44.5 24.5q2 -10 8 -26t13 -32.5t14 -31t11 -21.5q-11 -1 -36.5 -5.5t-57.5 -10.5t-65.5 -13t-58.5 -14q-8 19 -10.5 30t-10.5 28z" />
    <glyph glyph-name="lacute" unicode="&#x13a;" horiz-adv-x="271" 
d="M143 946q6 -8 18.5 -19t27 -22t28 -20.5t20.5 -13.5l-115 -88l-44 31zM18 -21q26 13 39 43t13 70v513q0 25 -1 45t-4.5 37t-9.5 33t-15 33q20 -7 47 -7q33 0 69.5 11t78.5 31q-20 -24 -27.5 -64t-7.5 -92v-484q0 -41 3 -68t10.5 -48t21.5 -40.5t35 -46.5l-6 -9
q-27 13 -45 20.5t-30.5 13.5t-22 12.5t-19.5 17.5q-29 -12 -62.5 -20t-65.5 -8z" />
    <glyph glyph-name="Lcommaaccent" unicode="&#x13b;" horiz-adv-x="535" 
d="M799 -173q-76 -38 -142 -48t-120 -10q-55 0 -98 14t-78.5 35.5t-65.5 46.5t-59 46.5t-58.5 35.5t-64.5 14q-32 0 -65 -6q40 48 59 113.5t19 137.5q0 21 -2 43.5t-7.5 44t-16 41t-27.5 34.5q28 52 38.5 95t10.5 89q0 47 -5.5 72.5t-17.5 40.5t-30.5 25.5t-45.5 28.5
q19 -2 36.5 -3t34.5 -1q40 0 74 4t64 9t58 9t57 4q20 0 43 -3q-25 0 -47.5 -19t-40 -48.5t-28 -65t-10.5 -69.5v-253q0 -33 2.5 -62.5t7 -53t10.5 -40.5t13 -24q-17 -7 -39.5 -18.5t-34.5 -34.5q6 -20 35.5 -49.5t68.5 -59t80.5 -53.5t70.5 -33q-13 17 -25.5 39.5
t-20.5 39.5q46 -28 85 -47t73.5 -31t66.5 -17t65 -5q17 0 35 1.5t38 3.5zM57 -156q19 10 31 25t23 44q38 0 66 -21t31 -53q-31 -57 -67 -86.5t-84 -35.5q11 13 18 31t7 36q0 38 -25 60z" />
    <glyph glyph-name="lcommaaccent" unicode="&#x13c;" horiz-adv-x="271" 
d="M18 -21q26 13 39 43t13 70v513q0 25 -1 45t-4.5 37t-9.5 33t-15 33q20 -7 47 -7q33 0 69.5 11t78.5 31q-20 -24 -27.5 -64t-7.5 -92v-484q0 -41 3 -68t10.5 -48t21.5 -40.5t35 -46.5l-6 -9q-27 13 -45 20.5t-30.5 13.5t-22 12.5t-19.5 17.5q-29 -12 -62.5 -20t-65.5 -8z
M60 -156q19 10 31 25t23 44q38 0 66 -21t31 -53q-31 -57 -67 -86.5t-84 -35.5q11 13 18 31t7 36q0 38 -25 60z" />
    <glyph glyph-name="Lcaron" unicode="&#x13d;" horiz-adv-x="535" 
d="M799 -173q-76 -38 -142 -48t-120 -10q-55 0 -98 14t-78.5 35.5t-65.5 46.5t-59 46.5t-58.5 35.5t-64.5 14q-32 0 -65 -6q40 48 59 113.5t19 137.5q0 21 -2 43.5t-7.5 44t-16 41t-27.5 34.5q28 52 38.5 95t10.5 89q0 47 -5.5 72.5t-17.5 40.5t-30.5 25.5t-45.5 28.5
q19 -2 36.5 -3t34.5 -1q40 0 74 4t64 9t58 9t57 4q20 0 43 -3q-25 0 -47.5 -19t-40 -48.5t-28 -65t-10.5 -69.5v-253q0 -33 2.5 -62.5t7 -53t10.5 -40.5t13 -24q-17 -7 -39.5 -18.5t-34.5 -34.5q6 -20 35.5 -49.5t68.5 -59t80.5 -53.5t70.5 -33q-13 17 -25.5 39.5
t-20.5 39.5q46 -28 85 -47t73.5 -31t66.5 -17t65 -5q17 0 35 1.5t38 3.5zM355 903q-14 -12 -59.5 -42t-111.5 -75q-42 32 -88.5 61.5t-81.5 55.5q15 13 22.5 20.5t23.5 21.5q12 -6 27.5 -13.5t32.5 -15t34 -14t31 -11.5q13 4 29.5 10.5t33.5 14t33 15t28 14.5q15 -14 23 -22
t23 -20z" />
    <glyph glyph-name="lcaron" unicode="&#x13e;" horiz-adv-x="271" 
d="M18 -21q26 13 39 43t13 70v513q0 25 -1 45t-4.5 37t-9.5 33t-15 33q20 -7 47 -7q33 0 69.5 11t78.5 31q-20 -24 -27.5 -64t-7.5 -92v-484q0 -41 3 -68t10.5 -48t21.5 -40.5t35 -46.5l-6 -9q-27 13 -45 20.5t-30.5 13.5t-22 12.5t-19.5 17.5q-29 -12 -62.5 -20t-65.5 -8z
M244 644q24 20 34.5 42.5t19.5 56.5q15 0 33 -5.5t33.5 -18t27 -32.5t13.5 -48q-7 -20 -19.5 -45t-32 -48t-46.5 -39.5t-63 -19.5q27 33 27 75q0 24 -8 46t-19 36z" />
    <glyph glyph-name="Ldot" unicode="&#x13f;" horiz-adv-x="535" 
d="M799 -173q-76 -38 -142 -48t-120 -10q-55 0 -98 14t-78.5 35.5t-65.5 46.5t-59 46.5t-58.5 35.5t-64.5 14q-32 0 -65 -6q40 48 59 113.5t19 137.5q0 21 -2 43.5t-7.5 44t-16 41t-27.5 34.5q28 52 38.5 95t10.5 89q0 47 -5.5 72.5t-17.5 40.5t-30.5 25.5t-45.5 28.5
q19 -2 36.5 -3t34.5 -1q40 0 74 4t64 9t58 9t57 4q20 0 43 -3q-25 0 -47.5 -19t-40 -48.5t-28 -65t-10.5 -69.5v-253q0 -33 2.5 -62.5t7 -53t10.5 -40.5t13 -24q-17 -7 -39.5 -18.5t-34.5 -34.5q6 -20 35.5 -49.5t68.5 -59t80.5 -53.5t70.5 -33q-13 17 -25.5 39.5
t-20.5 39.5q46 -28 85 -47t73.5 -31t66.5 -17t65 -5q17 0 35 1.5t38 3.5zM332 259q17 29 41.5 57.5t54.5 44.5q6 -8 18.5 -19t27 -22t28 -20.5t20.5 -13.5q-34 -24 -57.5 -46.5t-40.5 -56.5q-6 7 -18.5 17.5t-26.5 21.5t-27 21t-20 16z" />
    <glyph glyph-name="ldot" unicode="&#x140;" horiz-adv-x="413" 
d="M18 -21q26 13 39 43t13 70v513q0 25 -1 45t-4.5 37t-9.5 33t-15 33q20 -7 47 -7q33 0 69.5 11t78.5 31q-20 -24 -27.5 -64t-7.5 -92v-484q0 -41 3 -68t10.5 -48t21.5 -40.5t35 -46.5l-6 -9q-27 13 -45 20.5t-30.5 13.5t-22 12.5t-19.5 17.5q-29 -12 -62.5 -20t-65.5 -8z
M248 312q17 29 41.5 57.5t54.5 44.5q6 -8 18.5 -19t27 -22t28 -20.5t20.5 -13.5q-34 -24 -57.5 -46.5t-40.5 -56.5q-6 7 -18.5 17.5t-26.5 21.5t-27 21t-20 16z" />
    <glyph glyph-name="Lslash" unicode="&#x141;" horiz-adv-x="557" 
d="M821 -173q-76 -38 -142 -48t-120 -10q-55 0 -98 14t-78.5 35.5t-65.5 46.5t-59 46.5t-58.5 35.5t-64.5 14q-32 0 -65 -6q40 48 59 113.5t19 137.5q0 11 -0.5 21.5t-1.5 21.5l-4 -3q-33 -28 -55 -48t-30 -37l-66 80q4 0 18 6.5t33.5 18t42 26t44.5 30.5q-14 29 -34 47
q28 52 38.5 95t10.5 89q0 47 -5.5 72.5t-17.5 40.5t-30.5 25.5t-45.5 28.5q19 -2 36.5 -3t34.5 -1q40 0 74 4t64 9t58 9t57 4q20 0 43 -3q-25 0 -47.5 -19t-40 -48.5t-28 -65t-10.5 -69.5v-89l93 77q32 27 54 47.5t29 36.5l54 -80q-6 0 -27.5 -13t-49.5 -32t-57.5 -41.5
t-51.5 -40.5l-44 -37v-81q0 -33 2.5 -62.5t7 -53t10.5 -40.5t13 -24q-17 -7 -39.5 -18.5t-34.5 -34.5q6 -20 35.5 -49.5t68.5 -59t80.5 -53.5t70.5 -33q-13 17 -25.5 39.5t-20.5 39.5q46 -28 85 -47t73.5 -31t66.5 -17t65 -5q17 0 35 1.5t38 3.5z" />
    <glyph glyph-name="lslash" unicode="&#x142;" horiz-adv-x="297" 
d="M29 -21q26 13 39 43t13 70v180l-54 -46l-38 52l92 78v249q0 25 -1 45t-4.5 37t-9.5 33t-15 33q20 -7 47 -7q33 0 69.5 11t78.5 31q-20 -24 -27.5 -64t-7.5 -92v-165l86 74l38 -52l-124 -106v-235q0 -41 3 -68t10.5 -48t21.5 -40.5t35 -46.5l-6 -9q-27 13 -45 20.5
t-30.5 13.5t-22 12.5t-19.5 17.5q-29 -12 -62.5 -20t-65.5 -8z" />
    <glyph glyph-name="Nacute" unicode="&#x143;" horiz-adv-x="768" 
d="M522 130q-5 99 -7.5 190t-4 161t-2 112t-0.5 43q-5 61 -63 84q10 -1 19.5 -1h19.5q45 0 82.5 4.5t68.5 9.5t56.5 9.5t47.5 4.5q12 0 23 -3q-60 -43 -92.5 -93.5t-32.5 -113.5q0 -74 49 -168q-23 -58 -37.5 -125t-14.5 -134q0 -29 2.5 -66.5t9.5 -73.5q30 -32 53.5 -50
t42.5 -27t35.5 -12t32.5 -5l-26 66q34 -19 68 -36t70 -30t75.5 -20.5t84.5 -7.5q30 0 62.5 2t68.5 7q-88 -35 -165.5 -50.5t-146.5 -15.5q-88 0 -162.5 25t-138 67.5t-116 98t-96 117t-78 124.5t-61.5 120v-102q0 -62 4 -104t13 -73t23 -54.5t34 -47.5q-22 6 -38.5 12
t-32 14t-32 20t-38.5 30q-27 -48 -72 -83t-121 -60q30 29 56 65.5t45.5 78t31 85.5t11.5 89q0 42 -10.5 81t-34.5 75q49 94 49 168q0 63 -32.5 113.5t-92.5 93.5q10 3 23 3q20 0 45.5 -4.5t56 -9.5t66 -9.5t76.5 -4.5h19.5t19.5 1q-54 -21 -62 -74q18 -45 43.5 -104t57 -124
t68.5 -131.5t77 -126.5zM322 847q12 7 37.5 19t54.5 25.5t56.5 27t44.5 24.5q2 -10 8 -26t13 -32.5t14 -31t11 -21.5q-11 -1 -36.5 -5.5t-57.5 -10.5t-65.5 -13t-58.5 -14q-8 19 -10.5 30t-10.5 28z" />
    <glyph glyph-name="nacute" unicode="&#x144;" horiz-adv-x="520" 
d="M199 372q43 28 77 56t70 66q17 -16 31 -28.5t28.5 -22.5t30.5 -19.5t37 -19.5q-4 -14 -6.5 -29.5t-4 -39.5t-2.5 -59t-1 -87q0 -44 0.5 -72.5t1.5 -46.5t3 -29.5t4 -21.5q-20 -7 -40.5 -19t-41 -27t-38.5 -31t-32 -31l-6 6q6 20 11 49.5t8 59t5 54.5t2 36q0 57 -0.5 114
t-0.5 114l-13 14l-123 -55v-215q0 -63 27 -73v-15h-184v15q12 5 19.5 20.5t7.5 43.5v349l-37 16v11q35 5 76 13.5t73 16.5l18 -30v-83zM182 617q7 12 19.5 32t27 42.5t28 45.5t22.5 41q6 -8 18.5 -19t27 -22t28 -20.5t20.5 -13.5q-9 -6 -26 -19.5t-37 -31.5t-41.5 -38
t-40.5 -39q-16 13 -23.5 21.5t-22.5 20.5z" />
    <glyph glyph-name="Ncommaaccent" unicode="&#x145;" horiz-adv-x="768" 
d="M522 130q-5 99 -7.5 190t-4 161t-2 112t-0.5 43q-5 61 -63 84q10 -1 19.5 -1h19.5q45 0 82.5 4.5t68.5 9.5t56.5 9.5t47.5 4.5q12 0 23 -3q-60 -43 -92.5 -93.5t-32.5 -113.5q0 -74 49 -168q-23 -58 -37.5 -125t-14.5 -134q0 -29 2.5 -66.5t9.5 -73.5q30 -32 53.5 -50
t42.5 -27t35.5 -12t32.5 -5l-26 66q34 -19 68 -36t70 -30t75.5 -20.5t84.5 -7.5q30 0 62.5 2t68.5 7q-88 -35 -165.5 -50.5t-146.5 -15.5q-88 0 -162.5 25t-138 67.5t-116 98t-96 117t-78 124.5t-61.5 120v-102q0 -62 4 -104t13 -73t23 -54.5t34 -47.5q-22 6 -38.5 12
t-32 14t-32 20t-38.5 30q-27 -48 -72 -83t-121 -60q30 29 56 65.5t45.5 78t31 85.5t11.5 89q0 42 -10.5 81t-34.5 75q49 94 49 168q0 63 -32.5 113.5t-92.5 93.5q10 3 23 3q20 0 45.5 -4.5t56 -9.5t66 -9.5t76.5 -4.5h19.5t19.5 1q-54 -21 -62 -74q18 -45 43.5 -104t57 -124
t68.5 -131.5t77 -126.5zM285 -156q19 10 31 25t23 44q38 0 66 -21t31 -53q-31 -57 -67 -86.5t-84 -35.5q11 13 18 31t7 36q0 38 -25 60z" />
    <glyph glyph-name="ncommaaccent" unicode="&#x146;" horiz-adv-x="520" 
d="M199 372q43 28 77 56t70 66q17 -16 31 -28.5t28.5 -22.5t30.5 -19.5t37 -19.5q-4 -14 -6.5 -29.5t-4 -39.5t-2.5 -59t-1 -87q0 -44 0.5 -72.5t1.5 -46.5t3 -29.5t4 -21.5q-20 -7 -40.5 -19t-41 -27t-38.5 -31t-32 -31l-6 6q6 20 11 49.5t8 59t5 54.5t2 36q0 57 -0.5 114
t-0.5 114l-13 14l-123 -55v-215q0 -63 27 -73v-15h-184v15q12 5 19.5 20.5t7.5 43.5v349l-37 16v11q35 5 76 13.5t73 16.5l18 -30v-83zM195 -156q19 10 31 25t23 44q38 0 66 -21t31 -53q-31 -57 -67 -86.5t-84 -35.5q11 13 18 31t7 36q0 38 -25 60z" />
    <glyph glyph-name="Ncaron" unicode="&#x147;" horiz-adv-x="768" 
d="M522 130q-5 99 -7.5 190t-4 161t-2 112t-0.5 43q-5 61 -63 84q10 -1 19.5 -1h19.5q45 0 82.5 4.5t68.5 9.5t56.5 9.5t47.5 4.5q12 0 23 -3q-60 -43 -92.5 -93.5t-32.5 -113.5q0 -74 49 -168q-23 -58 -37.5 -125t-14.5 -134q0 -29 2.5 -66.5t9.5 -73.5q30 -32 53.5 -50
t42.5 -27t35.5 -12t32.5 -5l-26 66q34 -19 68 -36t70 -30t75.5 -20.5t84.5 -7.5q30 0 62.5 2t68.5 7q-88 -35 -165.5 -50.5t-146.5 -15.5q-88 0 -162.5 25t-138 67.5t-116 98t-96 117t-78 124.5t-61.5 120v-102q0 -62 4 -104t13 -73t23 -54.5t34 -47.5q-22 6 -38.5 12
t-32 14t-32 20t-38.5 30q-27 -48 -72 -83t-121 -60q30 29 56 65.5t45.5 78t31 85.5t11.5 89q0 42 -10.5 81t-34.5 75q49 94 49 168q0 63 -32.5 113.5t-92.5 93.5q10 3 23 3q20 0 45.5 -4.5t56 -9.5t66 -9.5t76.5 -4.5h19.5t19.5 1q-54 -21 -62 -74q18 -45 43.5 -104t57 -124
t68.5 -131.5t77 -126.5zM562 903q-14 -12 -59.5 -42t-111.5 -75q-42 32 -88.5 61.5t-81.5 55.5q15 13 22.5 20.5t23.5 21.5q12 -6 27.5 -13.5t32.5 -15t34 -14t31 -11.5q13 4 29.5 10.5t33.5 14t33 15t28 14.5q15 -14 23 -22t23 -20z" />
    <glyph glyph-name="ncaron" unicode="&#x148;" horiz-adv-x="520" 
d="M199 372q43 28 77 56t70 66q17 -16 31 -28.5t28.5 -22.5t30.5 -19.5t37 -19.5q-4 -14 -6.5 -29.5t-4 -39.5t-2.5 -59t-1 -87q0 -44 0.5 -72.5t1.5 -46.5t3 -29.5t4 -21.5q-20 -7 -40.5 -19t-41 -27t-38.5 -31t-32 -31l-6 6q6 20 11 49.5t8 59t5 54.5t2 36q0 57 -0.5 114
t-0.5 114l-13 14l-123 -55v-215q0 -63 27 -73v-15h-184v15q12 5 19.5 20.5t7.5 43.5v349l-37 16v11q35 5 76 13.5t73 16.5l18 -30v-83zM423 736q-14 -15 -49.5 -53t-101.5 -108q-38 45 -76.5 85.5t-73.5 75.5q15 13 22.5 20.5t23.5 21.5q23 -19 51 -39.5t54 -38.5
q25 18 52.5 38.5t51.5 39.5q15 -14 23 -22t23 -20z" />
    <glyph glyph-name="napostrophe" unicode="&#x149;" horiz-adv-x="520" 
d="M199 372q43 28 77 56t70 66q17 -16 31 -28.5t28.5 -22.5t30.5 -19.5t37 -19.5q-4 -14 -6.5 -29.5t-4 -39.5t-2.5 -59t-1 -87q0 -44 0.5 -72.5t1.5 -46.5t3 -29.5t4 -21.5q-20 -7 -40.5 -19t-41 -27t-38.5 -31t-32 -31l-6 6q6 20 11 49.5t8 59t5 54.5t2 36q0 57 -0.5 114
t-0.5 114l-13 14l-123 -55v-215q0 -63 27 -73v-15h-184v15q12 5 19.5 20.5t7.5 43.5v349l-37 16v11q35 5 76 13.5t73 16.5l18 -30v-83zM-22 547q-2 13 -4.5 36.5t-5.5 50t-6.5 53t-7.5 46.5q9 -2 24.5 -2.5t32.5 -0.5q20 0 37.5 0.5t26.5 1.5q-3 -10 -7.5 -31t-10 -47.5
t-10 -56t-7.5 -55.5q-21 1 -32 2.5t-30 2.5z" />
    <glyph glyph-name="Eng" unicode="&#x14a;" horiz-adv-x="792" 
d="M661 71q0 -54 5.5 -88.5t20.5 -43.5v-5q-25 -14 -66 -40t-85.5 -56.5t-87.5 -61.5t-72 -55l-24 49q17 10 39.5 30.5t45.5 45t43.5 50t32.5 45.5v13q-42 43 -77.5 91t-65.5 97.5t-55 98.5t-46 93v-93q0 -62 4 -104t13 -73t23 -54.5t34 -47.5q-22 6 -38.5 12t-32 14t-32 20
t-38.5 30q-29 -47 -79 -83.5t-134 -59.5q30 29 56 65.5t45.5 78t31 85.5t11.5 89q0 42 -10.5 81t-34.5 75q49 94 49 168q0 63 -32.5 113.5t-92.5 93.5q10 3 23 3q22 0 49 -4.5t60 -9.5t71.5 -9.5t83.5 -4.5h19.5t19.5 1q-54 -21 -62 -74q18 -44 43 -102.5t56 -124
t66.5 -134.5t74.5 -134q1 27 1 53.5v52.5q0 77 -1 146t-2 121t-2 82l-1 30q-5 61 -63 84q10 -1 19.5 -1h19.5q45 0 83.5 4.5t71.5 9.5t60 9.5t49 4.5q12 0 23 -3q-60 -43 -92.5 -93.5t-32.5 -113.5q0 -74 49 -168q-9 -22 -16 -55.5t-11.5 -69.5t-7 -71t-2.5 -61v-41z" />
    <glyph glyph-name="eng" unicode="&#x14b;" horiz-adv-x="526" 
d="M473 404q-3 -9 -5.5 -23t-4 -47t-2 -93.5t-0.5 -162.5q0 -45 0.5 -76.5t3.5 -53t8 -34.5t14 -22v-4q-42 -14 -98.5 -58t-113.5 -113l-35 22q36 51 60 101.5t37 107.5q0 111 -0.5 180t-0.5 110.5t-0.5 64t-0.5 41.5l-13 14l-123 -55v-215q0 -63 27 -73v-15h-184v15
q12 5 19.5 20.5t7.5 43.5v349l-37 16v11q35 5 76 13.5t73 16.5l18 -30v-83q43 28 77 56t70 66q17 -16 31 -28.5t28.5 -22.5t30.5 -19.5t37 -19.5z" />
    <glyph glyph-name="Omacron" unicode="&#x14c;" horiz-adv-x="691" 
d="M222 113q18 -10 33 -18t30.5 -14.5t33.5 -11.5t41 -9q42 21 67 27.5t33 11.5q2 97 3.5 203.5t1.5 202.5v49.5t-2 47.5q-18 10 -33 18t-30.5 14.5t-33 11.5t-40.5 9q-42 -21 -67.5 -29t-33.5 -13q-1 -25 -2 -60.5t-1.5 -76.5t-0.5 -86v-88q0 -45 0.5 -97t0.5 -92zM42 362
q13 14 23.5 35.5t18.5 47t12.5 53.5t4.5 55q0 46 -14 87t-46 60q31 2 67.5 8t73.5 15t71 19.5t60 22.5q33 -5 78.5 -16.5t90.5 -23.5l82.5 -22t54.5 -11q-14 -23 -20 -57.5t-6 -71.5q0 -56 14 -111.5t40 -90.5q-25 -31 -41 -84.5t-16 -110.5q0 -46 14 -86t46 -60
q-31 -2 -68.5 -8t-75 -15t-72.5 -19.5t-60 -22.5q-33 4 -78 15t-89.5 23t-81.5 22.5t-53 12.5q14 13 19.5 42.5t5.5 67.5q0 35 -4.5 73.5t-12 71t-17.5 54.5t-21 25zM186 921q26 -13 55.5 -15.5t57.5 -2.5h101q28 0 57.5 2.5t55.5 15.5q-2 -14 -3 -27t-1 -27t1 -27t3 -27
q-25 9 -53.5 13t-58.5 4h-103q-30 0 -58.5 -4t-53.5 -13q2 14 3 27t1 27t-1 27t-3 27z" />
    <glyph glyph-name="omacron" unicode="&#x14d;" horiz-adv-x="511" 
d="M214 484q69 -23 115 -31t85 -8q22 0 33.5 0.5t22.5 2.5q-12 -65 -12 -153q0 -108 18 -210q-25 -3 -53 -13t-56 -25t-54 -34.5t-47 -40.5q-11 9 -38 18.5t-59 17.5t-64 13t-53 5q-6 0 -11.5 -0.5t-10.5 -1.5q14 12 20.5 47.5t6.5 92.5q0 29 -2 63.5t-5.5 65.5t-7.5 53
t-8 27q39 7 87 36.5t93 74.5zM334 357q-46 4 -90 13.5t-67 21.5q5 -42 7 -78.5t2 -73.5q0 -29 -1.5 -65.5t-3.5 -71.5q34 -4 75 -11t76 -18zM98 735q26 -13 55.5 -15.5t57.5 -2.5h101q28 0 57.5 2.5t55.5 15.5q-2 -14 -3 -27t-1 -27t1 -27t3 -27q-25 9 -53.5 13t-58.5 4
h-103q-30 0 -58.5 -4t-53.5 -13q2 14 3 27t1 27t-1 27t-3 27z" />
    <glyph glyph-name="Obreve" unicode="&#x14e;" horiz-adv-x="691" 
d="M222 113q18 -10 33 -18t30.5 -14.5t33.5 -11.5t41 -9q42 21 67 27.5t33 11.5q2 97 3.5 203.5t1.5 202.5v49.5t-2 47.5q-18 10 -33 18t-30.5 14.5t-33 11.5t-40.5 9q-42 -21 -67.5 -29t-33.5 -13q-1 -25 -2 -60.5t-1.5 -76.5t-0.5 -86v-88q0 -45 0.5 -97t0.5 -92zM42 362
q13 14 23.5 35.5t18.5 47t12.5 53.5t4.5 55q0 46 -14 87t-46 60q31 2 67.5 8t73.5 15t71 19.5t60 22.5q33 -5 78.5 -16.5t90.5 -23.5l82.5 -22t54.5 -11q-14 -23 -20 -57.5t-6 -71.5q0 -56 14 -111.5t40 -90.5q-25 -31 -41 -84.5t-16 -110.5q0 -46 14 -86t46 -60
q-31 -2 -68.5 -8t-75 -15t-72.5 -19.5t-60 -22.5q-33 4 -78 15t-89.5 23t-81.5 22.5t-53 12.5q14 13 19.5 42.5t5.5 67.5q0 35 -4.5 73.5t-12 71t-17.5 54.5t-21 25zM490 900q-5 -24 -18.5 -42.5t-33 -30.5t-43 -18.5t-47.5 -6.5q-23 0 -45 6t-41 18t-32.5 30.5t-19.5 43.5
q12 4 21.5 7.5t17.5 7t15.5 8l17.5 10.5q2 -33 21.5 -49.5t43.5 -16.5q25 0 46.5 16.5t24.5 48.5q20 -14 36 -20.5t36 -11.5z" />
    <glyph glyph-name="obreve" unicode="&#x14f;" horiz-adv-x="511" 
d="M214 484q69 -23 115 -31t85 -8q22 0 33.5 0.5t22.5 2.5q-12 -65 -12 -153q0 -108 18 -210q-25 -3 -53 -13t-56 -25t-54 -34.5t-47 -40.5q-11 9 -38 18.5t-59 17.5t-64 13t-53 5q-6 0 -11.5 -0.5t-10.5 -1.5q14 12 20.5 47.5t6.5 92.5q0 29 -2 63.5t-5.5 65.5t-7.5 53
t-8 27q39 7 87 36.5t93 74.5zM334 357q-46 4 -90 13.5t-67 21.5q5 -42 7 -78.5t2 -73.5q0 -29 -1.5 -65.5t-3.5 -71.5q34 -4 75 -11t76 -18zM402 701q-5 -29 -18.5 -51t-33 -37t-43 -22.5t-47.5 -7.5q-23 0 -45 7t-41 21.5t-32.5 37t-19.5 52.5q12 4 21.5 7.5t17.5 7t15.5 8
l17.5 10.5q2 -45 21.5 -65.5t43.5 -20.5q25 0 46.5 21.5t24.5 63.5q20 -14 36 -20.5t36 -11.5z" />
    <glyph glyph-name="Ohungarumlaut" unicode="&#x150;" horiz-adv-x="691" 
d="M222 113q18 -10 33 -18t30.5 -14.5t33.5 -11.5t41 -9q42 21 67 27.5t33 11.5q2 97 3.5 203.5t1.5 202.5v49.5t-2 47.5q-18 10 -33 18t-30.5 14.5t-33 11.5t-40.5 9q-42 -21 -67.5 -29t-33.5 -13q-1 -25 -2 -60.5t-1.5 -76.5t-0.5 -86v-88q0 -45 0.5 -97t0.5 -92zM42 362
q13 14 23.5 35.5t18.5 47t12.5 53.5t4.5 55q0 46 -14 87t-46 60q31 2 67.5 8t73.5 15t71 19.5t60 22.5q33 -5 78.5 -16.5t90.5 -23.5l82.5 -22t54.5 -11q-14 -23 -20 -57.5t-6 -71.5q0 -56 14 -111.5t40 -90.5q-25 -31 -41 -84.5t-16 -110.5q0 -46 14 -86t46 -60
q-31 -2 -68.5 -8t-75 -15t-72.5 -19.5t-60 -22.5q-33 4 -78 15t-89.5 23t-81.5 22.5t-53 12.5q14 13 19.5 42.5t5.5 67.5q0 35 -4.5 73.5t-12 71t-17.5 54.5t-21 25zM193 833q10 7 30 20.5t42.5 29t44 31.5t34.5 29q3 -9 11 -22t17 -26.5t17.5 -25.5t13.5 -18q-9 -3 -31 -10
t-48.5 -16.5t-54 -20.5t-49.5 -21q-9 17 -13 26t-14 24zM411 833q10 7 30 20.5t42.5 29t44 31.5t34.5 29q3 -9 11 -22t17 -26.5t17.5 -25.5t13.5 -18q-9 -3 -31 -10t-48.5 -16.5t-54 -20.5t-49.5 -21q-9 17 -13 26t-14 24z" />
    <glyph glyph-name="ohungarumlaut" unicode="&#x151;" horiz-adv-x="511" 
d="M214 484q69 -23 115 -31t85 -8q22 0 33.5 0.5t22.5 2.5q-12 -65 -12 -153q0 -108 18 -210q-25 -3 -53 -13t-56 -25t-54 -34.5t-47 -40.5q-11 9 -38 18.5t-59 17.5t-64 13t-53 5q-6 0 -11.5 -0.5t-10.5 -1.5q14 12 20.5 47.5t6.5 92.5q0 29 -2 63.5t-5.5 65.5t-7.5 53
t-8 27q39 7 87 36.5t93 74.5zM334 357q-46 4 -90 13.5t-67 21.5q5 -42 7 -78.5t2 -73.5q0 -29 -1.5 -65.5t-3.5 -71.5q34 -4 75 -11t76 -18zM101 617q7 12 19.5 32t27 42.5t28 45.5t22.5 41q6 -8 18.5 -19t27 -22t28 -20.5t20.5 -13.5q-9 -6 -26 -19.5t-37 -31.5t-41.5 -38
t-40.5 -39q-16 13 -23.5 21.5t-22.5 20.5zM291 617q7 12 19.5 32t27 42.5t28 45.5t22.5 41q6 -8 18.5 -19t27 -22t28 -20.5t20.5 -13.5q-9 -6 -26 -19.5t-37 -31.5t-41.5 -38t-40.5 -39q-16 13 -23.5 21.5t-22.5 20.5z" />
    <glyph glyph-name="OE" unicode="&#x152;" horiz-adv-x="929" 
d="M872 733q0 -34 -12 -57.5t-30 -38.5t-39 -21.5t-40 -6.5q-29 0 -56 15t-40 29q-6 -5 -17 -10.5t-23 -10t-22.5 -7.5t-15.5 -3q-2 -9 -3 -17.5t-1 -25.5v-48.5v-88.5q14 -2 25.5 -3.5t21.5 -1.5q23 0 39.5 8t34.5 21q19 -17 44.5 -40t57.5 -39q-27 -13 -53 -35t-48 -39
q-12 11 -30 22.5t-41 11.5q-24 0 -48 -7q-2 -11 -3.5 -25.5t-2.5 -30.5t-1.5 -30.5t-0.5 -24.5q0 -23 2 -55t6 -58q19 -13 45.5 -21t68.5 -25q2 2 11 6t19 7.5t18 6.5l8 3q-2 17 -5 36.5t-8 28.5q21 19 41 34.5t39.5 28.5t40 23.5t44.5 20.5q-11 -20 -16.5 -53.5t-5.5 -66.5
q0 -27 3.5 -49t8.5 -32q-28 -14 -45.5 -23.5t-36 -19t-44 -21.5t-68.5 -31q-63 10 -128 18.5t-123 20.5q-85 -13 -178.5 -25t-181.5 -12h-22.5t-22.5 1q25 18 41.5 42t26.5 51.5t14.5 56.5t4.5 56q0 34 -5.5 65.5t-13.5 57t-17.5 43t-16.5 23.5q17 17 28.5 41.5t18 51.5
t9 54.5t2.5 50.5q0 15 -0.5 26.5t-1.5 19.5q-20 4 -38.5 13t-34 24t-26.5 37.5t-15 54.5q15 -4 48 -9.5t76.5 -10t95 -7.5t102.5 -3q81 0 162 11t144 41q22 -11 38.5 -18.5t31.5 -12.5t30 -7.5t33 -2.5q46 0 97 12zM249 55q7 3 29 8t48 10.5t51.5 11.5t39.5 11
q11 29 17 61.5t6 63.5q0 45 -9.5 86t-26.5 62q20 20 27 56.5t7 78.5q0 25 -2.5 52t-7.5 53q-24 0 -51.5 -0.5t-51 -0.5t-39.5 -0.5t-17 -0.5q-5 -15 -8.5 -41.5t-5.5 -61t-2.5 -75t-0.5 -83.5q0 -66 -1 -135t-2 -156z" />
    <glyph glyph-name="oe" unicode="&#x153;" horiz-adv-x="735" 
d="M214 484q25 -4 55 -8t69 -4q22 0 47 2t54 7q20 -4 49.5 -7t62.5 -5t66.5 -3.5t62.5 -2.5q-3 -18 -3 -45q0 -21 2 -45.5t5 -48.5t8 -46t11 -38q-61 -5 -124 -13.5t-123 -18.5q-1 -29 -4 -57t-5 -49q12 -5 30.5 -9t39.5 -7.5t41 -6t34 -3.5q5 31 24.5 53t66.5 36
q-1 -12 -1 -23.5v-22.5q0 -34 2.5 -53.5t9.5 -38.5q-19 -2 -45 -7.5t-52 -14t-49.5 -18t-37.5 -19.5q-17 12 -39.5 22.5t-47.5 18.5t-50 13.5t-45 8.5q-16 -14 -31 -28.5t-31 -30.5q-11 9 -38 18.5t-59 17.5t-64 13t-53 5q-6 0 -11.5 -0.5t-10.5 -1.5q14 12 20.5 47.5
t6.5 92.5q0 29 -2 63.5t-5.5 65.5t-7.5 53t-8 27q39 7 87 36.5t93 74.5zM333 230q0 42 -2.5 73.5t-6.5 54.5q-45 4 -85.5 13.5t-61.5 20.5q5 -42 7 -78.5t2 -73.5q0 -29 -1.5 -65.5t-3.5 -71.5q31 -4 67.5 -10.5t70.5 -15.5q8 34 11 76.5t3 76.5zM562 377q-23 0 -54 4.5
t-59 12.5q4 -26 6.5 -51.5t2.5 -47.5v-17.5t-1 -16.5l117 29q-5 20 -8.5 42t-3.5 45z" />
    <glyph glyph-name="Racute" unicode="&#x154;" horiz-adv-x="697" 
d="M646 39q-42 -30 -65.5 -72.5t-37.5 -84.5q-5 20 -14.5 43t-23.5 44.5t-32.5 40t-40.5 29.5q9 9 13.5 23.5t7 41t3.5 67.5t3 103q-4 2 -26.5 19t-48.5 38q-35 -21 -68.5 -41t-61.5 -37q4 -75 11.5 -141.5t20.5 -121.5q-26 13 -46.5 18t-39.5 5q-17 0 -33.5 -3t-34 -6.5
t-36.5 -6.5t-42 -3h-11t-11 1q21 13 39 34.5t31 47.5t20.5 55t7.5 57q0 51 -12 99.5t-38 80.5q28 52 38 98.5t10 92.5q0 27 -3 59q-42 6 -64.5 31.5t-22.5 79.5q42 -9 69 -12.5t55 -3.5q16 0 35 1.5t40.5 7.5t46.5 18.5t53 34.5q11 -9 44 -23t77 -27t93.5 -22t93.5 -9
q14 0 27 1t27 3q-11 -23 -43 -47.5t-71 -39.5q-3 -14 -3 -30t1.5 -34t4 -36t6.5 -34t9 -27q-10 -3 -34.5 -15.5t-58.5 -32.5q23 -21 50 -44t55 -40q-5 -11 -7.5 -38t-2.5 -62q0 -26 2 -52.5t7 -51t12.5 -44.5t19.5 -32zM442 619q-54 8 -100 14t-91 17q-2 -25 -2 -54v-59v-78
v-79q32 19 66 38.5t63 36t48 28t21 13.5zM288 847q12 7 37.5 19t54.5 25.5t56.5 27t44.5 24.5q2 -10 8 -26t13 -32.5t14 -31t11 -21.5q-11 -1 -36.5 -5.5t-57.5 -10.5t-65.5 -13t-58.5 -14q-8 19 -10.5 30t-10.5 28z" />
    <glyph glyph-name="racute" unicode="&#x155;" horiz-adv-x="415" 
d="M200 321q23 37 43 78t37 87q19 -12 54 -24.5t77 -22.5q-5 -42 -18 -76.5t-33 -57.5l-67 35h-12l-81 -114v-138q0 -35 12.5 -50.5t44.5 -20.5v-17h-214v15q27 10 27 64v349l-37 16v11q35 5 76 13.5t73 16.5l18 -30v-134zM140 617q7 12 19.5 32t27 42.5t28 45.5t22.5 41
q6 -8 18.5 -19t27 -22t28 -20.5t20.5 -13.5q-9 -6 -26 -19.5t-37 -31.5t-41.5 -38t-40.5 -39q-16 13 -23.5 21.5t-22.5 20.5z" />
    <glyph glyph-name="Rcommaaccent" unicode="&#x156;" horiz-adv-x="704" 
d="M653 39q-42 -30 -65.5 -72.5t-37.5 -84.5q-5 20 -14.5 43t-23.5 44.5t-32.5 40t-40.5 29.5q9 9 13.5 23.5t7 41t3.5 67.5t3 103q-4 2 -26.5 19t-48.5 38q-35 -21 -68.5 -41t-61.5 -37q4 -75 11.5 -141.5t20.5 -121.5q-26 13 -46.5 18t-39.5 5q-17 0 -33.5 -3t-34 -6.5
t-36.5 -6.5t-42 -3h-11t-11 1q21 13 39 34.5t31 47.5t20.5 55t7.5 57q0 51 -12 99.5t-38 80.5q28 52 38 98.5t10 92.5q0 27 -3 59q-42 6 -64.5 31.5t-22.5 79.5q42 -9 69 -12.5t55 -3.5q16 0 35 1.5t40.5 7.5t46.5 18.5t53 34.5q11 -9 44 -23t77 -27t93.5 -22t93.5 -9
q14 0 27 1t27 3q-11 -23 -43 -47.5t-71 -39.5q-3 -14 -3 -30t1.5 -34t4 -36t6.5 -34t9 -27q-10 -3 -34.5 -15.5t-58.5 -32.5q23 -21 50 -44t55 -40q-5 -11 -7.5 -38t-2.5 -62q0 -26 2 -52.5t7 -51t12.5 -44.5t19.5 -32zM449 619q-54 8 -100 14t-91 17q-2 -25 -2 -54v-59v-78
v-79q32 19 66 38.5t63 36t48 28t21 13.5zM293 -156q19 10 31 25t23 44q38 0 66 -21t31 -53q-31 -57 -67 -86.5t-84 -35.5q11 13 18 31t7 36q0 38 -25 60z" />
    <glyph glyph-name="rcommaaccent" unicode="&#x157;" horiz-adv-x="415" 
d="M200 321q23 37 43 78t37 87q19 -12 54 -24.5t77 -22.5q-5 -42 -18 -76.5t-33 -57.5l-67 35h-12l-81 -114v-138q0 -35 12.5 -50.5t44.5 -20.5v-17h-214v15q27 10 27 64v349l-37 16v11q35 5 76 13.5t73 16.5l18 -30v-134zM61 -156q19 10 31 25t23 44q38 0 66 -21t31 -53
q-31 -57 -67 -86.5t-84 -35.5q11 13 18 31t7 36q0 38 -25 60z" />
    <glyph glyph-name="Rcaron" unicode="&#x158;" horiz-adv-x="697" 
d="M646 39q-42 -30 -65.5 -72.5t-37.5 -84.5q-5 20 -14.5 43t-23.5 44.5t-32.5 40t-40.5 29.5q9 9 13.5 23.5t7 41t3.5 67.5t3 103q-4 2 -26.5 19t-48.5 38q-35 -21 -68.5 -41t-61.5 -37q4 -75 11.5 -141.5t20.5 -121.5q-26 13 -46.5 18t-39.5 5q-17 0 -33.5 -3t-34 -6.5
t-36.5 -6.5t-42 -3h-11t-11 1q21 13 39 34.5t31 47.5t20.5 55t7.5 57q0 51 -12 99.5t-38 80.5q28 52 38 98.5t10 92.5q0 27 -3 59q-42 6 -64.5 31.5t-22.5 79.5q42 -9 69 -12.5t55 -3.5q16 0 35 1.5t40.5 7.5t46.5 18.5t53 34.5q11 -9 44 -23t77 -27t93.5 -22t93.5 -9
q14 0 27 1t27 3q-11 -23 -43 -47.5t-71 -39.5q-3 -14 -3 -30t1.5 -34t4 -36t6.5 -34t9 -27q-10 -3 -34.5 -15.5t-58.5 -32.5q23 -21 50 -44t55 -40q-5 -11 -7.5 -38t-2.5 -62q0 -26 2 -52.5t7 -51t12.5 -44.5t19.5 -32zM442 619q-54 8 -100 14t-91 17q-2 -25 -2 -54v-59v-78
v-79q32 19 66 38.5t63 36t48 28t21 13.5zM528 903q-14 -12 -59.5 -42t-111.5 -75q-42 32 -88.5 61.5t-81.5 55.5q15 13 22.5 20.5t23.5 21.5q12 -6 27.5 -13.5t32.5 -15t34 -14t31 -11.5q13 4 29.5 10.5t33.5 14t33 15t28 14.5q15 -14 23 -22t23 -20z" />
    <glyph glyph-name="rcaron" unicode="&#x159;" horiz-adv-x="415" 
d="M200 321q23 37 43 78t37 87q19 -12 54 -24.5t77 -22.5q-5 -42 -18 -76.5t-33 -57.5l-67 35h-12l-81 -114v-138q0 -35 12.5 -50.5t44.5 -20.5v-17h-214v15q27 10 27 64v349l-37 16v11q35 5 76 13.5t73 16.5l18 -30v-134zM381 736q-14 -15 -49.5 -53t-101.5 -108
q-38 45 -76.5 85.5t-73.5 75.5q15 13 22.5 20.5t23.5 21.5q23 -19 51 -39.5t54 -38.5q25 18 52.5 38.5t51.5 39.5q15 -14 23 -22t23 -20z" />
    <glyph glyph-name="Sacute" unicode="&#x15a;" horiz-adv-x="590" 
d="M254 661q-16 -30 -23 -63.5t-7 -68.5q0 -29 4 -58t11 -58q24 7 50.5 12t59 8t73.5 5t94 4q-3 -40 -6 -92t-3 -110q0 -55 4.5 -110.5t17.5 -106.5q-52 0 -100 -16t-78 -45q-21 13 -47.5 26.5t-63.5 24.5t-86.5 19.5t-116.5 11.5q23 27 36.5 56.5t13.5 62.5q0 11 -1 21
t-4 21q14 0 39 -11.5t59 -29.5t76.5 -41.5t92.5 -47.5q9 25 14.5 67.5t5.5 87.5q0 39 -5 72t-16 47q-27 -2 -60 -6t-68 -10t-70 -13t-67 -15q6 42 11 90t5 99q0 57 -11 110t-43 95q10 -1 28 -4t44 -3q57 0 97 20t68 68q15 -10 36.5 -21t47 -20t54.5 -14.5t60 -5.5
q20 0 39 3.5t37 8.5q-20 -53 -54 -89t-75 -36q-14 0 -36.5 4.5t-47 12t-48.5 17.5t-41 21zM195 847q12 7 37.5 19t54.5 25.5t56.5 27t44.5 24.5q2 -10 8 -26t13 -32.5t14 -31t11 -21.5q-11 -1 -36.5 -5.5t-57.5 -10.5t-65.5 -13t-58.5 -14q-8 19 -10.5 30t-10.5 28z" />
    <glyph glyph-name="sacute" unicode="&#x15b;" horiz-adv-x="460" 
d="M190 403q-2 -16 -2.5 -31t-0.5 -35t1 -40t3 -36q19 7 39.5 12t46 9t57.5 7t75 6q-3 -35 -3 -102q0 -57 2 -101.5t7 -67.5q-31 0 -63 -4t-61 -11t-54 -17t-42 -22q-12 11 -26.5 19t-34.5 13.5t-47 9t-64 5.5q2 31 12.5 63.5t26.5 52.5q23 0 72 -17t130 -53q6 32 9 58.5
t3 55.5v26t-1 15q-44 -4 -102 -14.5t-109 -24.5q4 43 5 66.5t1 42.5q0 45 -4.5 79t-14.5 63q38 0 82 13t110 41q63 -32 188 -41q-18 -43 -41 -62.5t-57 -19.5q-15 0 -34 3t-38.5 9t-38 13.5t-32.5 16.5zM162 617q7 12 19.5 32t27 42.5t28 45.5t22.5 41q6 -8 18.5 -19t27 -22
t28 -20.5t20.5 -13.5q-9 -6 -26 -19.5t-37 -31.5t-41.5 -38t-40.5 -39q-16 13 -23.5 21.5t-22.5 20.5z" />
    <glyph glyph-name="Scircumflex" unicode="&#x15c;" horiz-adv-x="590" 
d="M254 661q-16 -30 -23 -63.5t-7 -68.5q0 -29 4 -58t11 -58q24 7 50.5 12t59 8t73.5 5t94 4q-3 -40 -6 -92t-3 -110q0 -55 4.5 -110.5t17.5 -106.5q-52 0 -100 -16t-78 -45q-21 13 -47.5 26.5t-63.5 24.5t-86.5 19.5t-116.5 11.5q23 27 36.5 56.5t13.5 62.5q0 11 -1 21
t-4 21q14 0 39 -11.5t59 -29.5t76.5 -41.5t92.5 -47.5q9 25 14.5 67.5t5.5 87.5q0 39 -5 72t-16 47q-27 -2 -60 -6t-68 -10t-70 -13t-67 -15q6 42 11 90t5 99q0 57 -11 110t-43 95q10 -1 28 -4t44 -3q57 0 97 20t68 68q15 -10 36.5 -21t47 -20t54.5 -14.5t60 -5.5
q20 0 39 3.5t37 8.5q-20 -53 -54 -89t-75 -36q-14 0 -36.5 4.5t-47 12t-48.5 17.5t-41 21zM475 828q-15 -12 -23 -20t-23 -22q-12 7 -28 14.5t-33 14.5t-33.5 13.5t-29.5 11.5q-14 -5 -31 -11.5t-34 -14t-32.5 -15t-27.5 -13.5q-16 13 -23.5 21.5t-22.5 20.5
q35 26 81.5 55.5t88.5 61.5q66 -45 111.5 -75t59.5 -42z" />
    <glyph glyph-name="scircumflex" unicode="&#x15d;" horiz-adv-x="460" 
d="M190 403q-2 -16 -2.5 -31t-0.5 -35t1 -40t3 -36q19 7 39.5 12t46 9t57.5 7t75 6q-3 -35 -3 -102q0 -57 2 -101.5t7 -67.5q-31 0 -63 -4t-61 -11t-54 -17t-42 -22q-12 11 -26.5 19t-34.5 13.5t-47 9t-64 5.5q2 31 12.5 63.5t26.5 52.5q23 0 72 -17t130 -53q6 32 9 58.5
t3 55.5v26t-1 15q-44 -4 -102 -14.5t-109 -24.5q4 43 5 66.5t1 42.5q0 45 -4.5 79t-14.5 63q38 0 82 13t110 41q63 -32 188 -41q-18 -43 -41 -62.5t-57 -19.5q-15 0 -34 3t-38.5 9t-38 13.5t-32.5 16.5zM403 617q-15 -12 -23 -20t-23 -22q-24 19 -51.5 39.5t-52.5 38.5
q-26 -18 -54 -38.5t-51 -39.5q-16 13 -23.5 21.5t-22.5 20.5q35 35 73.5 75.5t76.5 85.5q66 -70 101.5 -108t49.5 -53z" />
    <glyph glyph-name="uni015E" unicode="&#x15e;" horiz-adv-x="590" 
d="M290 -116q1 11 1 23v23v64q-41 17 -101 31t-153 19q23 27 36.5 56.5t13.5 62.5q0 11 -1 21t-4 21q14 0 39 -11.5t59 -29.5t76.5 -41.5t92.5 -47.5q9 25 14.5 67.5t5.5 87.5q0 39 -5 72t-16 47q-27 -2 -60 -6t-68 -10t-70 -13t-67 -15q6 42 11 90t5 99q0 57 -11 110
t-43 95q10 -1 28 -4t44 -3q57 0 97 20t68 68q15 -10 36.5 -21t47 -20t54.5 -14.5t60 -5.5q20 0 39 3.5t37 8.5q-20 -53 -54 -89t-75 -36q-14 0 -36.5 4.5t-47 12t-48.5 17.5t-41 21q-16 -30 -23 -63.5t-7 -68.5q0 -29 4 -58t11 -58q24 7 50.5 12t59 8t73.5 5t94 4
q-3 -40 -6 -92t-3 -110q0 -55 4.5 -110.5t17.5 -106.5q-48 0 -90.5 -13t-73.5 -36v-53h61l42 -31v-29.5t0.5 -45t1.5 -42.5t3 -21q-15 0 -33.5 -3t-37 -8.5t-34.5 -11.5t-25 -12q-26 32 -61 32q-9 0 -18.5 -2t-19.5 -7q12 31 32.5 46t41.5 15q7 0 17.5 -1.5t21.5 -4t21 -6.5
t16 -10q0 3 -0.5 11.5t-0.5 20.5t-0.5 26t-0.5 28q-14 2 -24 3t-21 1q-24 0 -39 -4z" />
    <glyph glyph-name="uni015F" unicode="&#x15f;" horiz-adv-x="460" 
d="M187 -116q1 11 1 23v23v47q-23 19 -60 27.5t-105 12.5q2 31 12.5 63.5t26.5 52.5q23 0 72 -17t130 -53q6 32 9 58.5t3 55.5v26t-1 15q-44 -4 -102 -14.5t-109 -24.5q4 43 5 66.5t1 42.5q0 45 -4.5 79t-14.5 63q38 0 82 13t110 41q63 -32 188 -41q-18 -43 -41 -62.5
t-57 -19.5q-15 0 -34 3t-38.5 9t-38 13.5t-32.5 16.5q-2 -16 -2.5 -31t-0.5 -35t1 -40t3 -36q19 7 39.5 12t46 9t57.5 7t75 6q-3 -35 -3 -102q0 -57 2 -101.5t7 -67.5q-39 0 -79 -6.5t-74 -17.5v-79h61l42 -31v-29.5t0.5 -45t1.5 -42.5t3 -21q-15 0 -33.5 -3t-37 -8.5
t-34.5 -11.5t-25 -12q-26 32 -61 32q-9 0 -18.5 -2t-19.5 -7q12 31 32.5 46t41.5 15q7 0 17.5 -1.5t21.5 -4t21 -6.5t16 -10q0 3 -0.5 11.5t-0.5 20.5t-0.5 26t-0.5 28q-14 2 -24 3t-21 1q-24 0 -39 -4z" />
    <glyph glyph-name="Scaron" unicode="&#x160;" horiz-adv-x="590" 
d="M254 661q-16 -30 -23 -63.5t-7 -68.5q0 -29 4 -58t11 -58q24 7 50.5 12t59 8t73.5 5t94 4q-3 -40 -6 -92t-3 -110q0 -55 4.5 -110.5t17.5 -106.5q-52 0 -100 -16t-78 -45q-21 13 -47.5 26.5t-63.5 24.5t-86.5 19.5t-116.5 11.5q23 27 36.5 56.5t13.5 62.5q0 11 -1 21
t-4 21q14 0 39 -11.5t59 -29.5t76.5 -41.5t92.5 -47.5q9 25 14.5 67.5t5.5 87.5q0 39 -5 72t-16 47q-27 -2 -60 -6t-68 -10t-70 -13t-67 -15q6 42 11 90t5 99q0 57 -11 110t-43 95q10 -1 28 -4t44 -3q57 0 97 20t68 68q15 -10 36.5 -21t47 -20t54.5 -14.5t60 -5.5
q20 0 39 3.5t37 8.5q-20 -53 -54 -89t-75 -36q-14 0 -36.5 4.5t-47 12t-48.5 17.5t-41 21zM505 903q-14 -12 -59.5 -42t-111.5 -75q-42 32 -88.5 61.5t-81.5 55.5q15 13 22.5 20.5t23.5 21.5q12 -6 27.5 -13.5t32.5 -15t34 -14t31 -11.5q13 4 29.5 10.5t33.5 14t33 15
t28 14.5q15 -14 23 -22t23 -20z" />
    <glyph glyph-name="scaron" unicode="&#x161;" horiz-adv-x="460" 
d="M190 403q-2 -16 -2.5 -31t-0.5 -35t1 -40t3 -36q19 7 39.5 12t46 9t57.5 7t75 6q-3 -35 -3 -102q0 -57 2 -101.5t7 -67.5q-31 0 -63 -4t-61 -11t-54 -17t-42 -22q-12 11 -26.5 19t-34.5 13.5t-47 9t-64 5.5q2 31 12.5 63.5t26.5 52.5q23 0 72 -17t130 -53q6 32 9 58.5
t3 55.5v26t-1 15q-44 -4 -102 -14.5t-109 -24.5q4 43 5 66.5t1 42.5q0 45 -4.5 79t-14.5 63q38 0 82 13t110 41q63 -32 188 -41q-18 -43 -41 -62.5t-57 -19.5q-15 0 -34 3t-38.5 9t-38 13.5t-32.5 16.5zM403 736q-14 -15 -49.5 -53t-101.5 -108q-38 45 -76.5 85.5
t-73.5 75.5q15 13 22.5 20.5t23.5 21.5q23 -19 51 -39.5t54 -38.5q25 18 52.5 38.5t51.5 39.5q15 -14 23 -22t23 -20z" />
    <glyph glyph-name="uni0162" unicode="&#x162;" horiz-adv-x="663" 
d="M304 -116q1 11 1 23v23v61q-36 29 -90 49q20 29 30 75.5t10 90.5v76.5t0.5 62.5t1 56t1 58t0.5 68v87v15t-2 15q-66 12 -125.5 24.5t-108.5 12.5q-22 0 -47 -5l-1 3q54 16 88.5 39t69.5 55q52 -15 88.5 -24t68 -14t62 -6.5t69.5 -1.5q-10 17 -14 30.5t-5 28.5
q33 -21 61.5 -32.5t54.5 -17t52 -6.5t54 -1q16 0 29.5 1t27.5 3l2 -4q-24 -21 -52.5 -40t-59.5 -33t-64 -22.5t-66 -8.5h-21t-20 1q-3 -30 -3 -61q0 -85 1 -171t1 -183q0 -52 18.5 -100.5t53.5 -70.5q-29 -14 -51.5 -28t-39.5 -34v-57h61l42 -31v-29.5t0.5 -45t1.5 -42.5
t3 -21q-15 0 -33.5 -3t-37 -8.5t-34.5 -11.5t-25 -12q-26 32 -61 32q-9 0 -18.5 -2t-19.5 -7q12 31 32.5 46t41.5 15q7 0 17.5 -1.5t21.5 -4t21 -6.5t16 -10q0 3 -0.5 11.5t-0.5 20.5t-0.5 26t-0.5 28q-14 2 -24 3t-21 1q-24 0 -39 -4z" />
    <glyph glyph-name="uni0163" unicode="&#x163;" horiz-adv-x="348" 
d="M133 -116q1 11 1 23v23v67l-45 23v372h-83v11q44 17 83 52v32q0 8 -1.5 25.5t-3.5 36t-5 34t-7 20.5q45 3 83 18t81 38q-4 -10 -7 -31t-5.5 -44.5t-3.5 -45t-1 -30.5v-53h141v-4q-16 -17 -28.5 -38t-17.5 -41l-95 12v-221q0 -52 25.5 -78t63.5 -28v-14q-23 -8 -50 -21
t-50 -27v-74h61l42 -31v-29.5t0.5 -45t1.5 -42.5t3 -21q-15 0 -33.5 -3t-37 -8.5t-34.5 -11.5t-25 -12q-26 32 -61 32q-9 0 -18.5 -2t-19.5 -7q12 31 32.5 46t41.5 15q7 0 17.5 -1.5t21.5 -4t21 -6.5t16 -10q0 3 -0.5 11.5t-0.5 20.5t-0.5 26t-0.5 28q-14 2 -24 3t-21 1
q-24 0 -39 -4z" />
    <glyph glyph-name="Tcaron" unicode="&#x164;" horiz-adv-x="663" 
d="M682 729q-24 -21 -52.5 -40t-59.5 -33t-64 -22.5t-66 -8.5h-21t-20 1q-3 -30 -3 -61q0 -85 1 -171t1 -183q0 -52 18.5 -100.5t53.5 -70.5q-42 -20 -70.5 -42.5t-50.5 -64.5q-17 41 -53 65.5t-81 41.5q20 29 30 75.5t10 90.5v76.5t0.5 62.5t1 56t1 58t0.5 68v87v15t-2 15
q-66 12 -125.5 24.5t-108.5 12.5q-22 0 -47 -5l-1 3q54 16 88.5 39t69.5 55q52 -15 88.5 -24t68 -14t62 -6.5t69.5 -1.5q-10 17 -14 30.5t-5 28.5q33 -21 61.5 -32.5t54.5 -17t52 -6.5t54 -1q16 0 29.5 1t27.5 3zM497 903q-14 -12 -59.5 -42t-111.5 -75q-42 32 -88.5 61.5
t-81.5 55.5q15 13 22.5 20.5t23.5 21.5q12 -6 27.5 -13.5t32.5 -15t34 -14t31 -11.5q13 4 29.5 10.5t33.5 14t33 15t28 14.5q15 -14 23 -22t23 -20z" />
    <glyph glyph-name="tcaron" unicode="&#x165;" horiz-adv-x="348" 
d="M219 384v-221q0 -52 25.5 -78t63.5 -28v-14q-17 -6 -36 -15t-37 -18.5t-34 -19.5t-25 -18q-23 14 -47 27t-40 21v372h-83v11q44 17 83 52v32q0 8 -1.5 25.5t-3.5 36t-5 34t-7 20.5q45 3 83 18t81 38q-4 -10 -7 -31t-5.5 -44.5t-3.5 -45t-1 -30.5v-53h141v-4
q-16 -17 -28.5 -38t-17.5 -41zM273 644q24 20 34.5 42.5t19.5 56.5q15 0 33 -5.5t33.5 -18t27 -32.5t13.5 -48q-7 -20 -19.5 -45t-32 -48t-46.5 -39.5t-63 -19.5q27 33 27 75q0 24 -8 46t-19 36z" />
    <glyph glyph-name="Tbar" unicode="&#x166;" horiz-adv-x="671" 
d="M685 729q-24 -21 -52.5 -40t-59.5 -33t-64 -22.5t-66 -8.5h-21t-20 1q-3 -30 -3 -61v-65h51q28 0 57.5 2.5t55.5 15.5q-2 -14 -3 -27t-1 -27t1 -27t3 -27q-25 9 -53.5 13t-58.5 4h-52q1 -52 1.5 -105t0.5 -111q0 -52 18.5 -100.5t53.5 -70.5q-42 -20 -70.5 -42.5
t-50.5 -64.5q-17 41 -53 65.5t-81 41.5q20 28 29 70.5t12 86.5t2 85t-1 67v78h-52q-30 0 -58.5 -4t-53.5 -13q2 14 3 27t1 27t-1 27t-3 27q26 -13 55.5 -15.5t57.5 -2.5h52v94v20v15t-2 15q-66 12 -125.5 24.5t-108.5 12.5q-22 0 -47 -5l-1 3q54 16 88.5 39t69.5 55
q52 -15 88.5 -24t68 -14t62 -6.5t69.5 -1.5q-10 17 -14 30.5t-5 28.5q33 -21 61.5 -32.5t54.5 -17t52 -6.5t54 -1q16 0 29.5 1t27.5 3z" />
    <glyph glyph-name="tbar" unicode="&#x167;" horiz-adv-x="362" 
d="M229 384v-117q29 0 58.5 2.5t55.5 15.5q-2 -14 -3 -26t-1 -23q0 -12 1 -23.5t3 -25.5q-47 17 -114 17v-41q0 -52 25.5 -78t63.5 -28v-14q-17 -6 -36 -15t-37 -18.5t-34 -19.5t-25 -18q-23 14 -47 27t-40 21v183q-49 -3 -83 -16q2 14 3 25.5t1 23.5q0 11 -1 23t-3 26
q19 -10 40.5 -13.5t42.5 -4.5v125h-83v11q44 17 83 52v32q0 8 -1.5 25.5t-3.5 36t-5 34t-7 20.5q45 3 83 18t81 38q-4 -10 -7 -31t-5.5 -44.5t-3.5 -45t-1 -30.5v-53h141v-4q-16 -17 -28.5 -38t-17.5 -41z" />
    <glyph glyph-name="Utilde" unicode="&#x168;" horiz-adv-x="709" 
d="M582 535q0 -33 5 -65.5t12.5 -59t16.5 -44.5t17 -23q-18 -18 -29.5 -41.5t-18 -49.5t-8.5 -53.5t-2 -53.5q0 -15 0.5 -26.5t1.5 -19.5q17 -4 33 -12t29.5 -23t23 -38t12.5 -56q-60 18 -105 25t-83 7q-103 0 -170 -17.5t-92 -32.5q-14 30 -53 65.5t-87 75.5q2 14 3 33.5
t1 33.5q0 34 -2 65.5t-6.5 57t-10.5 43t-14 23.5q27 35 39 84.5t12 106.5q0 52 -12.5 99t-42.5 90q45 -4 77 -9.5t54 -20.5t36.5 -44.5t24.5 -80.5q0 -109 -8 -210t-12 -207l76 -93q24 15 58.5 26t77.5 13q9 25 12.5 73t4 110t0.5 134t1 147q-3 73 -9 155q58 -19 116 -19
q26 0 55 4.5t66 14.5q-3 -31 -12.5 -54t-23 -38.5t-30 -24.5t-32.5 -12q-1 -8 -1.5 -21t-0.5 -37zM178 899q31 2 65.5 15.5t57.5 27.5l91 -44q35 2 65 16t58 29v-118q-42 -1 -72.5 -12.5t-49.5 -29.5l-93 44q-52 -1 -79.5 -15.5t-42.5 -28.5v116z" />
    <glyph glyph-name="utilde" unicode="&#x169;" 
d="M18 443q21 2 47 6.5t52 10.5t48 12.5t35 12.5q-2 -17 -3.5 -31t-2 -30t-1 -35t-0.5 -45v-202l42 -32l96 42v156q0 34 -1.5 56t-6.5 35t-13.5 19.5t-23.5 10.5v13q48 3 94.5 14t80.5 28v-236q0 -47 2 -76.5t7 -47.5t13.5 -26t22.5 -11v-11q-13 -6 -29 -18t-31 -27
t-27 -30.5t-18 -28.5q-33 28 -47.5 52t-19.5 59q-30 -15 -52.5 -28t-41 -26t-34 -27t-31.5 -30q-20 18 -35.5 30.5t-30 22.5t-29 18.5t-32.5 18.5q4 6 7.5 27t6.5 51t4.5 64.5t1.5 66.5q0 36 -2.5 62.5t-8.5 45.5t-15.5 31.5t-24.5 21.5zM92 691q31 3 65.5 24t57.5 46
l91 -71q35 5 64.5 25.5t58.5 46.5v-118q-42 -1 -72.5 -21t-49.5 -48l-93 71q-51 0 -79.5 -22.5t-42.5 -48.5v116z" />
    </font>
</defs>
</svg>
